STARTFONT 2.1
COMMENT
COMMENT Converted from OpenType font "MFXuanRen_Noncommercial-Regular.ttf" by "otf2bdf 3.0".
COMMENT
FONT -FreeType-MF XuanRen(Noncommercial)-Medium-R-Normal--33-240-100-100-P-283-ISO10646-1
SIZE 24 100 100
FONTBOUNDINGBOX 32 44 0 -14
STARTPROPERTIES 19
FOUNDRY "FreeType"
FAMILY_NAME "MF XuanRen(Noncommercial)"
WEIGHT_NAME "Medium"
SLANT "R"
SETWIDTH_NAME "Normal"
ADD_STYLE_NAME ""
PIXEL_SIZE 33
POINT_SIZE 240
RESOLUTION_X 100
RESOLUTION_Y 100
SPACING "P"
AVERAGE_WIDTH 283
CHARSET_REGISTRY "ISO10646"
CHARSET_ENCODING "1"
FONT_ASCENT 29
FONT_DESCENT 13
COPYRIGHT "© 2020SN. All rights reserved."
_OTF_FONTFILE "MFXuanRen_Noncommercial-Regular.ttf"
_OTF_PSNAME "MF XuanRen(Noncommercial)-Regular"
ENDPROPERTIES
CHARS 7256
STARTCHAR 0000
ENCODING 0
SWIDTH 240 0
DWIDTH 8 0
BBX 0 0 0 0
BITMAP
ENDCHAR
STARTCHAR 0001
ENCODING 1
SWIDTH 240 0
DWIDTH 8 0
BBX 0 0 0 0
BITMAP
ENDCHAR
STARTCHAR 0002
ENCODING 2
SWIDTH 240 0
DWIDTH 8 0
BBX 0 0 0 0
BITMAP
ENDCHAR
STARTCHAR 0003
ENCODING 3
SWIDTH 240 0
DWIDTH 8 0
BBX 0 0 0 0
BITMAP
ENDCHAR
STARTCHAR 0004
ENCODING 4
SWIDTH 240 0
DWIDTH 8 0
BBX 0 0 0 0
BITMAP
ENDCHAR
STARTCHAR 0005
ENCODING 5
SWIDTH 240 0
DWIDTH 8 0
BBX 0 0 0 0
BITMAP
ENDCHAR
STARTCHAR 0006
ENCODING 6
SWIDTH 240 0
DWIDTH 8 0
BBX 0 0 0 0
BITMAP
ENDCHAR
STARTCHAR 0007
ENCODING 7
SWIDTH 240 0
DWIDTH 8 0
BBX 0 0 0 0
BITMAP
ENDCHAR
STARTCHAR 000A
ENCODING 10
SWIDTH 240 0
DWIDTH 8 0
BBX 0 0 0 0
BITMAP
ENDCHAR
STARTCHAR 000B
ENCODING 11
SWIDTH 240 0
DWIDTH 8 0
BBX 0 0 0 0
BITMAP
ENDCHAR
STARTCHAR 000C
ENCODING 12
SWIDTH 240 0
DWIDTH 8 0
BBX 0 0 0 0
BITMAP
ENDCHAR
STARTCHAR 000E
ENCODING 14
SWIDTH 240 0
DWIDTH 8 0
BBX 0 0 0 0
BITMAP
ENDCHAR
STARTCHAR 000F
ENCODING 15
SWIDTH 240 0
DWIDTH 8 0
BBX 0 0 0 0
BITMAP
ENDCHAR
STARTCHAR 0010
ENCODING 16
SWIDTH 240 0
DWIDTH 8 0
BBX 0 0 0 0
BITMAP
ENDCHAR
STARTCHAR 0011
ENCODING 17
SWIDTH 240 0
DWIDTH 8 0
BBX 0 0 0 0
BITMAP
ENDCHAR
STARTCHAR 0012
ENCODING 18
SWIDTH 240 0
DWIDTH 8 0
BBX 0 0 0 0
BITMAP
ENDCHAR
STARTCHAR 0013
ENCODING 19
SWIDTH 240 0
DWIDTH 8 0
BBX 0 0 0 0
BITMAP
ENDCHAR
STARTCHAR 0014
ENCODING 20
SWIDTH 240 0
DWIDTH 8 0
BBX 0 0 0 0
BITMAP
ENDCHAR
STARTCHAR 0015
ENCODING 21
SWIDTH 240 0
DWIDTH 8 0
BBX 0 0 0 0
BITMAP
ENDCHAR
STARTCHAR 0016
ENCODING 22
SWIDTH 240 0
DWIDTH 8 0
BBX 0 0 0 0
BITMAP
ENDCHAR
STARTCHAR 0017
ENCODING 23
SWIDTH 240 0
DWIDTH 8 0
BBX 0 0 0 0
BITMAP
ENDCHAR
STARTCHAR 0018
ENCODING 24
SWIDTH 240 0
DWIDTH 8 0
BBX 0 0 0 0
BITMAP
ENDCHAR
STARTCHAR 0019
ENCODING 25
SWIDTH 240 0
DWIDTH 8 0
BBX 0 0 0 0
BITMAP
ENDCHAR
STARTCHAR 001A
ENCODING 26
SWIDTH 240 0
DWIDTH 8 0
BBX 0 0 0 0
BITMAP
ENDCHAR
STARTCHAR 001B
ENCODING 27
SWIDTH 240 0
DWIDTH 8 0
BBX 0 0 0 0
BITMAP
ENDCHAR
STARTCHAR 001C
ENCODING 28
SWIDTH 240 0
DWIDTH 8 0
BBX 0 0 0 0
BITMAP
ENDCHAR
STARTCHAR 001D
ENCODING 29
SWIDTH 240 0
DWIDTH 8 0
BBX 0 0 0 0
BITMAP
ENDCHAR
STARTCHAR 001E
ENCODING 30
SWIDTH 240 0
DWIDTH 8 0
BBX 0 0 0 0
BITMAP
ENDCHAR
STARTCHAR 001F
ENCODING 31
SWIDTH 240 0
DWIDTH 8 0
BBX 0 0 0 0
BITMAP
ENDCHAR
STARTCHAR 0020
ENCODING 32
SWIDTH 240 0
DWIDTH 8 0
BBX 0 0 0 0
BITMAP
ENDCHAR
STARTCHAR 0021
ENCODING 33
SWIDTH 240 0
DWIDTH 8 0
BBX 4 29 2 -2
BITMAP
F0
F0
F0
F0
F0
F0
F0
F0
F0
F0
F0
F0
F0
F0
F0
F0
F0
F0
F0
F0
F0
F0
00
00
F0
F0
F0
F0
F0
ENDCHAR
STARTCHAR 0022
ENCODING 34
SWIDTH 450 0
DWIDTH 15 0
BBX 11 5 2 24
BITMAP
79E0
79E0
FBE0
F3C0
F3C0
ENDCHAR
STARTCHAR 0023
ENCODING 35
SWIDTH 840 0
DWIDTH 28 0
BBX 24 29 2 -2
BITMAP
00F03C
00F07C
00F078
01F078
01E078
3FFFFF
3FFFFF
7FFFFF
7FFFFF
03C1F0
03C1F0
07C1E0
07C1E0
0781E0
0783E0
0783C0
FFFFFE
FFFFFE
FFFFFE
FFFFFE
1F0780
1E0780
1E0780
1E0F80
3E0F80
3E0F00
3C0F00
3C0F00
3C1F00
ENDCHAR
STARTCHAR 0024
ENCODING 36
SWIDTH 720 0
DWIDTH 24 0
BBX 20 32 2 -3
BITMAP
00F000
00F000
00F000
FFFFF0
FFFFF0
FFFFF0
FFFFE0
F0F000
F0F000
F0F000
F0F000
F0F000
F0F000
F0F000
FFFFF0
FFFFF0
FFFFF0
FFFFF0
00F0F0
00F0F0
00F0F0
00F0F0
00F0F0
00F0F0
00F0F0
7FFFF0
FFFFF0
FFFFF0
FFFFF0
00F000
00F000
00F000
ENDCHAR
STARTCHAR 0025
ENCODING 37
SWIDTH 930 0
DWIDTH 31 0
BBX 27 29 2 -2
BITMAP
FFE003E0
FFE007C0
FFE00F80
FFE00F00
F1E01F00
F1E03E00
FFE07C00
FFE07800
F7E0F000
F7E1F000
0003E000
0007C000
00078000
000F8000
001F0000
003E0000
003C0000
00780000
00F8FFE0
01F0FFE0
03E0FFE0
03C0FFE0
07C0F1E0
0F80F1E0
1F00F1E0
1E00FFE0
3C00FFE0
7C00F7E0
F800F7E0
ENDCHAR
STARTCHAR 0026
ENCODING 38
SWIDTH 840 0
DWIDTH 28 0
BBX 24 29 2 -2
BITMAP
7FFFE0
7FFFE0
7FFFE0
7FFFE0
7801E0
7801E0
7801E0
7801E0
7801E0
7C07E0
7E1FE0
3FBF80
1FFE00
07FC00
0FF81E
1FFC3C
7F7F3C
FE3FBC
F81FFC
F007F8
F003F8
F001FC
F000FE
F000FF
F000FF
FFFFFF
FFFFE3
FFFFE1
FFFFE0
ENDCHAR
STARTCHAR 0027
ENCODING 39
SWIDTH 240 0
DWIDTH 8 0
BBX 6 5 1 24
BITMAP
7C
78
78
78
F8
ENDCHAR
STARTCHAR 0028
ENCODING 40
SWIDTH 360 0
DWIDTH 12 0
BBX 8 31 2 -3
BITMAP
0F
1F
1E
3E
3C
3C
7C
78
78
78
F8
F8
F0
F0
F0
F0
F0
F0
F0
F8
F8
F8
78
78
7C
7C
3C
3E
3E
1F
1F
ENDCHAR
STARTCHAR 0029
ENCODING 41
SWIDTH 330 0
DWIDTH 11 0
BBX 8 31 1 -3
BITMAP
F8
78
7C
3C
3C
3E
1E
1E
1F
1F
0F
0F
0F
0F
0F
0F
0F
0F
0F
0F
0F
1F
1F
1E
1E
3E
3E
3C
7C
78
F8
ENDCHAR
STARTCHAR 002A
ENCODING 42
SWIDTH 480 0
DWIDTH 16 0
BBX 13 12 1 16
BITMAP
0700
0700
4718
7778
7FF8
FFF8
0F80
0FC0
1DC0
3DE0
38F0
18C0
ENDCHAR
STARTCHAR 002B
ENCODING 43
SWIDTH 750 0
DWIDTH 25 0
BBX 23 20 1 0
BITMAP
007800
007800
007800
007800
007800
007800
007800
007800
7FFFFE
7FFFFC
FFFFFC
FFFFF8
007800
007800
007800
007800
007800
007800
007800
007800
ENDCHAR
STARTCHAR 002C
ENCODING 44
SWIDTH 240 0
DWIDTH 8 0
BBX 6 6 1 -3
BITMAP
7C
7C
7C
78
78
F8
ENDCHAR
STARTCHAR 002D
ENCODING 45
SWIDTH 870 0
DWIDTH 29 0
BBX 24 4 2 9
BITMAP
3FFFFF
7FFFFF
7FFFFE
FFFFFE
ENDCHAR
STARTCHAR 002E
ENCODING 46
SWIDTH 240 0
DWIDTH 8 0
BBX 4 6 2 -3
BITMAP
F0
F0
F0
F0
F0
F0
ENDCHAR
STARTCHAR 002F
ENCODING 47
SWIDTH 480 0
DWIDTH 16 0
BBX 14 32 1 -4
BITMAP
003C
007C
007C
0078
00F8
00F8
00F0
00F0
01F0
01E0
01E0
03E0
03E0
03C0
07C0
07C0
0780
0F80
0F80
0F00
1F00
1F00
1E00
3E00
3E00
3C00
7C00
7C00
7800
F800
F800
F000
ENDCHAR
STARTCHAR 0030
ENCODING 48
SWIDTH 780 0
DWIDTH 26 0
BBX 22 29 2 -2
BITMAP
FFFFFC
FFFFFC
FFFFFC
FFFFFC
F0003C
F0003C
F0003C
F0003C
F0003C
F0003C
F0003C
F0003C
F0003C
F0003C
F0003C
F0003C
F0003C
F0003C
F0003C
F0003C
F0003C
F0003C
F0003C
F0003C
F0003C
F7FFFC
F3FFFC
F3FFFC
F3FFFC
ENDCHAR
STARTCHAR 0031
ENCODING 49
SWIDTH 480 0
DWIDTH 16 0
BBX 15 29 0 -2
BITMAP
3FC0
3FC0
7FC0
7FC0
03C0
03C0
03C0
03C0
03C0
03C0
03C0
03C0
03C0
03C0
03C0
03C0
03C0
03C0
03C0
03C0
03C0
03C0
03C0
03C0
03C0
7FFE
7FFE
7FFE
FFFC
ENDCHAR
STARTCHAR 0032
ENCODING 50
SWIDTH 810 0
DWIDTH 27 0
BBX 22 29 3 -2
BITMAP
7FFFF8
FFFFF8
FFFFF8
FFFFF8
000078
000078
000078
000078
000078
000078
000078
000078
FFFFF8
FFFFF8
FFFFF8
FFFFF8
F00000
F00000
F00000
F00000
F00000
F00000
F00000
F00000
F00000
FFFFFC
FFFFF8
FFFFF8
FFFFF8
ENDCHAR
STARTCHAR 0033
ENCODING 51
SWIDTH 780 0
DWIDTH 26 0
BBX 21 29 2 -2
BITMAP
7FFFF8
7FFFF8
FFFFF8
FFFFF8
000078
000078
000078
000078
000078
000078
000078
000078
3FFFF8
7FFFF8
7FFFF8
7FFFF8
000078
000078
000078
000078
000078
000078
000078
000078
000078
7FFFF8
7FFFF8
FFFFF8
FFFFF8
ENDCHAR
STARTCHAR 0034
ENCODING 52
SWIDTH 780 0
DWIDTH 26 0
BBX 22 29 2 -2
BITMAP
1E0780
3E0780
3E0780
3E0780
3C0780
3C0780
3C0780
3C0780
7C0780
7C0780
7C0780
780780
780780
780780
780780
F80780
F80780
FFFFFC
FFFFFC
FFFFFC
FFFFF8
000780
000780
000780
000780
000780
000780
000780
000780
ENDCHAR
STARTCHAR 0035
ENCODING 53
SWIDTH 810 0
DWIDTH 27 0
BBX 22 31 3 -2
BITMAP
F00000
F00000
FFFFFC
FFFFF8
FFFFF8
FFFFF8
F00000
F00000
F00000
F00000
F00000
F00000
F00000
F00000
FFFFF8
FFFFF8
FFFFF8
FFFFF8
000078
000078
000078
000078
000078
000078
000078
000078
000078
FFFFF8
FFFFF8
FFFFF8
FFFFF8
ENDCHAR
STARTCHAR 0036
ENCODING 54
SWIDTH 780 0
DWIDTH 26 0
BBX 22 29 2 -2
BITMAP
FFFFFC
FFFFF8
FFFFF8
FFFFF0
F00000
F00000
F00000
F00000
F00000
F00000
F00000
F00000
FFFFF8
FFFFF8
FFFFF8
FFFFF8
F00078
F00078
F00078
F00078
F00078
F00078
F00078
F00078
F00078
FFFFF8
FFFFF8
FFFFF8
FFFFF8
ENDCHAR
STARTCHAR 0037
ENCODING 55
SWIDTH 750 0
DWIDTH 25 0
BBX 23 29 1 -2
BITMAP
3FFFFE
7FFFFC
7FFFFC
FFFFFC
000078
0000F8
0000F8
0000F0
0001F0
0001F0
0001E0
0003E0
0003E0
0003C0
0007C0
0007C0
0007C0
000F80
000F80
000F80
001F00
001F00
001F00
001E00
003E00
003E00
003C00
007C00
007C00
ENDCHAR
STARTCHAR 0038
ENCODING 56
SWIDTH 780 0
DWIDTH 26 0
BBX 22 29 2 -2
BITMAP
FFFFFC
FFFFFC
FFFFFC
FFFFFC
F0003C
F0003C
F0003C
F0003C
F0003C
F0003C
F0003C
F0003C
FFFFFC
FFFFFC
FFFFFC
FFFFFC
F0003C
F0003C
F0003C
F0003C
F0003C
F0003C
F0003C
F0003C
F0003C
F7FFFC
F3FFFC
F3FFFC
F3FFFC
ENDCHAR
STARTCHAR 0039
ENCODING 57
SWIDTH 810 0
DWIDTH 27 0
BBX 21 29 3 -2
BITMAP
FFFFF8
FFFFF8
FFFFF8
FFFFF8
F00078
F00078
F00078
F00078
F00078
F00078
F00078
F00078
FFFFF8
FFFFF8
FFFFF8
FFFFF8
000078
000078
000078
000078
000078
000078
000078
000078
000078
7FFFF8
FFFFF8
FFFFF8
FFFFF8
ENDCHAR
STARTCHAR 003A
ENCODING 58
SWIDTH 210 0
DWIDTH 7 0
BBX 4 20 2 0
BITMAP
F0
F0
F0
F0
F0
F0
00
00
00
00
00
00
00
00
F0
F0
F0
F0
F0
F0
ENDCHAR
STARTCHAR 003B
ENCODING 59
SWIDTH 240 0
DWIDTH 8 0
BBX 4 20 2 0
BITMAP
F0
F0
F0
F0
F0
F0
00
00
00
00
00
00
00
00
F0
F0
F0
F0
F0
F0
ENDCHAR
STARTCHAR 003C
ENCODING 60
SWIDTH 360 0
DWIDTH 12 0
BBX 10 20 1 0
BITMAP
0780
0780
0F00
1F00
1E00
3C00
7C00
7800
F800
F000
F800
7800
7C00
3C00
3E00
1E00
0F00
0F00
0780
07C0
ENDCHAR
STARTCHAR 003D
ENCODING 61
SWIDTH 840 0
DWIDTH 28 0
BBX 24 12 2 5
BITMAP
7FFFFF
7FFFFF
7FFFFE
FFFFFE
000000
000000
000000
000000
7FFFFF
7FFFFF
7FFFFE
FFFFFE
ENDCHAR
STARTCHAR 003E
ENCODING 62
SWIDTH 360 0
DWIDTH 12 0
BBX 10 20 2 0
BITMAP
F000
F800
7800
3C00
3E00
1E00
0F00
0F00
0780
07C0
0780
0F00
0F00
1E00
1E00
3C00
7C00
7800
F800
F000
ENDCHAR
STARTCHAR 003F
ENCODING 63
SWIDTH 690 0
DWIDTH 23 0
BBX 21 29 1 -2
BITMAP
FFFFF8
FFFFF8
FFFFF8
FFFFF8
F00078
F00078
F00078
F00078
F00078
F00078
0000F8
0001F8
0007F0
000FE0
003F80
007F00
007E00
007800
007800
007800
007800
007800
000000
007800
007800
007800
007800
007800
007800
ENDCHAR
STARTCHAR 0040
ENCODING 64
SWIDTH 930 0
DWIDTH 31 0
BBX 27 29 2 -2
BITMAP
FFFFFF80
FFFFFF80
FFFFFF80
FFFFFF80
F0000780
F0000780
F1FFE780
F1FFE780
F1FFE780
F1FFE780
F1E1E780
F1E1E780
F1E1E780
F1E1E780
F1E1E780
F1E1E780
F1E1E780
F1E1E780
F1FFFF80
F1FFFF80
F1FFFF80
F1FFFF80
F0000000
F0000000
F0000000
FFFFFFE0
FFFFFFC0
FFFFFFC0
FFFFFF80
ENDCHAR
STARTCHAR 0041
ENCODING 65
SWIDTH 870 0
DWIDTH 29 0
BBX 25 29 2 -2
BITMAP
003E0000
007E0000
007F0000
007F0000
00FF8000
00F78000
00F78000
01E7C000
01E3C000
03E3C000
03C1E000
03C1E000
07C1E000
0780F000
07FFF000
0FFFF000
0FFF7800
0FFF7800
1E007C00
1E003C00
3E003C00
3C003E00
3C001E00
7C001E00
78001F00
78000F00
F8000F00
F0000F80
F0000780
ENDCHAR
STARTCHAR 0042
ENCODING 66
SWIDTH 780 0
DWIDTH 26 0
BBX 22 29 2 -2
BITMAP
FFFFFC
FFFFFC
FFFFFC
FFFFFC
F0003C
F0003C
F0003C
F0003C
F0003C
F0003C
F0003C
F00038
F7FFE0
F3FFF0
F3FFFC
F1FFFC
F0003C
F0003C
F0003C
F0003C
F0003C
F0003C
F0003C
F0003C
F0003C
F7FFFC
F3FFFC
F3FFFC
F1FFFC
ENDCHAR
STARTCHAR 0043
ENCODING 67
SWIDTH 750 0
DWIDTH 25 0
BBX 22 29 2 -2
BITMAP
FFFFFC
FFFFF8
FFFFF8
FFFFF8
F00000
F00000
F00000
F00000
F00000
F00000
F00000
F00000
F00000
F00000
F00000
F00000
F00000
F00000
F00000
F00000
F00000
F00000
F00000
F00000
F00000
FFFFFC
FFFFF8
FFFFF8
FFFFF0
ENDCHAR
STARTCHAR 0044
ENCODING 68
SWIDTH 780 0
DWIDTH 26 0
BBX 22 29 2 -2
BITMAP
FFFF00
FFFFC0
FFFFE0
FFFFF8
F003FC
F001FC
F0007C
F0003C
F0003C
F0003C
F0003C
F0003C
F0003C
F0003C
F0003C
F0003C
F0003C
F0003C
F0003C
F0003C
F0003C
F0003C
F0003C
F0003C
F0003C
F7FFFC
F3FFFC
F3FFFC
F1FFFC
ENDCHAR
STARTCHAR 0045
ENCODING 69
SWIDTH 780 0
DWIDTH 26 0
BBX 22 29 2 -2
BITMAP
FFFFFC
FFFFFC
FFFFF8
FFFFF8
F00000
F00000
F00000
F00000
F00000
F00000
F00000
F00000
FFFFF8
FFFFF8
FFFFF0
FFFFF0
F00000
F00000
F00000
F00000
F00000
F00000
F00000
F00000
F00000
FFFFFC
FFFFF8
FFFFF8
FFFFF8
ENDCHAR
STARTCHAR 0046
ENCODING 70
SWIDTH 750 0
DWIDTH 25 0
BBX 22 29 2 -2
BITMAP
FFFFFC
FFFFFC
FFFFF8
FFFFF8
F00000
F00000
F00000
F00000
F00000
F00000
F00000
F00000
FFFFF8
FFFFF0
FFFFF0
FFFFE0
F00000
F00000
F00000
F00000
F00000
F00000
F00000
F00000
F00000
F00000
F00000
F00000
F00000
ENDCHAR
STARTCHAR 0047
ENCODING 71
SWIDTH 780 0
DWIDTH 26 0
BBX 22 29 2 -2
BITMAP
FFFFFC
FFFFF8
FFFFF8
FFFFF0
F00000
F00000
F00000
F00000
F00000
F00000
F00000
F00000
F0FFF8
F0FFF8
F0FFF8
F1FFF8
F00078
F00078
F00078
F00078
F00078
F00078
F00078
F00078
F00078
FFFFF8
FFFFF8
FFFFF8
FFFFF8
ENDCHAR
STARTCHAR 0048
ENCODING 72
SWIDTH 780 0
DWIDTH 26 0
BBX 22 29 2 -2
BITMAP
F0003C
F0003C
F0003C
F0003C
F0003C
F0003C
F0003C
F0003C
F0003C
F0003C
F0003C
F0003C
FFFFFC
FFFFFC
FFFFBC
FFFF3C
F0003C
F0003C
F0003C
F0003C
F0003C
F0003C
F0003C
F0003C
F0003C
F0003C
F0003C
F0003C
F0003C
ENDCHAR
STARTCHAR 0049
ENCODING 73
SWIDTH 540 0
DWIDTH 18 0
BBX 14 29 2 -2
BITMAP
FFF8
FFF8
FFF8
FFF8
0780
0780
0780
0780
0780
0780
0780
0780
0780
0780
0780
0780
0780
0780
0780
0780
0780
0780
0780
0780
0780
FFFC
FFFC
FFFC
FFFC
ENDCHAR
STARTCHAR 004A
ENCODING 74
SWIDTH 540 0
DWIDTH 18 0
BBX 15 29 1 -2
BITMAP
001E
001E
001E
001E
001E
001E
001E
001E
001E
001E
001E
001E
001E
001E
001E
001E
001E
001E
001E
001E
001E
001E
001E
001E
001E
FFFE
FFFE
7FFE
7FFE
ENDCHAR
STARTCHAR 004B
ENCODING 75
SWIDTH 780 0
DWIDTH 26 0
BBX 22 29 2 -2
BITMAP
F000F8
F001F8
F003F0
F007E0
F00FC0
F00F80
F01F00
F03E00
F07C00
F0F800
F1F000
F3F000
F7F000
FFF800
FFFC00
FF7C00
FE3E00
FC3E00
F81F00
F00F80
F00F80
F007C0
F003C0
F003E0
F001F0
F001F0
F000F8
F00078
F0007C
ENDCHAR
STARTCHAR 004C
ENCODING 76
SWIDTH 690 0
DWIDTH 23 0
BBX 21 29 2 -2
BITMAP
F00000
F00000
F00000
F00000
F00000
F00000
F00000
F00000
F00000
F00000
F00000
F00000
F00000
F00000
F00000
F00000
F00000
F00000
F00000
F00000
F00000
F00000
F00000
F00000
F00000
FFFFF8
FFFFF8
FFFFF8
FFFFF8
ENDCHAR
STARTCHAR 004D
ENCODING 77
SWIDTH 900 0
DWIDTH 30 0
BBX 25 29 2 -2
BITMAP
FC001F80
FC001F80
FC001F80
FE003F80
FE003F80
FE003F80
FF007F80
FF007F80
FF007F80
FF80FF80
F780FF80
F780F780
F7C1F780
F3C1F780
F3C1E780
F3E3E780
F1E3E780
F1E3E780
F1F7C780
F1F7C780
F0F7C780
F0FF8780
F0FF8780
F07F8780
F07F0780
F0000780
F0000780
F0000780
F0000780
ENDCHAR
STARTCHAR 004E
ENCODING 78
SWIDTH 780 0
DWIDTH 26 0
BBX 22 29 2 -2
BITMAP
FC003C
FE003C
FE003C
FF003C
FF003C
FF803C
F7803C
F7C03C
F3C03C
F3E03C
F1E03C
F1F03C
F0F03C
F0F83C
F0783C
F07C3C
F03C3C
F03E3C
F01E3C
F01F3C
F00F3C
F00FBC
F007BC
F007FC
F003FC
F003FC
F001FC
F001FC
F000FC
ENDCHAR
STARTCHAR 004F
ENCODING 79
SWIDTH 780 0
DWIDTH 26 0
BBX 22 29 2 -2
BITMAP
FFFFFC
FFFFFC
FFFFFC
FFFFFC
F0003C
F0003C
F0003C
F0003C
F0003C
F0003C
F0003C
F0003C
F0003C
F0003C
F0003C
F0003C
F0003C
F0003C
F0003C
F0003C
F0003C
F0003C
F0003C
F0003C
F0003C
FFFFFC
F7FFFC
F7FFFC
F3FFFC
ENDCHAR
STARTCHAR 0050
ENCODING 80
SWIDTH 750 0
DWIDTH 25 0
BBX 22 29 2 -2
BITMAP
FFFFFC
FFFFFC
FFFFFC
FFFFFC
F0003C
F0003C
F0003C
F0003C
F0003C
F0003C
F0003C
F0003C
F1FFFC
F3FFFC
F3FFFC
F3FFFC
F00000
F00000
F00000
F00000
F00000
F00000
F00000
F00000
F00000
F00000
F00000
F00000
F00000
ENDCHAR
STARTCHAR 0051
ENCODING 81
SWIDTH 780 0
DWIDTH 26 0
BBX 22 32 2 -5
BITMAP
FFFFFC
FFFFFC
FFFFFC
FFFFFC
F0003C
F0003C
F0003C
F0003C
F0003C
F0003C
F0003C
F0003C
F0003C
F0003C
F0003C
F0003C
F0003C
F0003C
F0003C
F0003C
F0003C
F0003C
F01E3C
F01F3C
F00F3C
F7FFFC
F3FFFC
F3FFFC
F1FFFC
0003E0
0001E0
0001E0
ENDCHAR
STARTCHAR 0052
ENCODING 82
SWIDTH 780 0
DWIDTH 26 0
BBX 22 29 2 -2
BITMAP
FFFFF8
FFFFF8
FFFFF8
FFFFF8
F00078
F00078
F00078
F00078
F00078
F00078
F00078
F00078
F1FFF8
F3FFF8
F3FFF8
F7FFF8
F00F80
F00780
F007C0
F003C0
F003C0
F003E0
F001E0
F001F0
F000F0
F000F0
F000F8
F00078
F0007C
ENDCHAR
STARTCHAR 0053
ENCODING 83
SWIDTH 810 0
DWIDTH 27 0
BBX 23 29 2 -2
BITMAP
7FFFFE
7FFFFC
7FFFFC
7FFFF8
780000
780000
780000
780000
780000
780000
780000
780000
7FFFFC
7FFFFC
7FFFFC
7FFFFC
00003C
00003C
00003C
00003C
00003C
00003C
00003C
00003C
00003C
7FFFFC
7FFFFC
7FFFFC
FFFFFC
ENDCHAR
STARTCHAR 0054
ENCODING 84
SWIDTH 750 0
DWIDTH 25 0
BBX 22 29 1 -2
BITMAP
7FFFFC
7FFFFC
FFFFF8
FFFFF8
007800
007800
007800
007800
007800
007800
007800
007800
007800
007800
007800
007800
007800
007800
007800
007800
007800
007800
007800
007800
007800
007800
007800
007800
007800
ENDCHAR
STARTCHAR 0055
ENCODING 85
SWIDTH 780 0
DWIDTH 26 0
BBX 22 29 2 -2
BITMAP
F0003C
F0003C
F0003C
F0003C
F0003C
F0003C
F0003C
F0003C
F0003C
F0003C
F0003C
F0003C
F0003C
F0003C
F0003C
F0003C
F0003C
F0003C
F0003C
F0003C
F0003C
F0003C
F0003C
F0003C
F0003C
FFFFFC
FFFFFC
FFFFFC
FFFFFC
ENDCHAR
STARTCHAR 0056
ENCODING 86
SWIDTH 840 0
DWIDTH 28 0
BBX 24 29 2 -2
BITMAP
F0001F
F8001F
F8001E
78003E
7C003E
7C003C
3C007C
3E007C
3E0078
1E00F8
1E00F8
1F00F0
0F01F0
0F01F0
0F81E0
0783E0
0783E0
07C3C0
03C3C0
03C7C0
03E7C0
03E780
01EF80
01FF80
01FF00
00FF00
00FF00
00FE00
007E00
ENDCHAR
STARTCHAR 0057
ENCODING 87
SWIDTH 1020 0
DWIDTH 34 0
BBX 30 29 2 -2
BITMAP
F00FC03C
F80FC03C
F80FE07C
781FE078
781FE078
781FE078
7C1FE0F8
7C1FF0F8
3C3FF0F0
3C3EF0F0
3E3CF0F0
3E3CF1F0
3E3CF1F0
1E7CF9E0
1E7CF9E0
1F7C7BE0
1F787BE0
1F787BE0
0F787FC0
0FF87FC0
0FF83FC0
0FF03FC0
0FF03FC0
07F03F80
07F03F80
07F03F80
07F01F80
07E01F80
03E01F80
ENDCHAR
STARTCHAR 0058
ENCODING 88
SWIDTH 810 0
DWIDTH 27 0
BBX 23 29 2 -2
BITMAP
7C007C
7C007C
3E00F8
3F01F8
1F01F0
0F83E0
0F83E0
07C7C0
07EFC0
03EF80
01FF00
01FF00
00FE00
00FE00
007C00
00FE00
01FE00
01FF00
03FF80
03EF80
07C7C0
0FC7C0
0F83E0
1F83F0
1F01F0
3E00F8
7E00F8
7C007C
FC007E
ENDCHAR
STARTCHAR 0059
ENCODING 89
SWIDTH 810 0
DWIDTH 27 0
BBX 24 29 1 -2
BITMAP
F8001F
7C003E
3E003E
3E007C
1F00F8
0F81F0
07C1F0
07C3E0
03E7C0
01FF80
00FF80
00FF00
007E00
003E00
003C00
003C00
003C00
003C00
003C00
003C00
003C00
003C00
003C00
003C00
003C00
003C00
003C00
003C00
003C00
ENDCHAR
STARTCHAR 005A
ENCODING 90
SWIDTH 810 0
DWIDTH 27 0
BBX 23 29 2 -2
BITMAP
7FFFFC
7FFFFC
FFFFFC
FFFFFC
0000FC
0001F8
0003F0
0003E0
0007E0
000FC0
001F80
001F00
003E00
007E00
00FC00
01F800
01F000
03E000
07E000
0FC000
0F8000
1F0000
3F0000
7E0000
FC0000
FFFFFE
FFFFFC
FFFFFC
FFFFFC
ENDCHAR
STARTCHAR 005B
ENCODING 91
SWIDTH 360 0
DWIDTH 12 0
BBX 9 34 2 -7
BITMAP
FF80
FF80
FF00
FF00
F000
F000
F000
F000
F000
F000
F000
F000
F000
F000
F000
F000
F000
F000
F000
F000
F000
F000
F000
F000
F000
F000
F000
F000
F000
F000
FF80
FF00
FF00
FF00
ENDCHAR
STARTCHAR 005C
ENCODING 92
SWIDTH 390 0
DWIDTH 13 0
BBX 11 34 1 -7
BITMAP
F000
F000
F000
F800
7800
7800
7800
7C00
3C00
3C00
3C00
3C00
3E00
1E00
1E00
1E00
1F00
1F00
0F00
0F00
0F00
0F80
0780
0780
0780
07C0
07C0
03C0
03C0
03C0
03E0
01E0
01E0
01E0
ENDCHAR
STARTCHAR 005D
ENCODING 93
SWIDTH 360 0
DWIDTH 12 0
BBX 9 34 1 -7
BITMAP
FF80
7F80
7F80
3F80
0780
0780
0780
0780
0780
0780
0780
0780
0780
0780
0780
0780
0780
0780
0780
0780
0780
0780
0780
0780
0780
0780
0780
0780
0780
0780
FF80
7F80
7F80
3F80
ENDCHAR
STARTCHAR 005E
ENCODING 94
SWIDTH 570 0
DWIDTH 19 0
BBX 15 12 2 17
BITMAP
07C0
0FE0
0FE0
1FF0
1EF0
3EF8
3C78
7C78
783C
F83C
F01E
F01E
ENDCHAR
STARTCHAR 005F
ENCODING 95
SWIDTH 900 0
DWIDTH 30 0
BBX 26 4 2 -7
BITMAP
FFFFFFC0
FFFFFFC0
FFFFFFC0
FFFFFFC0
ENDCHAR
STARTCHAR 0060
ENCODING 96
SWIDTH 240 0
DWIDTH 8 0
BBX 6 5 1 24
BITMAP
F8
78
78
7C
3C
ENDCHAR
STARTCHAR 0061
ENCODING 97
SWIDTH 750 0
DWIDTH 25 0
BBX 21 20 2 -2
BITMAP
7FFFF8
7FFFF8
FFFFF8
FFFFF8
000078
000078
000078
FFFFF8
FFFFF8
FFFFF8
FFFFF8
F00078
F00078
F00078
F00078
F00078
FFFFF8
FFFFF8
FFFFF8
FFFFF8
ENDCHAR
STARTCHAR 0062
ENCODING 98
SWIDTH 720 0
DWIDTH 24 0
BBX 21 29 2 -2
BITMAP
F00000
F00000
F00000
F00000
F00000
F00000
F00000
F00000
F00000
FFFFF8
FFFFF8
FFFFF8
FFFFF8
F00078
F00078
F00078
F00078
F00078
F00078
F00078
F00078
F00078
F00078
F00078
F00078
FFFFF8
FFFFF8
FFFFF8
FFFFF8
ENDCHAR
STARTCHAR 0063
ENCODING 99
SWIDTH 750 0
DWIDTH 25 0
BBX 20 20 2 -2
BITMAP
FFFFF0
FFFFF0
FFFFF0
FFFFE0
F00000
F00000
F00000
F00000
F00000
F00000
F00000
F00000
F00000
F00000
F00000
F00000
FFFFF0
FFFFF0
FFFFE0
FFFFE0
ENDCHAR
STARTCHAR 0064
ENCODING 100
SWIDTH 720 0
DWIDTH 24 0
BBX 20 29 1 -2
BITMAP
0000F0
0000F0
0000F0
0000F0
0000F0
0000F0
0000F0
0000F0
0000F0
FFFFF0
FFFFF0
FFFFF0
FFFFF0
F000F0
F000F0
F000F0
F000F0
F000F0
F000F0
F000F0
F000F0
F000F0
F000F0
F000F0
F000F0
FFFFF0
FFFFF0
FFFFF0
FFFFF0
ENDCHAR
STARTCHAR 0065
ENCODING 101
SWIDTH 750 0
DWIDTH 25 0
BBX 21 20 2 -2
BITMAP
FFFFF0
FFFFF0
FFFFF0
FFFFF0
F000F0
F000F0
F000F0
F000F0
FFFFF0
FFFFF0
FFFFF0
FFFFF0
F00000
F00000
F00000
F00000
FFFFF8
FFFFF0
FFFFF0
FFFFF0
ENDCHAR
STARTCHAR 0066
ENCODING 102
SWIDTH 690 0
DWIDTH 23 0
BBX 20 29 1 -2
BITMAP
01FFF0
01FFF0
01FFF0
01FFF0
01E000
01E000
01E000
01E000
01E000
7FFFF0
7FFFF0
FFFFF0
FFFFE0
01E000
01E000
01E000
01E000
01E000
01E000
01E000
01E000
01E000
01E000
01E000
01E000
01E000
01E000
01E000
01E000
ENDCHAR
STARTCHAR 0067
ENCODING 103
SWIDTH 780 0
DWIDTH 26 0
BBX 20 32 3 -14
BITMAP
FFFFF0
FFFFF0
FFFFF0
FFFFF0
F000F0
F000F0
F000F0
F000F0
F000F0
F000F0
F000F0
F000F0
F000F0
F000F0
F000F0
F000F0
FFFCF0
FFFCF0
FFFEF0
FFFEF0
0000F0
0000F0
0000F0
0000F0
0000F0
0000F0
0000F0
0000F0
FFFFF0
FFFFF0
FFFFF0
7FFFF0
ENDCHAR
STARTCHAR 0068
ENCODING 104
SWIDTH 720 0
DWIDTH 24 0
BBX 20 29 2 -2
BITMAP
F00000
F00000
F00000
F00000
F00000
F00000
F00000
F00000
F00000
FFFFF0
FFFFF0
FFFFF0
FFFFF0
F000F0
F000F0
F000F0
F000F0
F000F0
F000F0
F000F0
F000F0
F000F0
F000F0
F000F0
F000F0
F000F0
F000F0
F000F0
F000F0
ENDCHAR
STARTCHAR 0069
ENCODING 105
SWIDTH 240 0
DWIDTH 8 0
BBX 4 29 2 -2
BITMAP
F0
F0
F0
F0
F0
00
00
00
00
F0
F0
F0
F0
F0
F0
F0
F0
F0
F0
F0
F0
F0
F0
F0
F0
F0
F0
F0
F0
ENDCHAR
STARTCHAR 006A
ENCODING 106
SWIDTH 390 0
DWIDTH 13 0
BBX 10 41 1 -14
BITMAP
03C0
03C0
03C0
03C0
03C0
0000
0000
0000
0000
03C0
03C0
03C0
03C0
03C0
03C0
03C0
03C0
03C0
03C0
03C0
03C0
03C0
03C0
03C0
03C0
03C0
03C0
03C0
03C0
03C0
03C0
03C0
03C0
03C0
03C0
03C0
03C0
FFC0
FFC0
7FC0
7FC0
ENDCHAR
STARTCHAR 006B
ENCODING 107
SWIDTH 690 0
DWIDTH 23 0
BBX 20 29 2 -2
BITMAP
F00000
F00000
F00000
F00000
F00000
F00000
F00000
F00000
F00000
F003F0
F00FC0
F01F80
F03F00
F07E00
F1F800
F3F000
F7F000
FFF800
FFF800
FE7C00
FC3E00
F83E00
F01F00
F00F80
F00F80
F007C0
F003E0
F003E0
F001F0
ENDCHAR
STARTCHAR 006C
ENCODING 108
SWIDTH 240 0
DWIDTH 8 0
BBX 4 29 2 -2
BITMAP
F0
F0
F0
F0
F0
F0
F0
F0
F0
F0
F0
F0
F0
F0
F0
F0
F0
F0
F0
F0
F0
F0
F0
F0
F0
F0
F0
F0
F0
ENDCHAR
STARTCHAR 006D
ENCODING 109
SWIDTH 870 0
DWIDTH 29 0
BBX 24 20 2 -2
BITMAP
FFFFFF
FFFFFF
FFFFFF
FFFFFF
F03C0F
F03C0F
F03C0F
F03C0F
F03C0F
F03C0F
F03C0F
F03C0F
F03C0F
F03C0F
F03C0F
F03C0F
F03C0F
F03C0F
F03C0F
F03C0F
ENDCHAR
STARTCHAR 006E
ENCODING 110
SWIDTH 750 0
DWIDTH 25 0
BBX 21 20 2 -2
BITMAP
FFFFF8
FFFFF8
FFFFF8
FFFFF8
F00078
F00078
F00078
F00078
F00078
F00078
F00078
F00078
F00078
F00078
F00078
F00078
F00078
F00078
F00078
F00078
ENDCHAR
STARTCHAR 006F
ENCODING 111
SWIDTH 750 0
DWIDTH 25 0
BBX 21 20 2 -2
BITMAP
FFFFF8
FFFFF8
FFFFF8
FFFFF8
F00078
F00078
F00078
F00078
F00078
F00078
F00078
F00078
F00078
F00078
F00078
F00078
FFFFF8
F7FFF8
F7FFF8
F3FFF8
ENDCHAR
STARTCHAR 0070
ENCODING 112
SWIDTH 720 0
DWIDTH 24 0
BBX 21 32 2 -14
BITMAP
FFFFF8
FFFFF8
FFFFF8
FFFFF8
F00078
F00078
F00078
F00078
F00078
F00078
F00078
F00078
F00078
F00078
F00078
F00078
FFFFF8
FFFFF8
FFFFF8
FFFFF8
F00000
F00000
F00000
F00000
F00000
F00000
F00000
F00000
F00000
F00000
F00000
F00000
ENDCHAR
STARTCHAR 0071
ENCODING 113
SWIDTH 720 0
DWIDTH 24 0
BBX 21 32 1 -14
BITMAP
FFFFF8
FFFFF8
FFFFF8
FFFFF8
F00078
F00078
F00078
F00078
F00078
F00078
F00078
F00078
F00078
F00078
F00078
F00078
FFFFF8
FFFFF8
FFFFF8
FFFFF8
000078
000078
000078
000078
000078
000078
000078
000078
000078
000078
000078
000078
ENDCHAR
STARTCHAR 0072
ENCODING 114
SWIDTH 630 0
DWIDTH 21 0
BBX 18 20 2 -2
BITMAP
F00000
F001C0
F01FC0
F1FFC0
FFFFC0
FFFF00
FFF000
FF0000
F00000
F00000
F00000
F00000
F00000
F00000
F00000
F00000
F00000
F00000
F00000
F00000
ENDCHAR
STARTCHAR 0073
ENCODING 115
SWIDTH 780 0
DWIDTH 26 0
BBX 21 20 2 -2
BITMAP
7FFFF8
7FFFF8
7FFFF8
7FFFF0
780000
780000
780000
780000
7FFFF8
7FFFF8
7FFFF8
7FFFF8
000078
000078
000078
000078
7FFFF8
7FFFF8
FFFFF8
FFFFF8
ENDCHAR
STARTCHAR 0074
ENCODING 116
SWIDTH 660 0
DWIDTH 22 0
BBX 20 29 1 -2
BITMAP
01E000
01E000
01E000
01E000
01E000
01E000
01E000
01E000
01E000
7FFFF0
7FFFF0
FFFFE0
FFFFE0
01E000
01E000
01E000
01E000
01E000
01E000
01E000
01E000
01E000
01E000
01E000
01E000
01FFF0
01FFE0
01FFE0
01FFC0
ENDCHAR
STARTCHAR 0075
ENCODING 117
SWIDTH 750 0
DWIDTH 25 0
BBX 21 20 2 -2
BITMAP
F00078
F00078
F00078
F00078
F00078
F00078
F00078
F00078
F00078
F00078
F00078
F00078
F00078
F00078
F00078
F00078
FFFFF8
FFFFF8
FFFFF8
FFFFF8
ENDCHAR
STARTCHAR 0076
ENCODING 118
SWIDTH 780 0
DWIDTH 26 0
BBX 22 20 2 -2
BITMAP
F0007C
F80078
F800F8
7800F8
7C00F0
3C01F0
3E01F0
3E03E0
1E03E0
1F03C0
0F07C0
0F87C0
0F8F80
078F80
07CF00
07DF00
03FF00
03FE00
01FE00
01FC00
ENDCHAR
STARTCHAR 0077
ENCODING 119
SWIDTH 960 0
DWIDTH 32 0
BBX 28 20 2 -2
BITMAP
F00F00F0
F80F80F0
781F81F0
781F81E0
7C1F81E0
7C1FC1E0
3C1FC3E0
3C3FC3C0
3E3FC3C0
3E3FE3C0
3E3FE7C0
1E7DE7C0
1F79E780
1F79E780
1F79FF80
0F79FF80
0FF8FF00
0FF0FF00
0FF0FF00
07F0FF00
ENDCHAR
STARTCHAR 0078
ENCODING 120
SWIDTH 780 0
DWIDTH 26 0
BBX 21 20 2 -2
BITMAP
7C01F8
3E01F0
3F03E0
1F07C0
0F8FC0
07CF80
07FF00
03FE00
01FC00
00FC00
00FC00
01FE00
03FF00
07FF00
0FCF80
0F87C0
1F07E0
3E03F0
7E01F0
FC00F8
ENDCHAR
STARTCHAR 0079
ENCODING 121
SWIDTH 720 0
DWIDTH 24 0
BBX 21 32 2 -14
BITMAP
F800F8
F800F8
7C01F0
7C01F0
3E03E0
3E03E0
1F03C0
1F07C0
0F0780
0F8F80
0F8F80
07DF00
07DF00
03FE00
03FE00
01FC00
01FC00
00FC00
00F800
00F800
01F000
01F000
01E000
03E000
03C000
07C000
07C000
0F8000
0F8000
1F0000
1F0000
1E0000
ENDCHAR
STARTCHAR 007A
ENCODING 122
SWIDTH 780 0
DWIDTH 26 0
BBX 21 20 3 -2
BITMAP
7FFFF0
7FFFF0
FFFFF0
FFFFF0
0007F0
000FC0
001F80
003F00
00FE00
01FC00
03F800
07F000
0FC000
1F8000
3F0000
FE0000
FFFFF8
FFFFF8
FFFFF0
FFFFF0
ENDCHAR
STARTCHAR 007B
ENCODING 123
SWIDTH 420 0
DWIDTH 14 0
BBX 11 33 1 -6
BITMAP
1FE0
1FE0
1FE0
1FE0
1E00
1E00
1E00
1E00
1E00
1E00
1E00
1E00
1E00
1E00
FE00
FE00
FE00
FE00
1E00
1E00
1E00
1E00
1E00
1E00
1E00
1E00
1E00
1E00
1E00
1FE0
1FE0
1FE0
1FE0
ENDCHAR
STARTCHAR 007C
ENCODING 124
SWIDTH 240 0
DWIDTH 8 0
BBX 4 32 2 -4
BITMAP
F0
F0
F0
F0
F0
F0
F0
F0
F0
F0
F0
F0
F0
F0
F0
F0
F0
F0
F0
F0
F0
F0
F0
F0
F0
F0
F0
F0
F0
F0
F0
F0
ENDCHAR
STARTCHAR 007D
ENCODING 125
SWIDTH 420 0
DWIDTH 14 0
BBX 11 33 2 -6
BITMAP
FF00
FF00
FF00
FF00
0F00
0F00
0F00
0F00
0F00
0F00
0F00
0F00
0F00
0F00
0FE0
0FE0
0FE0
0FE0
0F00
0F00
0F00
0F00
0F00
0F00
0F00
0F00
0F00
0F00
0F00
FF00
FF00
FF00
FF00
ENDCHAR
STARTCHAR 007E
ENCODING 126
SWIDTH 600 0
DWIDTH 20 0
BBX 16 6 2 7
BITMAP
1E03
FFDF
FFFF
FFFF
E1FC
8070
ENDCHAR
STARTCHAR 00A0
ENCODING 160
SWIDTH 240 0
DWIDTH 8 0
BBX 0 0 0 0
BITMAP
ENDCHAR
STARTCHAR 00A5
ENCODING 165
SWIDTH 720 0
DWIDTH 24 0
BBX 21 29 2 -2
BITMAP
F800F8
7801F0
7C03E0
3E03C0
1F07C0
1F0F80
0F9F00
07DF00
03FE00
FFFFF8
FFFFF8
FFFFF0
FFFFF0
00F000
00F000
00F000
00F000
00F000
FFFFF8
FFFFF8
FFFFF0
FFFFF0
00F000
00F000
00F000
00F000
00F000
00F000
00F000
ENDCHAR
STARTCHAR 00A9
ENCODING 169
SWIDTH 930 0
DWIDTH 31 0
BBX 27 29 2 -2
BITMAP
FFFFFFE0
FFFFFFE0
FFFFFFE0
FFFFFFE0
F00001E0
F00001E0
F1FFF9E0
F1FFF1E0
F1FFF1E0
F1FFF1E0
F1E001E0
F1E001E0
F1E001E0
F1E001E0
F1E001E0
F1E001E0
F1E001E0
F1E001E0
F1FFF9E0
F1FFF1E0
F1FFF1E0
F1FFF1E0
F00001E0
F00001E0
F00001E0
F7FFFFE0
F3FFFFE0
F3FFFFE0
F1FFFFE0
ENDCHAR
STARTCHAR 00B0
ENCODING 176
SWIDTH 330 0
DWIDTH 11 0
BBX 7 8 2 20
BITMAP
FE
FE
FE
EE
EE
FE
FE
EE
ENDCHAR
STARTCHAR 00B7
ENCODING 183
SWIDTH 990 0
DWIDTH 33 0
BBX 4 6 14 5
BITMAP
F0
F0
F0
F0
F0
F0
ENDCHAR
STARTCHAR 2014
ENCODING 8212
SWIDTH 990 0
DWIDTH 33 0
BBX 28 4 3 7
BITMAP
7FFFFFF0
7FFFFFE0
FFFFFFE0
FFFFFFC0
ENDCHAR
STARTCHAR 2018
ENCODING 8216
SWIDTH 990 0
DWIDTH 33 0
BBX 5 5 27 24
BITMAP
78
F8
F0
F0
F0
ENDCHAR
STARTCHAR 2019
ENCODING 8217
SWIDTH 990 0
DWIDTH 33 0
BBX 5 5 2 24
BITMAP
F8
F0
F0
F0
F0
ENDCHAR
STARTCHAR 201C
ENCODING 8220
SWIDTH 990 0
DWIDTH 33 0
BBX 11 5 21 24
BITMAP
79E0
7BE0
FBC0
F3C0
F3C0
ENDCHAR
STARTCHAR 201D
ENCODING 8221
SWIDTH 990 0
DWIDTH 33 0
BBX 11 5 2 24
BITMAP
79E0
7BE0
FBC0
F3C0
F3C0
ENDCHAR
STARTCHAR 2022
ENCODING 8226
SWIDTH 990 0
DWIDTH 33 0
BBX 4 6 14 5
BITMAP
F0
F0
F0
F0
F0
F0
ENDCHAR
STARTCHAR 2026
ENCODING 8230
SWIDTH 990 0
DWIDTH 33 0
BBX 26 6 3 5
BITMAP
F01E03C0
F01E03C0
F01E03C0
F01E03C0
F01E03C0
F01E03C0
ENDCHAR
STARTCHAR 205D
ENCODING 8285
SWIDTH 1020 0
DWIDTH 34 0
BBX 6 26 9 0
BITMAP
FC
FC
FC
FC
00
00
00
00
00
00
00
FC
FC
FC
FC
00
00
00
00
00
00
00
FC
FC
FC
FC
ENDCHAR
STARTCHAR 20AC
ENCODING 8364
SWIDTH 840 0
DWIDTH 28 0
BBX 24 29 2 -2
BITMAP
0FFFFF
0FFFFF
0FFFFF
0FFFFE
0F0000
0F0000
0F0000
0F0000
7FFFFE
FFFFFE
FFFFFC
FFFFFC
0F0000
0F0000
0F0000
0F0000
0F0000
7FFFFE
FFFFFE
FFFFFC
FFFFFC
0F0000
0F0000
0F0000
0F0000
0FFFFF
0FFFFF
0FFFFE
0FFFFE
ENDCHAR
STARTCHAR 2122
ENCODING 8482
SWIDTH 1050 0
DWIDTH 35 0
BBX 30 13 2 13
BITMAP
7FFBFFFC
7FF3FFFC
FFF3FFFC
FFE3FFFC
0F03CF3C
0F03CF3C
0F03CF3C
0F03CF3C
0F03CF3C
0F03CF3C
0F03CF3C
0F03CF3C
0F03CF3C
ENDCHAR
STARTCHAR 22EF
ENCODING 8943
SWIDTH 990 0
DWIDTH 33 0
BBX 26 6 3 5
BITMAP
F01E03C0
F01E03C0
F01E03C0
F01E03C0
F01E03C0
F01E03C0
ENDCHAR
STARTCHAR 2F00
ENCODING 12032
SWIDTH 990 0
DWIDTH 33 0
BBX 27 4 3 13
BITMAP
7FFFFFE0
7FFFFFE0
FFFFFFC0
FFFFFFC0
ENDCHAR
STARTCHAR 2F01
ENCODING 12033
SWIDTH 990 0
DWIDTH 33 0
BBX 4 31 14 -2
BITMAP
F0
F0
F0
F0
F0
F0
F0
F0
F0
F0
F0
F0
F0
F0
F0
F0
F0
F0
F0
F0
F0
F0
F0
F0
F0
F0
F0
F0
F0
F0
F0
ENDCHAR
STARTCHAR 2F02
ENCODING 12034
SWIDTH 990 0
DWIDTH 33 0
BBX 4 14 14 8
BITMAP
80
E0
F0
F0
F0
F0
F0
F0
F0
F0
F0
F0
F0
F0
ENDCHAR
STARTCHAR 2F03
ENCODING 12035
SWIDTH 990 0
DWIDTH 33 0
BBX 7 31 13 -3
BITMAP
1E
1E
1E
1E
1E
1E
1E
1E
1E
1E
1E
1E
1E
1E
1E
1E
1E
1E
3E
3C
3C
3C
7C
7C
78
78
F8
F8
F0
F0
F0
ENDCHAR
STARTCHAR 2F04
ENCODING 12036
SWIDTH 990 0
DWIDTH 33 0
BBX 27 30 3 -2
BITMAP
7FFFFF00
7FFFFF00
7FFFFF00
7FFFFF00
00003F00
00007E00
0000FC00
0000F800
0001F000
0003E000
0007E000
000FC000
001F8000
003F0000
003E0000
007C0000
00FC0000
01F80000
03F00000
07E00000
07C00000
0F800000
1F800000
3F000000
7E000000
FC000000
FFFFFF80
FFFFFFC0
FFFFFFC0
FFFFFFE0
ENDCHAR
STARTCHAR 2F06
ENCODING 12038
SWIDTH 990 0
DWIDTH 33 0
BBX 27 26 3 -1
BITMAP
1FFFFFC0
1FFFFF80
3FFFFF80
3FFFFF00
00000000
00000000
00000000
00000000
00000000
00000000
00000000
00000000
00000000
00000000
00000000
00000000
00000000
00000000
00000000
00000000
00000000
00000000
3FFFFFE0
7FFFFFE0
FFFFFFC0
FFFFFFC0
ENDCHAR
STARTCHAR 2F07
ENCODING 12039
SWIDTH 1020 0
DWIDTH 34 0
BBX 28 9 3 20
BITMAP
00080000
000E0000
000F0000
000F0000
000F0000
7FFFFFF0
7FFFFFF0
FFFFFFF0
FFFFFFE0
ENDCHAR
STARTCHAR 2F08
ENCODING 12040
SWIDTH 990 0
DWIDTH 33 0
BBX 26 31 3 -3
BITMAP
001E0000
001E0000
001E0000
001E0000
001E0000
001E0000
001E0000
001E0000
001E0000
001E0000
001E0000
001E0000
001E0000
003E0000
003E0000
007F8000
007FC000
00FBC000
01F3E000
01F1F000
03E1F000
03C0F800
07C07800
0F807C00
0F803E00
1F001E00
3E001F00
3E000F80
7C000F80
780007C0
F80003C0
ENDCHAR
STARTCHAR 2F09
ENCODING 12041
SWIDTH 990 0
DWIDTH 33 0
BBX 26 31 3 -3
BITMAP
0F80F000
0F80F000
0F80F000
0F00F000
0F00F000
1F00F000
1F00F000
1F00F000
1F00F000
1F00F000
1E00F000
1E00F000
1E00F000
3E00F000
3E00F000
3E00F000
3E00F000
3C00F000
3C00F000
3C00F000
7C00F000
7C00F000
7C00F000
7C00F000
7800F000
7800F000
7800F000
7800FF80
F800FFC0
F800FFC0
F800FFC0
ENDCHAR
STARTCHAR 2F0A
ENCODING 12042
SWIDTH 990 0
DWIDTH 33 0
BBX 28 31 3 -3
BITMAP
007C0000
003C0000
003E0000
003E0000
001F0000
001F0000
000F8000
000F8000
0007C000
003FC000
003FE000
007FE000
007DE000
00F9F000
00F9F000
01F0F800
01F0F800
03E07C00
03E07C00
07C03E00
07C03E00
0F801F00
0F801F00
1F000F00
1F000F80
3E000F80
3E0007C0
7C0007C0
7C0003E0
F80003E0
F80001F0
ENDCHAR
STARTCHAR 2F0B
ENCODING 12043
SWIDTH 990 0
DWIDTH 33 0
BBX 27 31 3 -4
BITMAP
03E07800
03C07800
03C07C00
03C07C00
07C07C00
07C03C00
07803C00
07803E00
07803E00
0F803E00
0F801E00
0F001E00
0F001F00
0F001F00
1F001F00
1F000F00
1E000F00
1E000F80
3E000F80
3E000780
3E000780
3C000780
3C0007C0
7C0007C0
7C0003C0
7C0003C0
780003C0
780003E0
F80003E0
F80001E0
F80001E0
ENDCHAR
STARTCHAR 2F0C
ENCODING 12044
SWIDTH 990 0
DWIDTH 33 0
BBX 26 30 3 -3
BITMAP
FFFFFFC0
FFFFFFC0
FFFFFFC0
FFFFFFC0
F00003C0
F00003C0
F00003C0
F00003C0
F00003C0
F00003C0
F00003C0
F00003C0
F00003C0
F00003C0
F00003C0
F00003C0
F00003C0
F00003C0
F00003C0
F00003C0
F00003C0
F00003C0
F00003C0
F00003C0
F00003C0
F00003C0
F0003FC0
F0003FC0
F0001FC0
F0001FC0
ENDCHAR
STARTCHAR 2F0D
ENCODING 12045
SWIDTH 990 0
DWIDTH 33 0
BBX 27 10 3 19
BITMAP
FFFFFFE0
FFFFFFE0
FFFFFFE0
FFFFFFE0
F00001E0
F00001E0
F00001E0
F00001E0
F00001E0
F00001E0
ENDCHAR
STARTCHAR 2F0E
ENCODING 12046
SWIDTH 1020 0
DWIDTH 34 0
BBX 4 29 2 -1
BITMAP
C0
F0
F0
F0
F0
F0
F0
F0
F0
F0
F0
00
00
00
00
C0
E0
F0
F0
F0
F0
F0
F0
F0
F0
F0
F0
F0
F0
ENDCHAR
STARTCHAR 2F0F
ENCODING 12047
SWIDTH 1020 0
DWIDTH 34 0
BBX 28 30 3 -4
BITMAP
1FFFFE00
1FFFFE00
1FFFFE00
1FFFFE00
1E001E00
1E001E00
1E001E00
1E001E00
1E001E00
1E001E00
1E001E00
1E001E00
1E001E00
1E001E00
1E001E00
1E001E00
1E001E00
3E001E00
3C001E00
3C001E00
3C001E00
3C001E00
7C001E00
78001E00
78001E00
78001E00
78001FE0
F8001FE0
F0001FE0
F0001FF0
ENDCHAR
STARTCHAR 2F10
ENCODING 12048
SWIDTH 1020 0
DWIDTH 34 0
BBX 26 30 4 -2
BITMAP
F00003C0
F00003C0
F00003C0
F00003C0
F00003C0
F00003C0
F00003C0
F00003C0
F00003C0
F00003C0
F00003C0
F00003C0
F00003C0
F00003C0
F00003C0
F00003C0
F00003C0
F00003C0
F00003C0
F00003C0
F00003C0
F00003C0
F00003C0
F00003C0
F00003C0
F00003C0
FFFFFFC0
FFFFFFC0
FFFFFFC0
FFFFFFC0
ENDCHAR
STARTCHAR 2F11
ENCODING 12049
SWIDTH 990 0
DWIDTH 33 0
BBX 25 30 4 -3
BITMAP
7FFFFF80
7FFFFF80
FFFFFF80
FFFFFF80
03E00780
03C00780
07C00780
07C00780
07C00780
07800780
0F800780
0F800780
0F800780
0F800780
0F000780
1F000780
1F000780
1F000780
1E000780
3E000780
3E000780
3E000780
3C000780
7C000780
7C000780
7C000780
7801FF80
F800FF80
F800FF80
F8007F80
ENDCHAR
STARTCHAR 2F12
ENCODING 12050
SWIDTH 990 0
DWIDTH 33 0
BBX 25 32 4 -3
BITMAP
00F80000
00F80000
00F00000
01F00000
01F00000
01F00000
7FFFFF80
7FFFFF80
FFFFFF80
FFFFFF80
03C00780
07C00780
07C00780
07C00780
07800780
0F800780
0F800780
0F800780
0F000780
1F000780
1F000780
1F000780
1E000780
3E000780
3E000780
3C000780
3C000780
7C000780
7C01FF80
7800FF80
7800FF80
F8007F80
ENDCHAR
STARTCHAR 2F13
ENCODING 12051
SWIDTH 1020 0
DWIDTH 34 0
BBX 26 31 4 -3
BITMAP
80000000
C0000000
F0000000
F0000000
FFFFFFC0
FFFFFFC0
FFFFFFC0
FFFFFFC0
F00003C0
F00003C0
000003C0
000003C0
000003C0
000003C0
000003C0
000003C0
000003C0
000003C0
000003C0
000003C0
000003C0
000003C0
000003C0
000003C0
000003C0
000003C0
000003C0
0000FFC0
00007FC0
00003FC0
00003FC0
ENDCHAR
STARTCHAR 2F14
ENCODING 12052
SWIDTH 990 0
DWIDTH 33 0
BBX 25 29 4 -2
BITMAP
F0000000
F0000000
F0000000
F0000000
F0000400
F0003C00
F001FC00
F007FC00
F03FFC00
F1FFE000
F3FF8000
F3FC0000
F3E00000
F3000000
F0000000
F0000000
F0000000
F0000000
F0000000
F0000000
F0000000
F0000000
F0000000
F0000000
F0000000
FFFFFE00
FFFFFF00
FFFFFF00
FFFFFF80
ENDCHAR
STARTCHAR 2F15
ENCODING 12053
SWIDTH 990 0
DWIDTH 33 0
BBX 27 30 3 -4
BITMAP
FFFFFFE0
FFFFFFE0
FFFFFFE0
FFFFFFE0
F0000000
F0000000
F0000000
F0000000
F0000000
F0000000
F0000000
F0000000
F0000000
F0000000
F0000000
F0000000
F0000000
F0000000
F0000000
F0000000
F0000000
F0000000
F0000000
F0000000
F0000000
F0000000
FFFFFFE0
FFFFFFE0
FFFFFFE0
FFFFFFE0
ENDCHAR
STARTCHAR 2F17
ENCODING 12055
SWIDTH 1020 0
DWIDTH 34 0
BBX 28 31 3 -3
BITMAP
000F0000
000F0000
000F0000
000F0000
000F0000
000F0000
000F0000
000F0000
000F0000
000F0000
000F0000
3FFFFFF0
7FFFFFE0
7FFFFFE0
FFFFFFC0
000F0000
000F0000
000F0000
000F0000
000F0000
000F0000
000F0000
000F0000
000F0000
000F0000
000F0000
000F0000
000F0000
000F0000
000F0000
000F0000
ENDCHAR
STARTCHAR 2F18
ENCODING 12056
SWIDTH 990 0
DWIDTH 33 0
BBX 16 31 12 -3
BITMAP
F000
F000
F000
F000
F000
F000
F000
F1E0
F1F0
F1F0
F0F0
F0F0
F0F8
F078
F078
F07C
F03C
F03C
F03E
F01E
F01E
F01F
F00F
F00F
F000
F000
F000
F000
F000
F000
F000
ENDCHAR
STARTCHAR 2F19
ENCODING 12057
SWIDTH 990 0
DWIDTH 33 0
BBX 12 31 20 -3
BITMAP
FFF0
FFF0
FFF0
FFF0
F0F0
F0F0
F0F0
F0F0
F0F0
F0F0
F0F0
F0F0
F0F0
F0F0
F0F0
F0F0
F0F0
F0F0
F0F0
F0F0
F0F0
F7F0
F3F0
F3F0
F1F0
F000
F000
F000
F000
F000
F000
ENDCHAR
STARTCHAR 2F1A
ENCODING 12058
SWIDTH 990 0
DWIDTH 33 0
BBX 27 30 3 -3
BITMAP
FFFFFFE0
FFFFFFC0
FFFFFFC0
FFFFFF80
F0000000
F0000000
F0000000
F0000000
F0000000
F0000000
F0000000
F0000000
F0000000
F0000000
F0000000
F0000000
F0000000
F0000000
F0000000
F0000000
F0000000
F0000000
F0000000
F0000000
F0000000
F0000000
F0000000
F0000000
F0000000
F0000000
ENDCHAR
STARTCHAR 2F1B
ENCODING 12059
SWIDTH 990 0
DWIDTH 33 0
BBX 25 31 4 -2
BITMAP
03E00000
03E00000
03E00000
03E00000
03C00000
07C00000
07C00000
07C00000
07800000
07800000
0F800000
0F800000
0F800000
0F000000
1F000000
1F000000
1F000400
1F000700
1E000780
3E000780
3E000780
3E000780
3E000780
3C000780
7C000780
7C000780
7C000780
7FFFFF80
FFFFFF80
FFFFFF80
FFFFFF80
ENDCHAR
STARTCHAR 2F1C
ENCODING 12060
SWIDTH 990 0
DWIDTH 33 0
BBX 25 30 4 -3
BITMAP
3FFFFE00
3FFFFE00
7FFFFE00
7FFFFE00
00001E00
00001E00
3C001E00
3C001E00
3C001E00
3C001E00
3C001E00
3C001E00
3C001E00
3E003E00
3F80FE00
1FC1FC00
0FE3F800
07F7F000
03FFE000
01FFC000
007F0000
007F0000
00FFC000
03FFE000
07F7F000
0FE3F800
1FC1FC00
3F807E00
7E003F00
FC001F80
ENDCHAR
STARTCHAR 2F1D
ENCODING 12061
SWIDTH 990 0
DWIDTH 33 0
BBX 24 27 4 0
BITMAP
FFFFFF
FFFFFF
FFFFFF
FFFFFF
F0000F
F0000F
F0000F
F0000F
F0000F
F0000F
F0000F
F0000F
F0000F
F0000F
F0000F
F0000F
F0000F
F0000F
F0000F
F0000F
F0000F
F0000F
F0000F
F7FFFF
F3FFFF
F3FFFF
F1FFFF
ENDCHAR
STARTCHAR 2F1E
ENCODING 12062
SWIDTH 990 0
DWIDTH 33 0
BBX 26 29 3 -2
BITMAP
FFFFFFC0
FFFFFFC0
FFFFFFC0
FFFFFFC0
F00003C0
F00003C0
F00003C0
F00003C0
F00003C0
F00003C0
F00003C0
F00003C0
F00003C0
F00003C0
F00003C0
F00003C0
F00003C0
F00003C0
F00003C0
F00003C0
F00003C0
F00003C0
F00003C0
F00003C0
F00003C0
F7FFFFC0
F3FFFFC0
F3FFFFC0
F1FFFFC0
ENDCHAR
STARTCHAR 2F1F
ENCODING 12063
SWIDTH 1020 0
DWIDTH 34 0
BBX 28 31 3 -2
BITMAP
000F0000
000F0000
000F0000
000F0000
000F0000
000F0000
000F0000
000F0000
000F0000
000F0000
3FFFFFC0
3FFFFFC0
3FFFFFC0
3FFFFFC0
000F0000
000F0000
000F0000
000F0000
000F0000
000F0000
000F0000
000F0000
000F0000
000F0000
000F0000
000F0000
000F0000
7FFFFFF0
7FFFFFE0
7FFFFFE0
FFFFFFC0
ENDCHAR
STARTCHAR 2F20
ENCODING 12064
SWIDTH 990 0
DWIDTH 33 0
BBX 28 31 2 -1
BITMAP
000F0000
000F0000
000F0000
000F0000
000F0000
000F0000
000F0000
000F0000
000F0000
3FFFFFF0
7FFFFFE0
7FFFFFE0
FFFFFFC0
000F0000
000F0000
000F0000
000F0000
000F0000
000F0000
000F0000
000F0000
000F0000
000F0000
000F0000
000F0000
000F0000
000F0000
1FFFFFE0
3FFFFFC0
3FFFFFC0
7FFFFF80
ENDCHAR
STARTCHAR 2F21
ENCODING 12065
SWIDTH 990 0
DWIDTH 33 0
BBX 25 32 4 -3
BITMAP
3E000000
3C000000
3C000000
3FFFFC00
7FFFFC00
7FFFFC00
7FFFFC00
78003C00
78003C00
F8003C00
00003C00
00003C00
3C003C00
3C003C00
3C003C00
3E003C00
3F007C00
3F81FC00
1FC3F800
0FE7F000
07FFE000
01FFC000
00FF8000
007F0000
00FF8000
01FFC000
07FFE000
0FE7F000
1FC1F800
3F80FE00
7F007F00
FC003F80
ENDCHAR
STARTCHAR 2F23
ENCODING 12067
SWIDTH 990 0
DWIDTH 33 0
BBX 22 32 5 -2
BITMAP
C00000
F00000
F00000
F00000
FFFFFC
FFFFFC
FFFFFC
FFFFFC
F0003C
F0003C
F0003C
F1003C
F1C03C
01E03C
01E03C
01E03C
01E03C
01E03C
01E07C
01E1FC
0003F8
0007F0
000FE0
003FC0
007F00
00FE00
03FC00
07F000
0FE000
1FC000
7F0000
FE0000
ENDCHAR
STARTCHAR 2F24
ENCODING 12068
SWIDTH 990 0
DWIDTH 33 0
BBX 27 31 3 -5
BITMAP
001E0000
001E0000
001E0000
001E0000
001E0000
001E0000
001E0000
001E0000
7FFFFFE0
7FFFFFC0
FFFFFFC0
FFFFFF80
00780000
00F80000
00F00000
01F3E000
01E1F000
03E1F000
03C0F800
07C0F800
07807C00
0F807C00
0F003E00
1F003E00
1E001F00
3E001F00
3C000F80
7C000F80
78000780
F80007C0
F00003C0
ENDCHAR
STARTCHAR 2F25
ENCODING 12069
SWIDTH 1020 0
DWIDTH 34 0
BBX 28 31 3 -3
BITMAP
0F000000
0F000000
0F000000
0F000000
0F000000
7FFFFFF0
7FFFFFF0
FFFFFFF0
FFFFFFE0
0F001E00
0F001E00
0F001E00
0F001E00
0F001E00
0F001E00
0F001E00
0F001E00
0FC07E00
0FF1FE00
0FFFFE00
03FFF800
00FFE000
00FFE000
03FFF800
0FFFFE00
3FF0FF80
FFC03FF0
FF000FF0
FC0003F0
F00000F0
C0000030
ENDCHAR
STARTCHAR 2F26
ENCODING 12070
SWIDTH 1020 0
DWIDTH 34 0
BBX 28 30 3 -4
BITMAP
07FFFF80
0FFFFF00
0FFFFF00
1FFFFE00
00003C00
00007C00
0000F800
0000F800
0001F000
0003E000
0003E000
0007C000
3FFFFFF0
7FFFFFE0
7FFFFFE0
FFFFFFC0
000F0000
000F0000
000F0000
000F0000
000F0000
000F0000
000F0000
000F0000
000F0000
000F0000
01FF0000
00FF0000
00FF0000
007F0000
ENDCHAR
STARTCHAR 2F27
ENCODING 12071
SWIDTH 990 0
DWIDTH 33 0
BBX 26 10 3 20
BITMAP
00180000
001E0000
001E0000
FFFFFFC0
FFFFFFC0
FFFFFFC0
FFFFFFC0
F00003C0
F00003C0
F00003C0
ENDCHAR
STARTCHAR 2F28
ENCODING 12072
SWIDTH 1020 0
DWIDTH 34 0
BBX 26 32 4 -3
BITMAP
0000F000
0000F000
0000F000
0000F000
0000F000
0000F000
7FFFFFC0
7FFFFFC0
FFFFFF80
FFFFFF80
0000F000
0000F000
0000F000
0400F000
0600F000
0780F000
0780F000
0780F000
0780F000
0780F000
0780F000
0780F000
0780F000
0000F000
0000F000
0000F000
0000F000
0000F000
003FF000
003FF000
001FF000
000FF000
ENDCHAR
STARTCHAR 2F29
ENCODING 12073
SWIDTH 1020 0
DWIDTH 34 0
BBX 28 31 3 -2
BITMAP
000F0000
000F0000
000F0000
000F0000
000F0000
000F0000
1E0F0780
1E0F0780
1E0F0780
1E0F0780
3E0F07C0
3E0F03C0
3C0F03C0
3C0F03C0
3C0F03C0
3C0F03E0
7C0F03E0
7C0F01E0
780F01E0
780F01E0
780F01E0
F80F01F0
F80F00F0
F00F00F0
000F0000
000F0000
000F0000
00FF0000
007F0000
007F0000
003F0000
ENDCHAR
STARTCHAR 2F2A
ENCODING 12074
SWIDTH 990 0
DWIDTH 33 0
BBX 28 31 2 -3
BITMAP
003E0000
003E0000
003C0000
003C0000
007C0000
00780000
00780000
3FFFFFF0
7FFFFFF0
7FFFFFF0
FFFFFFE0
01F07800
01E07800
01E07800
03E07800
03C07800
03C07800
07C07800
07807800
07807800
0F807800
0F807800
0F007800
0F007800
1F007800
1E007800
1E007800
3E007FE0
3C007FF0
3C007FF0
7C007FF0
ENDCHAR
STARTCHAR 2F2B
ENCODING 12075
SWIDTH 1020 0
DWIDTH 34 0
BBX 26 30 4 -4
BITMAP
FFFFFFC0
FFFFFFC0
FFFFFFC0
FFFFFFC0
F00003C0
F00003C0
F00003C0
F00003C0
F00003C0
F7FFFFC0
F3FFFFC0
F3FFFFC0
F1FFFFC0
F0000000
F0000000
F0000000
F0000000
F0000000
F0000000
F0000000
F0000000
F0000000
F0000000
F0000000
F0000000
F0000000
F0000000
F0000000
F0000000
F0000000
ENDCHAR
STARTCHAR 2F2C
ENCODING 12076
SWIDTH 990 0
DWIDTH 33 0
BBX 26 31 4 -3
BITMAP
001E0000
001E0000
001E0000
001E0000
001E0000
F01E07C0
F01E07C0
F01E07C0
F01E07C0
F01E07C0
F01E07C0
F01E07C0
F01E07C0
F01E07C0
F01E07C0
F01E07C0
F01E07C0
FFFFFFC0
FFFFFFC0
FFFFFFC0
FFFFFFC0
001E0000
001E0000
001E0000
001E0000
001E0000
001E0000
001E0000
001E0000
001E0000
001E0000
ENDCHAR
STARTCHAR 2F2D
ENCODING 12077
SWIDTH 1020 0
DWIDTH 34 0
BBX 26 30 4 -1
BITMAP
001E0000
001E0000
001E0000
001E0000
001E0000
001E0000
001E0000
F01E07C0
F01E07C0
F01E07C0
F01E07C0
F01E07C0
F01E07C0
F01E07C0
F01E07C0
F01E07C0
F01E07C0
F01E07C0
F01E07C0
F01E07C0
F01E07C0
F01E07C0
F01E07C0
F01E07C0
F01E07C0
F01E07C0
FFFFFFC0
FFFFFFC0
FFFFFFC0
FFFFFFC0
ENDCHAR
STARTCHAR 2F2E
ENCODING 12078
SWIDTH 990 0
DWIDTH 33 0
BBX 27 30 3 -3
BITMAP
0F87C3E0
0F0783E0
0F0783C0
1F0F83C0
1E0F87C0
1E0F0780
3E0F0780
3E1F0F80
3C1E0F80
3C1E0F00
7C3E0F00
783E1F00
783C1E00
F87C1E00
F87C3E00
F87C1E00
783C1E00
783C1F00
7C3E1F00
7C1E0F00
3C1E0F80
3C1F0F80
3E1F0780
1E0F0780
1E0F07C0
1F0F83C0
0F0783C0
0F0783E0
0F87C3E0
0F87C1E0
ENDCHAR
STARTCHAR 2F2F
ENCODING 12079
SWIDTH 1020 0
DWIDTH 34 0
BBX 28 28 3 -1
BITMAP
0FFFFFE0
1FFFFFC0
3FFFFF80
3FFFFF80
000F0000
000F0000
000F0000
000F0000
000F0000
000F0000
000F0000
000F0000
000F0000
000F0000
000F0000
000F0000
000F0000
000F0000
000F0000
000F0000
000F0000
000F0000
000F0000
000F0000
3FFFFFF0
3FFFFFE0
7FFFFFE0
FFFFFFC0
ENDCHAR
STARTCHAR 2F30
ENCODING 12080
SWIDTH 990 0
DWIDTH 33 0
BBX 25 29 4 -2
BITMAP
3FFFFE00
7FFFFE00
7FFFFE00
FFFFFE00
00001E00
00001E00
00001E00
00001E00
00001E00
00001E00
00001E00
7FFFFE00
7FFFFE00
7FFFFE00
7FFFFE00
78000000
78000000
78000000
78000000
78000000
78000000
78000000
78000000
78000000
78000000
7FFFFF00
7FFFFF00
7FFFFF80
7FFFFF80
ENDCHAR
STARTCHAR 2F31
ENCODING 12081
SWIDTH 990 0
DWIDTH 33 0
BBX 24 31 4 -3
BITMAP
003C00
003C00
003C00
003C00
003C00
FFFFFF
FFFFFF
FFFFFF
FFFFFF
F03C0F
F03C0F
F03C0F
F03C0F
F03C0F
F03C0F
F03C0F
F03C0F
F03C0F
F03C0F
F03C0F
F03C0F
F03C0F
F03CFF
F03C7F
F03C7F
F03C3F
003C00
003C00
003C00
003C00
003C00
ENDCHAR
STARTCHAR 2F32
ENCODING 12082
SWIDTH 990 0
DWIDTH 33 0
BBX 29 30 2 -3
BITMAP
1FFFFFC0
1FFFFFC0
1FFFFFC0
1FFFFFC0
000F0000
000F0000
000F0000
000F0000
000F0000
000F0000
000F0000
000F0000
3FFFFFF8
7FFFFFF0
7FFFFFF0
FFFFFFE0
000F0000
000F0000
000F0000
000F0000
000F0000
000F0000
000F0000
000F0000
000F0000
000F0000
000F0000
000F0000
000F0000
000F0000
ENDCHAR
STARTCHAR 2F33
ENCODING 12083
SWIDTH 1020 0
DWIDTH 34 0
BBX 25 31 4 -2
BITMAP
03E00000
03E00000
07C00000
07C00000
07C00000
0F800000
0F800000
0F800000
1F000000
1F000000
3E000000
3E000000
3FFFFF80
7FFFFF80
7FFFFF00
FFFFFF00
07C00000
07C00000
07800000
0F800000
0F800000
0F000000
1F000600
1F000780
3E000780
3E000780
3C000780
7FFFFF80
7FFFFF80
7FFFFF80
FFFFFF80
ENDCHAR
STARTCHAR 2F34
ENCODING 12084
SWIDTH 990 0
DWIDTH 33 0
BBX 26 32 3 -3
BITMAP
00100000
001E0000
001E0000
001E0000
FFFFFFC0
FFFFFFC0
FFFFFFC0
FFFFFF80
F0000000
F0000000
F0000000
F0000000
F0000000
F0000000
F0000000
F0000000
F0000000
F0000000
F0000000
F0000000
F0000000
F0000000
F0000000
F0000000
F0000000
F0000000
F0000000
F0000000
F0000000
F0000000
F0000000
F0000000
ENDCHAR
STARTCHAR 2F35
ENCODING 12085
SWIDTH 990 0
DWIDTH 33 0
BBX 28 29 2 -2
BITMAP
7F800000
7F800000
FF800000
FF800000
0F800000
0F000000
1F000000
1E000000
3C000000
7C000000
7F800000
7F800000
7F800000
7F800000
07800000
07800000
0F000000
CF000000
EF000000
FF000000
FE000000
FE000000
3F000000
3F800000
3FC00000
7FFFFFF0
79FFFFF0
78FFFFF0
F87FFFE0
ENDCHAR
STARTCHAR 2F36
ENCODING 12086
SWIDTH 990 0
DWIDTH 33 0
BBX 28 31 3 -3
BITMAP
03C03C00
03C03C00
03C03C00
03C03C00
07C03C00
07C03C00
07C03C00
07803C00
07803C00
07803C00
07803C00
7FFFFFF0
7FFFFFE0
FFFFFFE0
FFFFFFC0
0F803C00
0F803C00
0F803C00
0F803C00
0F003C00
0F003C00
0F003C00
0F003C00
0F003C00
0F003C00
0F003C00
1F003C00
1F003C00
1F003C00
1F003C00
1E003C00
ENDCHAR
STARTCHAR 2F37
ENCODING 12087
SWIDTH 990 0
DWIDTH 33 0
BBX 28 31 2 -3
BITMAP
00F81000
007C1E00
007C1E00
007C1E00
003E1E00
003E1E00
003E0000
001F0070
001F1FF0
001FFFF0
01FFFFF0
FFFFFFC0
FFFFF000
FFFF8000
FE07C000
8007C000
0003C000
0003E000
0003E000
0003E000
0001F000
0001F000
0001F000
0000F800
0000F800
0000F800
00007C00
00007FE0
00007FE0
00003FF0
00003FF0
ENDCHAR
STARTCHAR 2F38
ENCODING 12088
SWIDTH 990 0
DWIDTH 33 0
BBX 24 30 5 -4
BITMAP
7FFFFE
7FFFFE
FFFFFE
FFFFFE
00001E
00001E
00001E
00001E
7FFFFE
7FFFFE
7FFFFE
7FFFFE
780000
780000
780000
780000
780000
7FFFFF
7FFFFF
7FFFFF
7FFFFF
00000F
00000F
00000F
00000F
00000F
007FFF
007FFF
007FFF
003FFF
ENDCHAR
STARTCHAR 2F39
ENCODING 12089
SWIDTH 1020 0
DWIDTH 34 0
BBX 24 30 5 -3
BITMAP
7FFFFF
FFFFFF
FFFFFF
FFFFFF
00000F
00000F
00000F
00000F
00000F
00000F
00000F
00000F
00000F
7FFFFF
7FFFFF
7FFFFF
7FFFFF
00000F
00000F
00000F
00000F
00000F
00000F
00000F
00000F
00000F
7FFFFF
FFFFFF
FFFFFF
FFFFFF
ENDCHAR
STARTCHAR 2F3A
ENCODING 12090
SWIDTH 990 0
DWIDTH 33 0
BBX 21 30 6 -2
BITMAP
000038
0001F8
001FF8
01FFF8
1FFFF8
FFFF80
FFF800
FF8000
F80000
800000
000008
0000F8
000FF8
00FFF8
0FFFF8
FFFFE0
FFFE00
FFE000
FE0000
E00000
000000
000078
0007F8
007FF8
03FFF8
3FFFF0
FFFF00
FFF000
FF0000
F00000
ENDCHAR
STARTCHAR 2F3B
ENCODING 12091
SWIDTH 990 0
DWIDTH 33 0
BBX 9 31 1 -2
BITMAP
0F80
0F00
1F00
1E00
3E00
3C00
7C00
7C00
FF80
FF00
1F00
1F00
3E00
3E00
7C00
7C00
7E00
FE00
1E00
1E00
1E00
1E00
1E00
1E00
1E00
1E00
1E00
1E00
1E00
1E00
1E00
ENDCHAR
STARTCHAR 2F3C
ENCODING 12092
SWIDTH 990 0
DWIDTH 33 0
BBX 27 31 3 -1
BITMAP
00010000
0001C000
0001E000
01E1E000
01E1E000
01E1E000
01E1E000
81E1E000
C1E1E180
F1E1E1C0
F1E1E1E0
F1E1E1E0
F1E1E1E0
F1E1E1E0
F1E1E1E0
F1E1E1E0
F1E1E1E0
F1E1E1E0
F1E1E1E0
F1E001E0
F1E001E0
F1E001E0
F1E001E0
F1E001E0
F1E001E0
F1E001E0
01E00000
01FFFC00
01FFFC00
01FFFE00
01FFFE00
ENDCHAR
STARTCHAR 2F3D
ENCODING 12093
SWIDTH 990 0
DWIDTH 33 0
BBX 27 31 3 -2
BITMAP
07C08000
03C0F000
03C0F000
03E0F000
03E0F000
01E000C0
01F03FC0
01FFFFC0
07FFFFC0
FFFFFF80
FFFFE000
FFF80000
FC780000
807C0000
003C01C0
003C07C0
003E3FC0
003EFFC0
001FFF80
001FFC00
007FF000
03FF8000
0FFF0000
7FFF8000
FFC78000
FF078000
F807C000
E003FFC0
0003FFC0
0003FFE0
0003FFE0
ENDCHAR
STARTCHAR 2F3F
ENCODING 12095
SWIDTH 990 0
DWIDTH 33 0
BBX 29 30 2 -4
BITMAP
0FFFFFC0
1FFFFFC0
1FFFFFC0
1FFFFFC0
00078000
00078000
00078000
00078000
0FFFFF80
0FFFFF80
0FFFFF80
0FFFFF80
00078000
00078000
00078000
00078000
7FFFFFF8
7FFFFFF0
7FFFFFF0
FFFFFFF0
00078000
00078000
00078000
00078000
00078000
00078000
01FF8000
00FF8000
00FF8000
007F8000
ENDCHAR
STARTCHAR 2F40
ENCODING 12096
SWIDTH 990 0
DWIDTH 33 0
BBX 28 31 2 -3
BITMAP
000F0000
000F0000
000F0000
000F0000
3FFFFFF0
3FFFFFF0
7FFFFFE0
FFFFFFE0
000F0000
000F0000
000F0000
0FFFFF80
0FFFFF80
1FFFFF80
1FFFFF80
00000780
0F000780
0F000780
0F800F80
0FE03F80
0FF9FF80
07FFFF00
01FFFC00
00FFF800
03FFFE00
1FFFFFC0
7FF07FF0
7F801FF0
7E0003F0
780000F0
40000010
ENDCHAR
STARTCHAR 2F41
ENCODING 12097
SWIDTH 1020 0
DWIDTH 34 0
BBX 27 31 3 -4
BITMAP
001E0000
001E0000
001E0000
001FFFE0
001FFFE0
001FFFE0
001FFFC0
001E0000
001E0000
001E0000
3FFFFF00
3FFFFF00
3FFFFF00
7FFFFF00
00000F00
1E000F00
1E000F00
1E000F00
1E000F00
1F807F00
1FF1FF00
1FFFFF00
07FFF800
00FFE000
07FFFC00
1FFFFF00
7FE1FFE0
FF803FE0
FE000FE0
F00001E0
C0000060
ENDCHAR
STARTCHAR 2F42
ENCODING 12098
SWIDTH 1020 0
DWIDTH 34 0
BBX 28 31 3 -2
BITMAP
000E0000
000F0000
000F0000
7FFFFFF0
7FFFFFF0
FFFFFFE0
FFFFFFE0
0F000F00
0F000F00
0F000F00
0F000F00
0F000F00
0F000F00
0F000F00
0F000F00
0F001F00
0FC07F00
0FF0FF00
07FFFE00
01FFF800
007FE000
00FFE000
01FFF800
07FBFE00
1FF0FF80
7FC03FE0
FF000FF0
FC0003F0
F00001F0
E0000070
80000010
ENDCHAR
STARTCHAR 2F43
ENCODING 12099
SWIDTH 990 0
DWIDTH 33 0
BBX 27 31 3 -3
BITMAP
0000F000
0600F000
07C0F000
07C0F000
07C0F000
07C0F000
07C0F000
0000F000
0000F000
0400F000
0780F000
07C0F000
07C0F000
07C0F000
07C0F000
07C0F000
0000F000
0000F000
0000FFE0
FFFFFFE0
FFFFFFE0
FFFFFFE0
FFFFF000
0000F000
0000F000
0000F000
0000F000
0000F000
0000F000
0000F000
0000F000
ENDCHAR
STARTCHAR 2F44
ENCODING 12100
SWIDTH 990 0
DWIDTH 33 0
BBX 25 31 4 -4
BITMAP
FFFFFF00
FFFFFE00
FFFFFE00
FFFFFC00
F0000000
F0000000
F0000000
F0000000
F0000000
F0000000
F0000000
FFFFFF80
FFFFFF80
FFFFFF00
FFFFFF00
F003C000
F003C000
F003C000
F003C000
F003C000
F003C000
F003C000
F003C000
F003C000
F003C000
F003C000
F003C000
F003C000
F003C000
F003C000
F003C000
ENDCHAR
STARTCHAR 2F45
ENCODING 12101
SWIDTH 990 0
DWIDTH 33 0
BBX 28 31 2 -2
BITMAP
000C0000
000F0000
000F0000
7FFFFFF0
7FFFFFF0
FFFFFFE0
FFFFFFE0
03C00000
07C00000
07C00000
07800000
07800000
07FFFF80
07FFFF80
07FFFF80
0FFFFF80
0F800780
0F000780
0F000780
0F000780
0F000780
1F000780
1F000780
1E000780
1E000780
1E000780
1E000780
1E01FF80
3E00FF80
3E007F80
3C007F80
ENDCHAR
STARTCHAR 2F46
ENCODING 12102
SWIDTH 1020 0
DWIDTH 34 0
BBX 27 29 4 -2
BITMAP
3FFFFF80
3FFFFF00
3FFFFF00
7FFFFE00
003C0000
003C0000
003C0000
003C0000
003C0000
003C0000
7FFFFFC0
FFFFFFC0
FFFFFF80
FFFFFF80
00F80000
00F80000
01F3C000
03E3C000
03E3C000
07C3C000
07C3C000
0F83C000
1F03C000
1F03C000
3E03C000
3E03FF80
7C03FF80
F803FFC0
F803FFE0
ENDCHAR
STARTCHAR 2F47
ENCODING 12103
SWIDTH 990 0
DWIDTH 33 0
BBX 22 29 5 -1
BITMAP
FFFFFC
FFFFFC
FFFFFC
FFFFFC
F0003C
F0003C
F0003C
F0003C
F0003C
F0003C
F0003C
F0003C
FFFFFC
FFFFFC
FFFFFC
FFFFFC
F0003C
F0003C
F0003C
F0003C
F0003C
F0003C
F0003C
F0003C
F0003C
F7FFFC
F3FFFC
F3FFFC
F1FFFC
ENDCHAR
STARTCHAR 2F48
ENCODING 12104
SWIDTH 990 0
DWIDTH 33 0
BBX 24 29 4 -2
BITMAP
FFFFFF
FFFFFF
FFFFFF
FFFFFF
F0000F
F0000F
F0000F
F0000F
F0000F
F0000F
F0000F
F0000F
FFFFEF
FFFFCF
FFFFCF
FFFF8F
F0000F
F0000F
F0000F
F0000F
F0000F
F0000F
F0000F
F0000F
F0000F
F7FFFF
F3FFFF
F3FFFF
F1FFFF
ENDCHAR
STARTCHAR 2F49
ENCODING 12105
SWIDTH 990 0
DWIDTH 33 0
BBX 23 30 5 -4
BITMAP
FFFFFE
FFFFFE
FFFFFE
FFFFFE
F0001E
F0001E
F0001E
F0001E
F0001E
FFFFFE
FFFFFE
FFFFFE
FFFFFE
F0001E
F0001E
F0001E
F0001E
FFFFFE
FFFFFE
FFFFFE
FFFFFE
F0001E
F0001E
F0001E
F0001E
F0001E
F01FFE
F00FFE
F00FFE
F007FE
ENDCHAR
STARTCHAR 2F4A
ENCODING 12106
SWIDTH 1020 0
DWIDTH 34 0
BBX 27 31 4 -3
BITMAP
001E0000
001E0000
001E0000
001E0000
001E0000
001E0000
7FFFFFE0
7FFFFFC0
FFFFFFC0
FFFFFF80
001E0000
001E0000
001E0000
1E1E1E00
1E1E1E00
1E1E1E00
3E1E1F00
3E1E0F00
3C1E0F00
3C1E0F00
3C1E0F00
3C1E0F80
7C1E0F80
7C1E0780
781E0780
781E0780
781E0780
781E07C0
781E07C0
F81E03C0
F81E03C0
ENDCHAR
STARTCHAR 2F4B
ENCODING 12107
SWIDTH 990 0
DWIDTH 33 0
BBX 25 32 4 -4
BITMAP
1F000000
1E000000
1E000000
1E000000
3FFFFF80
3FFFFF80
3FFFFF80
3FFFFF80
3C000F00
7C000F00
78000F00
781F0F00
781E1F00
F83E1E00
F03C1E00
007C0000
00F80000
00FF0000
01FF8000
01E78000
03E7C000
03C3E000
07C3E000
0781F000
0F80F000
0F00F800
1F007800
1E007C00
3E003E00
7C003E00
7C001F00
F8001F00
ENDCHAR
STARTCHAR 2F4C
ENCODING 12108
SWIDTH 990 0
DWIDTH 33 0
BBX 27 31 3 -2
BITMAP
00078000
00078000
00078000
00078000
00078000
00078000
0F078000
0F078000
0F078000
0F078000
0F078000
0F07FFE0
0F07FFC0
0F07FFC0
0F07FF80
0F078000
0F078000
0F078000
0F078000
0F078000
0F078000
0F078000
0F078000
0F078000
0F078000
0F078000
0F078000
7FFFFFE0
FFFFFFE0
FFFFFFE0
FFFFFFC0
ENDCHAR
STARTCHAR 2F4D
ENCODING 12109
SWIDTH 990 0
DWIDTH 33 0
BBX 27 31 3 -5
BITMAP
7FFFFFE0
7FFFFFE0
FFFFFFC0
FFFFFFC0
0F800000
0F800000
0F800000
1F000000
1FFFFF00
1FFFFF00
1FFFFF00
3FFFFF00
3E000F00
3E200F00
3C3C0F00
7C3C0F00
003C0F00
003C0F00
003C0F00
003C0F00
003C3F00
0001FF00
000FFF00
003FFC00
01FFE000
0FFF8000
3FFC0000
3FE00000
3F800000
3C000000
20000000
ENDCHAR
STARTCHAR 2F4E
ENCODING 12110
SWIDTH 1020 0
DWIDTH 34 0
BBX 27 30 3 -4
BITMAP
1FFFFE00
1FFFFE00
1FFFFE00
1FFFFE00
1E001E00
1E001E00
1E001E00
3E001E00
3C001FC0
7C001FE0
78001FE0
F8001FE0
00000000
0FFFFF00
1FFFFF00
1FFFFF00
3FFFFF00
00000F00
1E000F00
1E000F00
1FC07F00
1FFBFF00
1FFFFF00
03FFF800
07FFFC00
3FFFFF00
FFF1FFE0
FF803FE0
FC0007E0
E00000E0
ENDCHAR
STARTCHAR 2F4F
ENCODING 12111
SWIDTH 1020 0
DWIDTH 34 0
BBX 28 31 3 -4
BITMAP
0FFFFF00
0FFFFF00
0FFFFF00
0FFFFF00
0F0F0F00
0F0F0F00
0F0F0F00
0F0F0F00
0F0F0F00
0F0F0F00
7FFFFFF0
7FFFFFF0
FFFFFFE0
FFFFFFE0
0F0F0F00
0F0F0F00
0F0F0F00
0F0F0F00
0F0F0F00
0F0F0F00
0FFFFFF0
0FFFFFF0
0FFFFFE0
0FFFFFC0
007C0F00
00F80F00
00F80F00
01F0FF00
03E0FF00
03E07F00
07C07F00
ENDCHAR
STARTCHAR 2F50
ENCODING 12112
SWIDTH 1020 0
DWIDTH 34 0
BBX 26 31 4 -2
BITMAP
F0078000
F0078000
F0078000
F0078000
F0078000
F0078000
F0078000
F0078000
F0078000
F00780C0
F0078FC0
FFF7FFC0
FFE7FFC0
FFE7FFC0
FFC7F800
F0078000
F0078000
F0078000
F0078000
F0078000
F0078000
F0078000
F0078000
F0078000
F0078000
F0078000
F0078000
FFC7FF80
FFE7FF80
FFE7FFC0
FFF7FFC0
ENDCHAR
STARTCHAR 2F51
ENCODING 12113
SWIDTH 990 0
DWIDTH 33 0
BBX 27 30 3 -4
BITMAP
3FFFFFC0
7FFFFFC0
7FFFFF80
FFFFFF80
003C0000
003C0000
003C0000
003C0000
003FFF00
3FFFFF00
3FFFFF00
3FFFFF00
3FFC0000
003C0000
003C0000
003C0000
003C0000
003FFFC0
FFFFFFC0
FFFFFFC0
FFFFFFC0
FFFC0000
003C0000
003C0000
003C0000
003C0000
003FFF80
003FFFC0
003FFFC0
003FFFE0
ENDCHAR
STARTCHAR 2F52
ENCODING 12114
SWIDTH 1020 0
DWIDTH 34 0
BBX 25 30 4 -4
BITMAP
FFFFFF80
FFFFFF00
FFFFFF00
FFFFFE00
F00F8000
F0078000
F0078000
F0078000
F0078000
F0078000
F0078000
FFFFFF00
FFFFFF00
FFFFFE00
FFFFFE00
F003C000
F003C000
F003C000
F003C000
F003E000
F003E000
F003E000
F003E000
F003E000
F001E000
F001E000
FFC1FF00
FFE1FF00
FFE1FF80
FFF1FF80
ENDCHAR
STARTCHAR 2F53
ENCODING 12115
SWIDTH 990 0
DWIDTH 33 0
BBX 26 31 3 -2
BITMAP
E0000000
F0000000
FFFFFF80
FFFFFF00
FFFFFF00
FFFFFE00
F0000000
F3FFFC00
F3FFFC00
F3FFFC00
F3FFFC00
00000000
00000000
7FFFFC00
7FFFFC00
FFFFFC00
FFFFFC00
00003C00
00003C00
00003C00
00003C00
00003C00
00003C00
00003C00
00003C00
00003C00
00003C00
00003F80
00003F80
00003FC0
00003FC0
ENDCHAR
STARTCHAR 2F54
ENCODING 12116
SWIDTH 1020 0
DWIDTH 34 0
BBX 28 32 3 -3
BITMAP
000F0000
000F0000
000F0000
000F0000
000F0000
000FF000
000FF000
3FEFF000
7FCFFFE0
7FCF7FE0
FFCF7FC0
07CF7FC0
078F3C00
078F3C00
078F3E00
0F0F1E00
0F0F1E00
0F0F1F00
1E0F0F00
1E0F0F00
1E0F0F80
3E0F0780
3C0F0780
3C0F07C0
3C0F03C0
780F03C0
780F03E0
780F01E0
F1FF01E0
F0FF01F0
007F0000
007F0000
ENDCHAR
STARTCHAR 2F55
ENCODING 12117
SWIDTH 990 0
DWIDTH 33 0
BBX 26 31 3 -3
BITMAP
001E0000
001E0000
001E0000
001E0000
201E0800
381E0E00
3C1E0F00
3C1E0F00
3C1E0F00
3C1E0F00
3C1E0F00
3C1E0F00
3C1E0F00
3C1E0F00
3C1E0F00
3C1E0F00
3C3F0F00
003F8000
007F8000
00FFC000
01F3E000
01F1F000
03E1F000
07C0F800
0F807C00
0F803E00
1F003E00
3E001F00
7C000F80
7C0007C0
F80003C0
ENDCHAR
STARTCHAR 2F56
ENCODING 12118
SWIDTH 1020 0
DWIDTH 34 0
BBX 26 31 4 -2
BITMAP
FFFFFFC0
FFFFFF80
FFFFFF80
FFFFFF00
F0787C00
F0783C00
F0783C00
F0783C00
F0783C00
F0783C00
F0783C00
F0783C00
F0783E00
F0783E00
F0781E00
F0781E00
F0781E00
F0781E00
F0781E00
F0781E00
F0781E00
F0781F00
F0781F00
F0780F00
F0780F00
F0780F00
F0780F00
F0780F00
F0780F00
F0780F80
F0780F80
ENDCHAR
STARTCHAR 2F57
ENCODING 12119
SWIDTH 990 0
DWIDTH 33 0
BBX 27 30 3 -3
BITMAP
07C07C00
07C03C00
07803E00
0F801E00
0F001F00
1F001F00
1E000F00
3E000F80
3E000780
3FC07FC0
7FE0FFC0
7BF1FBE0
01FBF000
00FFE000
007FC000
003F8000
001F8000
003F8000
007FC000
007FE000
00FBE000
01F1F000
03F0F800
07E07C00
07C07E00
0F803F00
1F001F00
3E000F80
7E0007C0
FC0003E0
ENDCHAR
STARTCHAR 2F58
ENCODING 12120
SWIDTH 1020 0
DWIDTH 34 0
BBX 28 32 3 -3
BITMAP
08000080
0E000380
0F800F80
0FE03F80
0FF8FF80
03FFFE00
00FFF800
003FF000
01FFF800
07FDFE00
1FF07F80
7FC01FE0
7F0007E0
7C0001E0
70000060
07E03F00
03F07E00
01F8FC00
00FDF800
007FF000
003FE000
001FC000
001FC000
007FE000
00FDF000
01F8F800
03F07C00
07E03F00
0FC01F80
1F800FC0
7F0007E0
FE0003F0
ENDCHAR
STARTCHAR 2F59
ENCODING 12121
SWIDTH 1020 0
DWIDTH 34 0
BBX 23 31 5 -4
BITMAP
1E001E
1E001E
1E001E
1E001E
1E001E
1E001E
1E001E
1FFFFE
1FFFFE
1FFFFE
1FFFFE
00001E
00001E
00001E
00001E
FFFFFE
FFFFFE
FFFFFE
FFFFFE
0F801E
0F801E
0F001E
0F001E
1F001E
1F001E
1E001E
1E001E
1E001E
3E001E
3C001E
3C001E
ENDCHAR
STARTCHAR 2F5A
ENCODING 12122
SWIDTH 1020 0
DWIDTH 34 0
BBX 26 32 4 -4
BITMAP
0001E000
3C01E000
3C01E000
3C01E000
3C01E000
3C01E000
3C01E000
3C01E000
3C01E000
3FFFFFC0
3FFFFFC0
3FFFFF80
3FFFFF80
3C000000
3C000000
3C000000
3C000000
3FFFFE00
3FFFFE00
3FFFFE00
3FFFFE00
7C001E00
78001E00
78001E00
78001E00
78001E00
F8001E00
F8001E00
F0001E00
F0001E00
F0001E00
F0001E00
ENDCHAR
STARTCHAR 2F5B
ENCODING 12123
SWIDTH 1020 0
DWIDTH 34 0
BBX 26 30 4 -3
BITMAP
7FFFFFC0
7FFFFFC0
FFFFFF80
FFFFFF00
0000F000
0000F000
7800F000
7800F000
7800F000
7800F000
7800F000
7800F000
7FFFFFC0
7FFFFF80
7FFFFF80
7FFFFF00
0000F000
07C0F000
0780F000
0F80F000
0F80F000
1F00F000
1F00F000
3E00F000
3E00F000
3C00F000
7C1FF000
780FF000
F80FF000
F80FF000
ENDCHAR
STARTCHAR 2F5C
ENCODING 12124
SWIDTH 990 0
DWIDTH 33 0
BBX 29 31 2 -3
BITMAP
00078000
00078000
30078000
3C078000
3C078000
3C078000
3FFFFFC0
3FFFFFC0
3FFFFFC0
3FFFFF80
3C078000
3C078000
3C078000
00078000
00078000
00078000
00078000
7FFFFFF8
7FFFFFF0
7FFFFFF0
FFFFFFE0
00078000
00078000
00078000
00078000
00078000
00078000
00078000
00078000
00078000
00078000
ENDCHAR
STARTCHAR 2F5D
ENCODING 12125
SWIDTH 990 0
DWIDTH 33 0
BBX 28 32 2 -3
BITMAP
000F0000
000F0400
000F0700
000F0780
000F0780
000F0780
000F0780
000F0780
000F0000
3FFFFFF0
7FFFFFE0
7FFFFFE0
FFFFFFC0
003C0000
007C0000
00F9F000
00F8F000
01F0F800
01F07800
03E07C00
03E03C00
07C03E00
07C01E00
0F801F00
0F000F00
1F000F80
1E000780
3E0007C0
3C0003C0
7C0003E0
780001E0
F80001F0
ENDCHAR
STARTCHAR 2F5E
ENCODING 12126
SWIDTH 990 0
DWIDTH 33 0
BBX 28 31 2 -2
BITMAP
00080000
000F0000
000F0000
000F0000
3FFFFFF0
7FFFFFE0
7FFFFFE0
FFFFFFC0
03E00000
03C00000
07C00000
07C00000
0F800000
0F800000
0FFFFF80
1FFFFF80
1FFFFF00
3FFFFF00
03E00000
03E00000
03C00600
07C00700
07C00780
07800780
0F800780
0F800780
1F000780
1FFFFF80
1FFFFF80
3FFFFF80
3FFFFF80
ENDCHAR
STARTCHAR 2F5F
ENCODING 12127
SWIDTH 990 0
DWIDTH 33 0
BBX 27 29 3 -2
BITMAP
3FFFFFC0
3FFFFF80
3FFFFF80
7FFFFF00
001E0000
001E0000
001E0000
001E0000
001E0000
001E0000
001E0000
3FFFFF80
3FFFFF80
3FFFFF80
3FFFFF80
001E0000
001E0000
001E1000
001E1C00
001E1E00
001E1E00
001E1E00
001E1E00
001E0000
001E0000
3FFFFFE0
7FFFFFC0
7FFFFFC0
FFFFFF80
ENDCHAR
STARTCHAR 2F60
ENCODING 12128
SWIDTH 990 0
DWIDTH 33 0
BBX 25 30 4 -4
BITMAP
FFFFFF80
FFFFFF80
FFFFFF00
FFFFFF00
F1E07800
F1E07800
F1E07800
F1E07C00
F1E07C00
F1E03C00
F1E03C00
F1E03C00
F1E03C00
F1E03C00
F1E03C00
F1E03E00
F1E03E00
F1E01E00
F1E01E00
F1E01E00
F1E21E00
F1E31E00
F1E3DF00
F1E3DF00
F1E3DF00
F1E3CF00
F1FFCF00
F1FFCF00
F1FFCF00
F1FFCF00
ENDCHAR
STARTCHAR 2F61
ENCODING 12129
SWIDTH 990 0
DWIDTH 33 0
BBX 29 30 2 -4
BITMAP
3FFFFFF0
3FFFFFF0
7FFFFFE0
FFFFFFE0
0F000000
0F000000
0F000000
0F000000
0F000000
0FFFFF00
0FFFFF00
0FFFFF00
0FFFFF00
0F000F00
0F000F00
0F080F00
0F0E0F00
0F0F0F00
0F0F0F00
0F0F0F00
0F0F0F00
0F0F0F00
0F0F0F00
0F000F00
0F000F00
0F000F00
0FF00FE0
0FF80FF0
0FFC0FF0
0FFC0FF8
ENDCHAR
STARTCHAR 2F62
ENCODING 12130
SWIDTH 990 0
DWIDTH 33 0
BBX 29 31 2 -2
BITMAP
07800F00
07800F00
07800F00
07800F00
07800F00
7FFFFFF8
7FFFFFF0
7FFFFFF0
FFFFFFE0
07800F00
07800F00
07800F00
07800F00
07800F00
07800F00
07800F00
07FFFF00
07FFFF00
07FFFF00
07FFFF00
07800F00
07800F00
07800F00
07800F00
07800F00
07800F00
07800F00
07FFFF00
07FFFF00
07FFFF00
07FFFF00
ENDCHAR
STARTCHAR 2F63
ENCODING 12131
SWIDTH 990 0
DWIDTH 33 0
BBX 28 31 2 -2
BITMAP
000F0000
200F0000
380F0000
3C0F0000
3C0F0000
3C0F0000
3FFFFFC0
3FFFFFC0
3FFFFF80
3FFFFF80
3C0F0000
3C0F0000
3C0F0000
3C0F0000
000F0000
000F0000
1FFFFF80
1FFFFF80
1FFFFF80
1FFFFF80
000F0000
000F0000
000F0000
000F0000
000F0000
000F0000
000F0000
3FFFFFF0
7FFFFFE0
7FFFFFE0
FFFFFFC0
ENDCHAR
STARTCHAR 2F64
ENCODING 12132
SWIDTH 1020 0
DWIDTH 34 0
BBX 24 30 5 -4
BITMAP
FFFFFF
FFFFFF
FFFFFF
FFFFFF
F03C1F
F03C1F
F03C1F
F03C1F
F03C1F
FFFFFF
FFFFFF
FFFFFF
FFFFFF
F03C1F
F03C1F
F03C1F
F03C1F
F03C1F
FFFFFF
FFFFFF
FFFFFF
FFFFFF
F03C1F
F03C1F
F03C1F
F03C1F
F03C7F
F03C7F
F03C3F
F03C3F
ENDCHAR
STARTCHAR 2F65
ENCODING 12133
SWIDTH 1020 0
DWIDTH 34 0
BBX 24 29 5 -2
BITMAP
FFFFFF
FFFFFF
FFFFFF
FFFFFF
F03C0F
F03C0F
F03C0F
F03C0F
F03C0F
F03C0F
F03C0F
F03C0F
F03C0F
FFFFFF
FFFFFF
FFFFFF
FFFFFF
F03C0F
F03C0F
F03C0F
F03C0F
F03C0F
F03C0F
F03C0F
F03C0F
F7FFFF
F3FFFF
F3FFFF
F1FFFF
ENDCHAR
STARTCHAR 2F66
ENCODING 12134
SWIDTH 990 0
DWIDTH 33 0
BBX 28 29 3 -2
BITMAP
3FFFFFE0
3FFFFFE0
7FFFFFE0
7FFFFFE0
000781E0
000781E0
000781E0
000781E0
000781E0
000781E0
1E078000
1E07FFE0
1E07FFC0
1E07FFC0
3E07FFC0
3C078000
3C078000
3C078000
3E078000
7F078000
7F078000
7F878000
7FC78000
7FE78000
7BF78000
F9FFFFF0
F1FFFFE0
F0FFFFE0
F07FFFE0
ENDCHAR
STARTCHAR 2F67
ENCODING 12135
SWIDTH 990 0
DWIDTH 33 0
BBX 28 32 2 -3
BITMAP
00010000
0001E000
0001E000
07FFFFF0
07FFFFF0
07FFFFF0
07FFFFE0
07800000
C7800000
E7800000
E7800000
E7800000
E7800000
E7800000
E7800000
07800000
07800000
87800000
E7800000
E7800000
E7800000
E7800000
E7800000
E7800000
E7800000
E7800000
07800000
07800000
07800000
07800000
07800000
07800000
ENDCHAR
STARTCHAR 2F69
ENCODING 12137
SWIDTH 990 0
DWIDTH 33 0
BBX 23 31 5 -3
BITMAP
00F000
01F000
01E000
01E000
FFFFFE
FFFFFE
FFFFFE
FFFFFE
F0001E
F0001E
F0001E
F0001E
F0001E
F0001E
F0001E
FFFFFE
FFFFFE
FFFFFE
FFFFFE
F0001E
F0001E
F0001E
F0001E
F0001E
F0001E
F0001E
F0001E
F7FFFE
F3FFFE
F3FFFE
F1FFFE
ENDCHAR
STARTCHAR 2F6A
ENCODING 12138
SWIDTH 990 0
DWIDTH 33 0
BBX 26 32 3 -3
BITMAP
001F0000
001F0000
001F0000
FFFFFF80
FFFFFF80
FFFFFF80
FFFFFF80
F01F0780
F01F0780
F01F0780
F01F0780
F01F0000
F3FFFE00
F3FFFE00
F3FFFE00
F7FFFE00
F0001E00
F1E01E00
F1E01E00
F1E01E00
F1F03E00
F1F87E00
F0FCFE00
F07FF800
F03FF000
F01FE000
F01FE000
F03FF000
F07FFC00
F0FCFE00
F1F83F00
F7F01FC0
ENDCHAR
STARTCHAR 2F6B
ENCODING 12139
SWIDTH 990 0
DWIDTH 33 0
BBX 29 29 2 -1
BITMAP
1FFFFFC0
1FFFFFC0
1FFFFFC0
1FFFFFC0
1E38E3C0
1E38E3C0
1E38E3C0
1E38E3C0
1E38E3C0
1E38E3C0
1E38E3C0
1E38E3C0
1E38E3C0
1E38E3C0
1E38E3C0
1E38E3C0
1E38E3C0
1E38E3C0
1E38E3C0
1E38E3C0
1E38E3C0
1E38E3C0
1E38E3C0
1E38E3C0
1E38E3C0
7FFFFFF8
7FFFFFF0
FFFFFFF0
FFFFFFE0
ENDCHAR
STARTCHAR 2F6C
ENCODING 12140
SWIDTH 1020 0
DWIDTH 34 0
BBX 22 29 6 -2
BITMAP
FFFFFC
FFFFFC
FFFFFC
FFFFFC
F0003C
F0003C
F0003C
F0003C
FFFFFC
FFFFFC
FFFFFC
FFFFFC
F0003C
F0003C
F0003C
F0003C
FFFFFC
FFFFFC
FFFFFC
FFFFFC
F0003C
F0003C
F0003C
F0003C
F0003C
F7FFFC
F3FFFC
F3FFFC
F1FFFC
ENDCHAR
STARTCHAR 2F6D
ENCODING 12141
SWIDTH 990 0
DWIDTH 33 0
BBX 27 31 3 -4
BITMAP
1FFFFFC0
1FFFFF80
1FFFFF80
3FFFFF00
00001F00
01801F00
01E03E00
01E03E00
01E03C00
01E07C00
00007C00
7FFFFFE0
7FFFFFE0
FFFFFFE0
FFFFFFE0
000781E0
078781E0
078781E0
0F8781E0
0F0781E0
0F0781E0
1F078000
1E078000
1E078000
1E078000
3E078000
3C078000
3C3F8000
7C3F8000
783F8000
781F8000
ENDCHAR
STARTCHAR 2F6E
ENCODING 12142
SWIDTH 990 0
DWIDTH 33 0
BBX 27 31 3 -3
BITMAP
20000000
3C000000
3C000000
3C000000
3FFFFFC0
3FFFFFC0
3FFFFFC0
3FFFFFC0
3C0F0000
3C0F0000
3C0F0000
000F0000
000F0000
000F0000
000F0000
7FFFFFE0
7FFFFFE0
FFFFFFE0
FFFFFFC0
00F80000
00F8F800
01F07800
01E07C00
03E03E00
07C03E00
07C01F00
0F800F80
1F000F80
1F0007C0
3E0003C0
3C0003E0
ENDCHAR
STARTCHAR 2F6F
ENCODING 12143
SWIDTH 1020 0
DWIDTH 34 0
BBX 28 29 3 -2
BITMAP
1FFFFFF0
1FFFFFE0
3FFFFFE0
3FFFFFC0
01E00000
01E00000
03C00000
03C00000
07800000
07800000
07FFFF80
0FFFFF80
0FFFFF80
1FFFFF80
1FC00780
1FC00780
3FC00780
3FC00780
7BC00780
7BC00780
FBC00780
F3C00780
03C00780
03C00780
03C00780
03DFFF80
03CFFF80
03CFFF80
03C7FF80
ENDCHAR
STARTCHAR 2F70
ENCODING 12144
SWIDTH 1020 0
DWIDTH 34 0
BBX 28 30 3 -3
BITMAP
1FFFFFC0
1FFFFFC0
3FFFFF80
3FFFFF80
00000000
00000000
00000000
00000000
00000000
3FFFFFF0
7FFFFFE0
7FFFFFE0
FFFFFFC0
000F0000
000F0000
000F0000
0F0F0F00
1F0F0F00
1F0F0F80
1E0F0780
1E0F0780
1E0F0780
3E0F0780
3C0F07C0
3C0F03C0
3C0F03C0
3C7F03C0
7C3F03C0
783F03E0
781F01E0
ENDCHAR
STARTCHAR 2F72
ENCODING 12146
SWIDTH 990 0
DWIDTH 33 0
BBX 28 31 2 -4
BITMAP
0FFFFFC0
1FFFFF80
1FFFFF80
3FFFFF00
000F0000
000F0000
000F0000
000F0000
000F0000
7FFFFFF0
7FFFFFF0
FFFFFFE0
FFFFFFE0
000F0000
000F0000
0F0F0F80
1F0F0780
1E0F0780
1E0F0780
1E0F07C0
1E0F07C0
3E0F03C0
3C0F03C0
3C0F03C0
3C0F03C0
3C0F03E0
7C0F01E0
780F01E0
780F01E0
780F01E0
780F01F0
ENDCHAR
STARTCHAR 2F73
ENCODING 12147
SWIDTH 990 0
DWIDTH 33 0
BBX 26 32 4 -2
BITMAP
00100000
001E0000
001E0000
001E0000
FFFFFFC0
FFFFFFC0
FFFFFFC0
FFFFFFC0
F00007C0
F00007C0
F00007C0
F00007C0
00000000
00000000
07807800
07807800
0F807800
0F007C00
0F003C00
0F003C00
1F003E00
1E001E00
1E001E00
3E001E00
3C000F00
3C000F00
7C000F00
78000F80
78000780
F8000780
F0000780
F00003C0
ENDCHAR
STARTCHAR 2F74
ENCODING 12148
SWIDTH 990 0
DWIDTH 33 0
BBX 28 30 2 -1
BITMAP
000E0000
000F0000
000F0000
000F0000
3FFFFFE0
3FFFFFE0
3FFFFFC0
7FFFFFC0
00000000
00000000
00000000
06001800
07801E00
07801E00
07801E00
07801E00
07801E00
07801E00
07801E00
07801E00
07801E00
07801E00
07801E00
00000000
00000000
00000000
7FFFFFF0
7FFFFFF0
FFFFFFE0
FFFFFFE0
ENDCHAR
STARTCHAR 2F75
ENCODING 12149
SWIDTH 990 0
DWIDTH 33 0
BBX 29 32 2 -3
BITMAP
80020000
F003C000
F003C000
F003C000
FFFBFFF8
FFFBFFF8
FFF3FFF0
FFF3FFF0
F3C3C780
F3C3C780
F3C3C780
F3C3C780
F3C3C780
F3C3C780
03C00780
03C00780
03C00780
03C00780
03C00780
03C00780
03C00780
03C00780
03C00780
03C00780
03C00780
03C00780
03C00780
03C00780
03C07F80
03C03F80
03C03F80
03C01F80
ENDCHAR
STARTCHAR 2F76
ENCODING 12150
SWIDTH 1020 0
DWIDTH 34 0
BBX 28 31 3 -3
BITMAP
000F0000
000F0800
180F0E00
1E0F0F00
1E0F0F80
1E0F0F80
1E0F0F80
1E0F0F80
1E0F0F80
1E0F0F80
000F0000
000F0000
7FFFFFF0
7FFFFFE0
FFFFFFE0
FFFFFFC0
000F0000
000F0000
0F0F0F00
0F0F0F00
1F0F0F00
1F0F0F00
1E0F0F80
1E0F0780
1E0F0780
3E0F0780
3C0F07C0
3C0F03C0
3C0F03C0
7C0F03C0
7C0F03C0
ENDCHAR
STARTCHAR 2F77
ENCODING 12151
SWIDTH 990 0
DWIDTH 33 0
BBX 26 31 4 -2
BITMAP
07C00000
07800000
0F800000
0F800000
1F000000
1F000000
3FFFFF80
3FFFFF00
3FFFFF00
7FFFFE00
0F800000
0F000000
1F000800
1F000E00
1E000F00
3E000F00
3FFFFF00
7FFFFF00
7FFFFF00
7FFFFF00
001E0000
001E0000
3C1E1F00
3C1E0F00
3C1E0F00
7C1E0F00
781E0F80
78FE0780
F87E0780
F87E0780
F03E07C0
ENDCHAR
STARTCHAR 2F78
ENCODING 12152
SWIDTH 990 0
DWIDTH 33 0
BBX 28 31 2 -2
BITMAP
30000000
3C000000
3C000000
3FFFFFE0
3FFFFFC0
3FFFFFC0
3FFFFF80
3C078000
3C078000
3C078000
3C078000
00078000
00078000
7FFFFFF0
7FFFFFF0
7FFFFFE0
FFFFFFE0
00078000
00078000
00078000
3C0783C0
3C0783C0
3C0783C0
3C0783C0
3C0783C0
3C0783C0
3C0783C0
3FFFFFC0
3FFFFFC0
3FFFFFC0
3FFFFFC0
ENDCHAR
STARTCHAR 2F79
ENCODING 12153
SWIDTH 990 0
DWIDTH 33 0
BBX 27 30 3 -3
BITMAP
FFFFFFE0
FFFFFFE0
FFFFFFE0
FFFFFFE0
F00001E0
F00001E0
F7BB9DE0
F3BBBDE0
F3BBF9E0
F3F9F9E0
F3F1F9E0
F1F1F9E0
F1F1F1E0
F1F1F1E0
F1F0F1E0
F1E0F1E0
F0E0F1E0
F0E0F1E0
F1E0F1E0
F1F0F1E0
F1F1F1E0
F1F1F9E0
F3F1F9E0
F3F9F9E0
F3FBF9E0
F3BBBDE0
F7BBBDE0
F0001FE0
F0000FE0
F0000FE0
ENDCHAR
STARTCHAR 2F7A
ENCODING 12154
SWIDTH 990 0
DWIDTH 33 0
BBX 29 31 2 -3
BITMAP
01002000
01C03800
01E03C00
01E03C00
1FFFFFF0
3FFFFFE0
3FFFFFE0
7FFFFFC0
000F0000
000F0000
000F0000
000F0000
1FFFFFC0
1FFFFFC0
1FFFFFC0
1FFFFFC0
000F0000
000F0000
000F0000
000F0000
3FFFFFF8
7FFFFFF0
7FFFFFF0
FFFFFFE0
000F0000
000F0000
000F0000
000F0000
000F0000
000F0000
000F0000
ENDCHAR
STARTCHAR 2F7B
ENCODING 12155
SWIDTH 990 0
DWIDTH 33 0
BBX 27 31 3 -4
BITMAP
7FF9FFE0
FFF9FFE0
FFFBFFE0
FFFBFFE0
007801E0
007801E0
007801E0
007801E0
007801E0
FF7BFDE0
FF7BFDE0
FF7BFDE0
FF7BFDE0
007801E0
007801E0
007801E0
007801E0
07781DE0
3F78FDE0
FF7BFDE0
FF7BFDE0
FC7BF1E0
E07B81E0
007801E0
007801E0
007801E0
007801E0
0FF83FE0
0FF83FE0
07F81FE0
07F81FE0
ENDCHAR
STARTCHAR 2F7C
ENCODING 12156
SWIDTH 1020 0
DWIDTH 34 0
BBX 29 31 2 -2
BITMAP
00078000
00078000
00078000
1FFFFFE0
1FFFFFE0
1FFFFFE0
1FFFFFE0
00078000
00078780
00078780
00078780
3FFFFFF8
7FFFFFF8
7FFFFFF0
FFFFFFF0
0FE00000
0FE00000
1FE00000
1FE01FC0
1FEFFFC0
3FFFFFC0
3DFFFFC0
7DFFF000
7DF80000
79E00000
F9E00000
01E00000
01FFFFC0
01FFFFE0
01FFFFE0
01FFFFF0
ENDCHAR
STARTCHAR 2F7D
ENCODING 12157
SWIDTH 990 0
DWIDTH 33 0
BBX 27 29 3 -2
BITMAP
7FFFFFE0
7FFFFFE0
7FFFFFC0
FFFFFFC0
000F0000
001E0000
001E0000
7FFFFFC0
7FFFFFC0
7FFFFFC0
7FFFFFC0
78F1E3C0
78F1E3C0
78F1E3C0
78F1E3C0
78F1E3C0
78F1E3C0
78F1E3C0
78F1E3C0
78F1E3C0
78F1E3C0
78F1E3C0
78F1E3C0
78F1E3C0
78F1E3C0
78F1EFC0
78F1E7C0
78F1E7C0
78F1E7C0
ENDCHAR
STARTCHAR 2F7E
ENCODING 12158
SWIDTH 990 0
DWIDTH 33 0
BBX 29 32 2 -3
BITMAP
000F0000
000F0000
000F0000
3FFFFFF0
3FFFFFF0
7FFFFFE0
7FFFFFE0
000F0000
000F0000
000F0000
1FFFFFC0
1FFFFFC0
1FFFFFC0
1FFFFFC0
000F0000
000F0000
000F0000
3FFFFFF8
7FFFFFF0
7FFFFFF0
FFFFFFE0
000F0000
0F0F0780
1F0F07C0
1E0F07C0
1E0F03C0
1E0F03C0
3E0F03E0
3C0F03E0
3C0F01E0
3C0F01E0
7C0F01F0
ENDCHAR
STARTCHAR 2F7F
ENCODING 12159
SWIDTH 990 0
DWIDTH 33 0
BBX 28 31 3 -4
BITMAP
3FFFFFE0
7FFFFFE0
7FFFFFC0
FFFFFFC0
0F001E00
0F001E00
0F001E00
0FFFFE00
0FFFFE00
0FFFFE00
0FFFFE00
0F001E00
0F001E00
0F001E00
0FFFFE00
0FFFFE00
0FFFFE00
0FFFFE00
0F001E00
0F001E00
0F001E00
7FFFFFF0
FFFFFFE0
FFFFFFE0
FFFFFFC0
00001E00
00001E00
00001E00
00001E00
00001E00
00001E00
ENDCHAR
STARTCHAR 2F80
ENCODING 12160
SWIDTH 990 0
DWIDTH 33 0
BBX 27 31 3 -3
BITMAP
000F0000
000F0000
0FFFFF80
1FFFFF80
1FFFFF80
3FFFFF80
000F0780
7FFFFFE0
7FFFFFE0
FFFFFFC0
FFFFFFC0
000F0780
000F0780
0FFFFF80
1FFFFF80
1FFFFF80
3FFFFF80
000F0000
3FFFFF80
3FFFFF80
3FFFFF80
3FFFFF80
000F0000
000F0000
7FFFFFE0
7FFFFFE0
FFFFFFC0
FFFFFFC0
000F0000
000F0000
000F0000
ENDCHAR
STARTCHAR 2F81
ENCODING 12161
SWIDTH 990 0
DWIDTH 33 0
BBX 26 32 3 -3
BITMAP
001E0000
001E0000
001E0000
001E0000
FFFFFFC0
FFFFFFC0
FFFFFFC0
FFFFFFC0
F07C03C0
F07803C0
F0FBC3C0
F0F3E3C0
F1F1E3C0
F1E1F3C0
F3C0F3C0
F3C07BC0
F03E03C0
F03C03C0
F07C03C0
F07803C0
F0F803C0
F0F3C3C0
F1F3C3C0
F1E1E3C0
F1E1E3C0
F3C0F3C0
F3C0FBC0
F00003C0
F0003FC0
F0001FC0
F0000FC0
F0000FC0
ENDCHAR
STARTCHAR 2F82
ENCODING 12162
SWIDTH 990 0
DWIDTH 33 0
BBX 25 29 4 -2
BITMAP
FFFFFF80
FFFFFF80
FFFFFF80
FFFFFF80
F00F0000
F00F0000
F00F0000
F00F0000
FFFFFF00
FFFFFF00
FFFFFF00
FFFFFF00
F0000F00
F0000F00
F0000F00
F0000F00
FFFFFF00
FFFFFF00
FFFFFF00
FFFFFF00
F00F0000
F00F0000
F00F0000
F00F0000
F00F0000
FFFFFF80
FFFFFF80
FFFFFF80
FFFFFF80
ENDCHAR
STARTCHAR 2F83
ENCODING 12163
SWIDTH 990 0
DWIDTH 33 0
BBX 23 32 5 -3
BITMAP
007800
00F800
00F000
FFFFFE
FFFFFE
FFFFFE
FFFFFE
F0001E
F0001E
F0001E
F0001E
FFFFFE
FFFFFE
FFFFFE
FFFFFE
F0001E
F0001E
F0001E
F0001E
FFFFFE
FFFFFE
FFFFFE
FFFFFE
F0001E
F0001E
F0001E
F0001E
F0001E
F7FFFE
F3FFFE
F3FFFE
F1FFFE
ENDCHAR
STARTCHAR 2F84
ENCODING 12164
SWIDTH 990 0
DWIDTH 33 0
BBX 27 29 3 -2
BITMAP
7FFFFFE0
7FFFFFE0
FFFFFFC0
FFFFFFC0
07C00000
07800000
0F800C00
0F800F00
1F000F00
1FFFFF00
1FFFFF00
3FFFFF00
3FFFFF00
00000000
001E0000
001E0000
001E0000
3FFFFF80
3FFFFF80
3FFFFF80
3FFFFF80
001E0000
001E0000
001E0000
001E0000
7FFFFFE0
7FFFFFE0
FFFFFFC0
FFFFFFC0
ENDCHAR
STARTCHAR 2F85
ENCODING 12165
SWIDTH 1020 0
DWIDTH 34 0
BBX 26 29 4 -2
BITMAP
FFE1FFC0
FFE3FFC0
FFE3FFC0
FFE3FFC0
F00003C0
F00003C0
F00003C0
F00003C0
F00003C0
F00003C0
F00003C0
F00003C0
FFF3FFC0
FFF3FFC0
FFF3FFC0
FFF3FFC0
F00003C0
F00003C0
F00003C0
F00003C0
F00003C0
F00003C0
F00003C0
F00003C0
F00003C0
FFFFFFC0
FFFFFFC0
FFFFFFC0
FFFFFFC0
ENDCHAR
STARTCHAR 2F86
ENCODING 12166
SWIDTH 990 0
DWIDTH 33 0
BBX 27 31 3 -4
BITMAP
1FFFFFC0
3FFFFF80
3FFFFF80
7FFFFF00
001E0000
001E0000
001E0000
001E0000
FFFFFFE0
FFFFFFE0
FFFFFFE0
FFFFFFE0
001E0000
001E0000
001E0000
001E0000
001E0000
3FFFFF80
3FFFFF80
3FFFFF80
3FFFFF80
3C000780
3C000780
3C000780
3C000780
3C000780
3C000780
3DFFFF80
3CFFFF80
3CFFFF80
3CFFFF80
ENDCHAR
STARTCHAR 2F87
ENCODING 12167
SWIDTH 990 0
DWIDTH 33 0
BBX 29 31 2 -2
BITMAP
E0000F00
F0000F00
F0000F00
F003FFF8
FFF3FFF0
FFF3FFF0
FFF7FFF0
FFF00F00
F0F00F00
F0F00F00
F0F3CF00
00F3CF00
40F3CF00
70F3CF00
78F3CF00
78F3CF00
78F3CF00
78F3CF00
79F3FFF0
79E3FFF0
7BE3FFF0
03C3FFF0
07C00F00
07800F00
0F800F00
0F000F00
1F000F00
1E000F00
3E000F00
3C000F00
7C000F00
ENDCHAR
STARTCHAR 2F88
ENCODING 12168
SWIDTH 990 0
DWIDTH 33 0
BBX 29 31 2 -2
BITMAP
001E0000
001E0000
0FFFFFC0
0FFFFFC0
0FFFFFC0
0FFFFFC0
0F0007C0
0F0407C0
0F0787C0
0F0787C0
0F0787C0
0F0787C0
0F0787C0
0F0007C0
3FFFFFF8
7FFFFFF8
7FFFFFF0
FFFFFFF0
0F0007C0
0F0007C0
0F0607C0
0F0787C0
0F0787C0
0F0787C0
0F0787C0
0F0007C0
0F0007C0
0F00FFC0
0F007FC0
0F007FC0
0F003FC0
ENDCHAR
STARTCHAR 2F89
ENCODING 12169
SWIDTH 990 0
DWIDTH 33 0
BBX 25 30 4 -4
BITMAP
FFFFFF00
FFFFFF00
FFFFFF00
FFFFFF00
F0000F00
F0000F00
F0000F00
FFFFFF00
FFFFFF00
FFFFFF00
FFFFFF00
F0000F00
F0000F00
F0000F00
FFFFFF00
FFFFFF00
F7FFFF00
F7FFFF00
F007C000
F003E000
F003FF80
F001FF80
F001FF00
F000FF00
F000F800
F0007C00
FFC07C00
FFC03E00
FFE03E00
FFF01F00
ENDCHAR
STARTCHAR 2F8A
ENCODING 12170
SWIDTH 990 0
DWIDTH 33 0
BBX 25 31 4 -2
BITMAP
3E000000
3C000000
3FFFF800
7FFFF800
7FFFF000
7FFFF000
F800F000
F001E000
0001E000
FFFFFE00
FFFFFE00
FFFFFE00
FFFFFE00
F03C1E00
F03C1E00
F03C1E00
F03C1E00
F03C1E00
FFFFFE00
FFFFFE00
F7FFFE00
F3FFFE00
F0000000
F0000000
F0000000
F0000000
F0000000
FFFFFF00
FFFFFF80
FFFFFF80
FFFFFF80
ENDCHAR
STARTCHAR 2F8C
ENCODING 12172
SWIDTH 990 0
DWIDTH 33 0
BBX 26 32 3 -3
BITMAP
001E0000
001E0000
001FFFC0
001FFFC0
001FFF80
001FFF80
001E0000
001E0000
001E0000
FFFFFFC0
FFFFFFC0
FFFFFFC0
FFFFFFC0
F00003C0
F01E03C0
F01E03C0
F01E0000
F01E0000
F01E0000
F3FFFFC0
F3FFFFC0
F3FFFFC0
F3FFFFC0
F01E0000
F01E0000
F01E0000
F01E0000
F01E0000
F01FFF80
F01FFF80
F01FFFC0
F01FFFC0
ENDCHAR
STARTCHAR 2F8D
ENCODING 12173
SWIDTH 1020 0
DWIDTH 34 0
BBX 26 31 4 -1
BITMAP
001E0000
001E0000
001E0000
001E0000
001E0000
7FFFFF80
7FFFFF80
7FFFFF80
7FFFFF80
781E0780
781E0780
781E0780
781E0780
781E0780
781E0780
781E0780
7BFFFF80
79FFFF80
79FFFF80
78FFFF80
001E0000
001E0000
001E0200
001E0380
001E03C0
001E03C0
001E03C0
7FFFFFC0
7FFFFFC0
FFFFFFC0
FFFFFFC0
ENDCHAR
STARTCHAR 2F8E
ENCODING 12174
SWIDTH 990 0
DWIDTH 33 0
BBX 29 32 2 -3
BITMAP
001E0000
003E0000
003C0000
003C0000
1FFFFFC0
1FFFFFC0
1FFFFFC0
1FFFFFC0
1E38E3C0
1E38E3C0
1E38E3C0
1E38E3C0
1E38E3C0
1E38E3C0
1E38E3C0
1E38E3C0
1E38E3C0
1E38E3C0
1E38E3C0
1E38E3C0
1E38E3C0
1E38E3C0
1E38E3C0
1E38E3C0
1E38E3C0
1E38E3C0
1E38E3C0
1E38E3C0
7FFFFFF8
7FFFFFF0
FFFFFFF0
FFFFFFE0
ENDCHAR
STARTCHAR 2F8F
ENCODING 12175
SWIDTH 1020 0
DWIDTH 34 0
BBX 28 31 3 -2
BITMAP
0F000000
1F1FFFE0
3E1FFFE0
3E1FFFE0
7C1FFFE0
7C000000
F8000000
FF800000
1F000000
3F000000
3E3FFFF0
7E3FFFF0
7C3FFFF0
7C7FFFE0
F8000F00
FE000F00
1E000F00
1E000F00
1E000F00
1E000F00
1E000F00
1E000F00
1E000F00
1E000F00
1E000F00
1E000F00
1E000F00
1E01FF00
1E00FF00
1E00FF00
1E007F00
ENDCHAR
STARTCHAR 2F90
ENCODING 12176
SWIDTH 1020 0
DWIDTH 34 0
BBX 28 31 3 -2
BITMAP
000E0000
000F0000
000F0000
3FFFFFF0
7FFFFFE0
7FFFFFE0
FFFFFFE0
01F00000
01E00000
03C1E000
07C1F000
0780F000
0F80F800
0F00F800
1FC07FE0
1FC07FE0
3FC03FC0
3FC03FC0
7FC03E00
7BC01E00
FBC01F00
F3C00F00
03C00F80
03C00F80
03C00780
03C007C0
03C003C0
03FE03E0
03FF03E0
03FF01F0
03FF81F0
ENDCHAR
STARTCHAR 2F93
ENCODING 12179
SWIDTH 960 0
DWIDTH 32 0
BBX 24 32 4 -3
BITMAP
3C0000
3C0000
7FFFFC
7FFFFC
7FFFF8
FFFFF8
F000F0
0000F0
FFFFFF
FFFFFF
FFFFFF
FFFFFF
F03C0F
F03C0F
F03C0F
FFFFFF
FFFFFF
FFFFFF
FFFFFF
F03C0F
F03C0F
FFFFFF
FFFFFF
FFFFFF
FFFFFF
F03C0F
F03C0F
F03C0F
F03CFF
F03C7F
F03C7F
F03C3F
ENDCHAR
STARTCHAR 2F94
ENCODING 12180
SWIDTH 1020 0
DWIDTH 34 0
BBX 28 31 3 -2
BITMAP
000E0000
000F0000
7FFFFFF0
7FFFFFE0
FFFFFFE0
FFFFFFE0
00000000
00000000
1FFFFF80
1FFFFF80
1FFFFF80
1FFFFF80
00000000
1FFFFF80
1FFFFF80
1FFFFF80
1FFFFF80
00000000
00000000
1FFFFF80
1FFFFF80
1FFFFF80
1FFFFF80
1E000F80
1E000F80
1E000F80
1E000F80
1EFFFF80
1E7FFF80
1E7FFF80
1E3FFF80
ENDCHAR
STARTCHAR 2F95
ENCODING 12181
SWIDTH 990 0
DWIDTH 33 0
BBX 29 31 2 -3
BITMAP
07C01F00
0F800F80
0F800F80
1F0007C0
1F0007C0
3E0003E0
3E0003E0
00000000
0FFFFF00
0FFFFF80
1FFFFF80
1FFFFFC0
3E0007C0
3E0003E0
3E0001E0
7C0001F0
7C0000F0
F80000F8
1FFFFFC0
1FFFFFC0
1FFFFFC0
1FFFFFC0
1E0003C0
1E0003C0
1E0003C0
1E0003C0
1E0003C0
1FFFFFC0
1EFFFFC0
1EFFFFC0
1E7FFFC0
ENDCHAR
STARTCHAR 2F96
ENCODING 12182
SWIDTH 1020 0
DWIDTH 34 0
BBX 28 30 3 -4
BITMAP
3FFFFFF0
7FFFFFE0
7FFFFFE0
FFFFFFC0
00000000
00000000
00000000
1FFFFF80
1FFFFF80
1FFFFF80
1FFFFF80
1E000780
1E000780
1E000780
1E000780
1FFFFF80
1FFFFF80
1EFFFF80
1EFFFF80
00000000
00000000
07001C00
07801E00
07801E00
07801E00
07801E00
7FFFFFF0
7FFFFFF0
FFFFFFE0
FFFFFFE0
ENDCHAR
STARTCHAR 2F97
ENCODING 12183
SWIDTH 1020 0
DWIDTH 34 0
BBX 28 30 3 -4
BITMAP
7FFFFFF0
7FFFFFF0
7FFFFFE0
FFFFFFE0
003E0000
00FF0000
03FF03C0
0FFF07C0
3FEF07C0
7F8F8780
7E0F8780
7C1F8F80
707F8F80
41FF8F00
07FF9F00
1FF79F00
3FC78F00
7F878F00
7E078F80
781F8780
607F8780
01FF87C0
07FF87C0
1FF783C0
7FC783C0
7F0783E0
7C0783E0
700781E0
40070000
00040000
ENDCHAR
STARTCHAR 2F98
ENCODING 12184
SWIDTH 990 0
DWIDTH 33 0
BBX 23 31 5 -2
BITMAP
0003FC
03FFFC
FFFFFC
FFFFFC
FFFF80
FE01E0
0F01E0
0F01FE
0F1FFE
1FFFFE
FFFFFE
FFFFF0
FFF3C0
F003C0
003FC0
3FFFC0
FFFFC0
FFFFC0
FFE3C0
F003C0
003FC0
1FFFC0
FFFFC0
FFFFC0
FFF3C0
F003C0
0003C0
03FFC0
01FFC0
00FFC0
00FFC0
ENDCHAR
STARTCHAR 2F9A
ENCODING 12186
SWIDTH 1020 0
DWIDTH 34 0
BBX 28 32 3 -3
BITMAP
000F0000
000F0000
000F0000
000F0000
3FFFFFC0
3FFFFFC0
3FFFFFC0
3FFFFFC0
000F0000
000F0000
000F0000
000F0000
7FFFFFF0
7FFFFFF0
FFFFFFE0
FFFFFFE0
01F07800
01F07800
01E07800
3DE07BC0
3DE07BC0
7BE079E0
7BE079E0
7BE079E0
7BC079E0
F3C078F0
F3C078F0
F7C078F0
F7CFF8F0
07C7F800
0787F800
0783F800
ENDCHAR
STARTCHAR 2F9B
ENCODING 12187
SWIDTH 990 0
DWIDTH 33 0
BBX 27 31 3 -2
BITMAP
001E0000
001E0000
001E0000
3FFFFF80
3FFFFF80
3FFFFF80
3FFFFF80
001E0000
001E0000
001E0000
001E0000
7FFFFFE0
7FFFFFE0
FFFFFFC0
FFFFFFC0
00000000
000F0000
1E0F0000
3E0F0000
3C0FFF80
3C0FFF80
3C0FFF80
3C0FFF80
7C0F0000
7C0F0000
7F0F0000
7F8F0000
FFFFFFE0
F7FFFFE0
F3FFFFC0
F0FFFFC0
ENDCHAR
STARTCHAR 2F9C
ENCODING 12188
SWIDTH 990 0
DWIDTH 33 0
BBX 28 30 2 -4
BITMAP
1FFFFF80
1FFFFF80
1FFFFF80
1FFFFF80
1E000780
1E000780
1E000780
1E000780
1E000780
1EFFFF80
1E7FFF80
1E7FFF80
1E3FFF80
00078000
00078000
0F078000
1F078000
1F07FFC0
1F07FF80
1E07FF80
1E07FF80
3E078000
3E078000
3F078000
3F878000
7FC78000
7FFFFFF0
7BFFFFE0
79FFFFE0
F8FFFFE0
ENDCHAR
STARTCHAR 2F9D
ENCODING 12189
SWIDTH 990 0
DWIDTH 33 0
BBX 29 32 2 -3
BITMAP
000F0000
000F0000
0FFFFF80
0FFFFF80
0FFFFF80
0FFFFF80
0F000780
0F000780
0FFFFF80
0FFFFF80
0FFFFF80
0FFFFF80
0F000780
0FFFFF80
0FFFFF80
0FFFFF80
0FFFFF88
0F0007B8
0F0007F8
3FFFFFF8
7FFFFFF8
7FFFFFE0
FFFFFF80
001FFF80
007FE780
03FF8780
0FFC0780
7FF00780
FF80FF80
FE00FF80
F0007F80
C0007F80
ENDCHAR
STARTCHAR 2F9E
ENCODING 12190
SWIDTH 990 0
DWIDTH 33 0
BBX 28 31 2 -3
BITMAP
000F0000
000F0000
3FFFFFF0
3FFFFFE0
7FFFFFE0
7FFFFFC0
000F0000
1FFFFF80
1FFFFF80
1FFFFF80
1FFFFF80
1E0F0780
1FFFFF80
1FFFFF80
1FFFFF80
1FFFFF80
1E0F0780
1E0F0780
1EFFFF80
1E7FFF80
1E7FFF80
1E3FFF80
000F0000
3FFFFFF0
7FFFFFF0
7FFFFFE0
FFFFFFE0
000F0000
000F0000
000F0000
000F0000
ENDCHAR
STARTCHAR 2F9F
ENCODING 12191
SWIDTH 960 0
DWIDTH 32 0
BBX 28 31 2 -2
BITMAP
000C0000
000F0000
000F0000
3FFFFFC0
3FFFFFC0
3FFFFFC0
3FFFFFC0
00000000
00000000
03003000
03C03C00
03C03C00
03C03C00
3FFFFFF0
7FFFFFE0
7FFFFFE0
FFFFFFC0
000F0000
000F0000
000F0000
000F0000
1FFFFFC0
1FFFFFC0
3FFFFF80
3FFFFF80
000F0000
000F0000
000F0000
000F0000
000F0000
000F0000
ENDCHAR
STARTCHAR 2FA0
ENCODING 12192
SWIDTH 1020 0
DWIDTH 34 0
BBX 27 30 3 -4
BITMAP
FFFFFFE0
FFFFFFC0
FFFFFFC0
FFFFFF80
F0000000
F0000000
F0000000
F1FFFF80
F1FFFF80
F1FFFF80
F1FFFF80
F0000000
F0000000
F1FFFFE0
F3FFFFE0
F3FFFFC0
F7FFFFC0
F0F00000
F0F00000
F0F07C00
F0F03C00
F0F03FE0
F0F03FC0
F0F01FC0
F0F01FC0
F0F00F00
F0FF0F80
F0FF8F80
F0FFC780
F0FFC7C0
ENDCHAR
STARTCHAR 2FA2
ENCODING 12194
SWIDTH 990 0
DWIDTH 33 0
BBX 26 31 3 -4
BITMAP
7FFFFE00
7FFFFE00
7FFFFE00
7FFFFE00
78001E00
78001E00
7BFFFE00
79FFFE00
79FFFE00
78FFFE00
00000000
00000000
FFFFFF00
FFFFFF00
FFFFFF00
FFFFFF00
F03C0F00
F03C0F00
F03C0F00
F03C0F00
FFFFFF00
FFFFFF00
FFFFFF00
FFFFFF00
F0000000
F0000000
F0000000
FFFFFF80
FFFFFF80
FFFFFFC0
FFFFFFC0
ENDCHAR
STARTCHAR 2FA3
ENCODING 12195
SWIDTH 990 0
DWIDTH 33 0
BBX 28 31 3 -4
BITMAP
7FFFFFF0
7FFFFFE0
FFFFFFE0
FFFFFFC0
0079E000
0079E000
0079E000
7FFFFFC0
7FFFFFC0
7FFFFFC0
7FFFFFC0
78F9E3C0
78F1E3C0
78F1E3C0
79F1E3C0
79F1FFC0
79E1FFC0
79E1FFC0
7BE1FFC0
780003C0
780003C0
7FFFFFC0
7FFFFFC0
7FFFFFC0
7FFFFFC0
780003C0
780003C0
7BFFFFC0
79FFFFC0
79FFFFC0
78FFFFC0
ENDCHAR
STARTCHAR 2FA5
ENCODING 12197
SWIDTH 1020 0
DWIDTH 34 0
BBX 28 29 3 -2
BITMAP
1FFFFF80
1FFFFF80
1FFFFF80
1FFFFF80
1E0F0780
1FFFFF80
1FFFFF80
1FFFFF80
1FFFFF80
1E0F0780
1E0F0780
1E0F0780
1FFFFF80
1EFFFF80
1EFFFF80
1E7FFF80
000F0000
000F0000
3FFFFFC0
3FFFFFC0
3FFFFFC0
3FFFFFC0
000F0000
000F0000
000F0000
7FFFFFF0
7FFFFFF0
FFFFFFE0
FFFFFFE0
ENDCHAR
STARTCHAR 2FA6
ENCODING 12198
SWIDTH 1020 0
DWIDTH 34 0
BBX 28 30 3 -4
BITMAP
0FFFFF00
0FFFFF00
1FFFFF80
1FFFFF80
1E000780
3E0007C0
3C0003C0
3DFFFBC0
7DFFFBE0
79FFF9E0
79FFF9E0
000F0000
000F0000
000F0000
000F0000
3FFFFFC0
3FFFFFC0
3FFFFFC0
3FFFFFC0
000F0000
000F0000
0C0F0C00
0F0F0F00
0F0F0F00
0F0F0F00
0F0F0F00
7FFFFFF0
7FFFFFF0
7FFFFFE0
FFFFFFE0
ENDCHAR
STARTCHAR 2FA9
ENCODING 12201
SWIDTH 990 0
DWIDTH 33 0
BBX 28 32 2 -4
BITMAP
001E0000
003E0000
1FFFFF80
1FFFFF80
1FFFFF80
1FFFFF80
1E000780
1FFFFF80
1FFFFF80
1FFFFF80
1FFFFF80
1E000000
1FFFFFC0
1FFFFFC0
1FFFFFC0
1FFFFFC0
1E0003C0
1FFFFFC0
1FFFFFC0
1FFFFFC0
1FFFFFC0
000F0000
000F0000
3FFFFFF0
7FFFFFF0
7FFFFFE0
FFFFFFE0
000F0000
000F0000
000F0000
000F0000
000F0000
ENDCHAR
STARTCHAR 2FAA
ENCODING 12202
SWIDTH 990 0
DWIDTH 33 0
BBX 28 32 2 -3
BITMAP
000F0000
000F0000
000F0000
0FFFFF80
1FFFFF80
1FFFFF80
3FFFFF80
000F0780
000F0780
3FFFFFF0
7FFFFFF0
7FFFFFE0
FFFFFFE0
000F0780
1FFFFF80
1FFFFF80
1FFFFF80
3FFFFF80
000F0000
200F0040
3FCF3FC0
3FCF3FC0
3FCF3FC0
3FCF3FC0
000F0000
00CF3000
3FCF3FC0
3FCF3FC0
3FDF3FC0
3FDF3FC0
001F0000
001F0000
ENDCHAR
STARTCHAR 2FAB
ENCODING 12203
SWIDTH 1020 0
DWIDTH 34 0
BBX 28 31 3 -3
BITMAP
0F008000
0E00F000
1E00F000
1E00F000
1EFFFFF0
3CFFFFE0
3CFFFFE0
3DFFFFE0
7800F000
7800F000
7C00F000
FCFFFFE0
FCFFFFE0
3CFFFFE0
3CFFFFE0
3C00F000
3C00F000
3C00F000
3C00F000
3CFFFFE0
3CFFFFE0
3CFFFFE0
3CFFFFE0
3C00F000
3C00F000
3C00F000
3C00F000
3CFFFFF0
3CFFFFE0
3CFFFFE0
3DFFFFE0
ENDCHAR
STARTCHAR 2FAC
ENCODING 12204
SWIDTH 990 0
DWIDTH 33 0
BBX 28 31 2 -5
BITMAP
7FFFFFF0
7FFFFFF0
FFFFFFF0
FFFFFFE0
000F0000
000F0000
000F0000
7FFFFFE0
7FFFFFE0
7FFFFFE0
7FFFFFE0
780F01E0
790F21E0
79CF39E0
79EF3DE0
79EF3DE0
79EF3DE0
79EF3DE0
780F01E0
780F01E0
79CF39E0
79EF3DE0
79EF3DE0
79EF3DE0
79EF3DE0
780F01E0
780F01E0
780F1FE0
780F0FE0
780F07E0
780F07E0
ENDCHAR
STARTCHAR 2FAE
ENCODING 12206
SWIDTH 1020 0
DWIDTH 34 0
BBX 28 32 3 -3
BITMAP
00F0F000
00F0F000
00F0F000
00F0F000
00F0F000
3FF0FFE0
7FF0FFE0
7FF0FFE0
7FF0FFC0
00F0F000
00F0F000
00F0F000
00F0F000
00F0F000
3FF0FFC0
3FF0FFC0
3FF0FFC0
3FF0FFC0
00F0F000
00F0F000
00F0F000
00F0F000
7FF0FFF0
7FF0FFF0
7FF0FFE0
FFF0FFE0
00F0F000
00F0F000
00F0F000
00F0F000
00F0F000
00F0F000
ENDCHAR
STARTCHAR 2FAF
ENCODING 12207
SWIDTH 990 0
DWIDTH 33 0
BBX 27 29 3 -2
BITMAP
7FFFFFE0
7FFFFFE0
FFFFFFC0
FFFFFFC0
001F0000
001E0000
7FFFFFC0
7FFFFFC0
7FFFFFC0
7FFFFFC0
78F1E3C0
78F1E3C0
78FFE3C0
78FFE3C0
78FFE3C0
78FFE3C0
78F1E3C0
78F1E3C0
78FFE3C0
78FFE3C0
78FFE3C0
78FFE3C0
78F1E3C0
78F1E3C0
78F1E3C0
7BFFFFC0
79FFFFC0
79FFFFC0
78FFFFC0
ENDCHAR
STARTCHAR 2FB0
ENCODING 12208
SWIDTH 1020 0
DWIDTH 34 0
BBX 28 31 3 -3
BITMAP
03C03C00
7FFFFFF0
7FFFFFF0
FFFFFFE0
FFFFFFE0
03C03C00
03C03C00
03FFFC00
03FFFC00
03FFFC00
03FFFC00
000F0000
1FFFFF80
1FFFFF80
1FFFFF80
1FFFFF80
1E0F0780
1E0F0780
1EFFFF80
1E7FFF80
1E7FFF80
1E3FFF80
000F0000
000F0000
3FFFFFF0
3FFFFFE0
7FFFFFE0
7FFFFFC0
000F0000
000F0000
000F0000
ENDCHAR
STARTCHAR 2FB2
ENCODING 12210
SWIDTH 1020 0
DWIDTH 34 0
BBX 28 31 3 -2
BITMAP
00F0F000
00F0F000
00F0F000
00F0F000
3FF0FFE0
7FF0FFE0
7FF0FFE0
FFF0FFC0
00F0F000
00F0F000
00F0F000
00F0F000
3FF0FFC0
3FF0FFC0
3FF0FFC0
3FF0FFC0
00F0F000
00F0F000
00F0F000
7FF0FFF0
7FF0FFF0
FFF0FFE0
FFF0FFE0
00F0F000
00F0F000
00F0F000
00F0F000
7FFFFFF0
7FFFFFF0
FFFFFFE0
FFFFFFE0
ENDCHAR
STARTCHAR 2FB3
ENCODING 12211
SWIDTH 990 0
DWIDTH 33 0
BBX 29 31 2 -3
BITMAP
000C0000
000F0000
1FFFFFC0
1FFFFFC0
1FFFFFC0
1FFFFFC0
00000000
01802000
01E03C00
01E03C00
3FFFFFF8
7FFFFFF0
7FFFFFF0
FFFFFFE0
00000000
00000000
0FFFFF80
0FFFFF80
0FFFFF80
0FFFFF80
0F000780
0F000780
0FFFFF80
0FFFFF80
0FFFFF80
0FFFFF80
0F000780
0F7FFF80
0F3FFF80
0F3FFF80
0F1FFF80
ENDCHAR
STARTCHAR 2FB5
ENCODING 12213
SWIDTH 990 0
DWIDTH 33 0
BBX 29 31 2 -4
BITMAP
3FFFFFC0
3FFFFFC0
3FFFFFC0
3FFFFFC0
3C0003C0
3DFFFFC0
3DFFFBC0
3DFFFBC0
3DFFFBC0
3C0F03C0
3C0F03C0
3DFFFBC0
3DFFFBC0
3DFFFBC0
3DFFFBC0
3DE77BC0
3DE77BC0
3DFFFBC0
3DFFFBC0
3DFFFBC0
3DFFFBC0
3C0F03C0
7C0F33C0
7C0F3FC0
79FFFFC0
79FFFFC0
79FFFFC0
7BFFFFF0
780003F0
F80003F8
F80003F8
ENDCHAR
STARTCHAR 2FB6
ENCODING 12214
SWIDTH 990 0
DWIDTH 33 0
BBX 29 31 2 -2
BITMAP
7FFFF180
7FFFF1E0
7FFFF1E0
FFFFF1E0
0000F000
0000F100
3FBCF1E0
7FBCF1E0
7FBCF1E0
7FBCF1E0
1E3CF000
1E3CFFE0
1E3CFFF0
1E3CFFF0
1E3CFFF8
1E3C0000
7FFFF100
7FFFF1E0
7FFFF1E0
FFFFF1E0
1E3CF000
3E3CF100
3E3CF1E0
3C3CF1E0
3C3CF1E0
3C3CF1E0
7C3CF000
7C3CFFE0
783CFFF0
783CFFF0
783CFFF8
ENDCHAR
STARTCHAR 2FB7
ENCODING 12215
SWIDTH 1020 0
DWIDTH 34 0
BBX 28 30 3 -4
BITMAP
07FFFE00
0FFFFF00
0FFFFF00
0FFFFF80
1F000F80
1E0E0780
3E0F07C0
3FFFFFC0
7FFFFFE0
7FFFFFE0
FFFFFFF0
0F000F00
0F000F00
0FFFFF00
0FFFFF00
0FFFFF00
0F000F00
0F000F00
0F7FFF00
0F7FFF00
0F3FFF00
0F3FFF00
0F00F000
0F00FFC0
0F007FC0
0F003F80
0FF83F80
0FFC1E00
0FFC1F00
0FFE0F00
ENDCHAR
STARTCHAR 2FB8
ENCODING 12216
SWIDTH 1020 0
DWIDTH 34 0
BBX 29 31 2 -2
BITMAP
01C03800
01F03C00
01F03C00
7FFFFFF8
7FFFFFF8
7FFFFFF0
FFFFFFF0
000F8000
000F0000
1FFFFFC0
1FFFFFC0
1FFFFFC0
1FFFFFC0
1E0003C0
1E0003C0
1FFFFFC0
1FFFFFC0
1FFFFFC0
1FFFFFC0
1E0003C0
1E0003C0
1FFFFFC0
1FFFFFC0
1FFFFFC0
1FFFFFC0
1E0003C0
1E0003C0
1EFFFFC0
1E7FFFC0
1E7FFFC0
1E3FFFC0
ENDCHAR
STARTCHAR 2FB9
ENCODING 12217
SWIDTH 990 0
DWIDTH 33 0
BBX 27 30 3 -4
BITMAP
07FFFF80
0FFFFF00
0FFFFF00
1FFFFE00
000F0000
000F0000
7FFFFFE0
7FFFFFE0
7FFFFFE0
FFFFFFC0
1F0F0F00
1E0F0F80
3E0F0780
3C0F07C0
3C0F03C0
00000000
1FFFFF80
1FFFFF80
1FFFFF80
1FFFFF80
1E000F80
1E000F80
1FFFFF80
1FFFFF80
1FFFFF80
1E000F80
1FFFFF80
1FFFFF80
1EFFFF80
1EFFFF80
ENDCHAR
STARTCHAR 2FBB
ENCODING 12219
SWIDTH 990 0
DWIDTH 33 0
BBX 27 31 3 -2
BITMAP
1FFFFF00
1FFFFF00
1FFFFF00
1FFFFF00
1E000F00
1FFF0F00
1FFF0F00
1FFF0F00
1E0F0F00
FFFFFFE0
FFFFFFE0
FFFFFFE0
FFFFFFE0
F00001E0
FFFFFFE0
1FFFFF00
1FFFFF00
1FFFFF00
1E000F00
1FFFFF00
1FFFFF00
1FFFFF00
1E000F00
1FFFFF00
1FFFFF00
1FFFFF00
1E000F00
1E01FF00
1E00FF00
1E00FF00
1E007F00
ENDCHAR
STARTCHAR 2FBC
ENCODING 12220
SWIDTH 990 0
DWIDTH 33 0
BBX 28 32 2 -4
BITMAP
00080000
000F0000
7FFFFFF0
7FFFFFF0
7FFFFFE0
FFFFFFE0
00000000
07FFFF00
07FFFF00
07FFFF00
07FFFF00
07800F00
07FFFF00
07FFFF00
07FFFF00
07BFFF00
00000000
3FFFFFC0
3FFFFFC0
3FFFFFC0
3FFFFFC0
3C0003C0
3CFFF3C0
3CFFF3C0
3CFFF3C0
3CFFF3C0
3CF0F3C0
3CFFF3C0
3CFFF7C0
3CF7F7C0
3CF3F7C0
3C0007C0
ENDCHAR
STARTCHAR 2FBD
ENCODING 12221
SWIDTH 990 0
DWIDTH 33 0
BBX 29 31 2 -2
BITMAP
3FFF0038
3FFF00F8
3FFE03F8
3FFE0FF8
3C007FF0
3C007FC0
3FFE7F00
3FFE7800
3FFE6000
3FFC0000
3C000000
3C000038
3FFE00F8
3FFE03F8
3FFE0FF8
3FFC7FF0
3C007FC0
3C007E00
7FFF7800
7FFF6000
7FFF0000
FFFE0008
3E000078
3E1001F8
3E1C07F8
3C1E1FF8
3C1E7FE0
3FFE7F80
3FFE7C00
7FFE7000
7FFE4000
ENDCHAR
STARTCHAR 2FBE
ENCODING 12222
SWIDTH 990 0
DWIDTH 33 0
BBX 27 31 3 -2
BITMAP
F3FDFDE0
F3F9FDE0
F7F9FDE0
F7FBFDE0
F1E0F1E0
F1E0F1E0
F3F9FDE0
F3F9FDE0
F3F9FDE0
F1E0F1E0
F1E0F1E0
F3FDFFE0
F3FDFDE0
F7FBFDE0
F7FBFDE0
F00001E0
F00001E0
F00001E0
F00001E0
F00001E0
F00001E0
F00001E0
F00001E0
F00001E0
F00001E0
F00001E0
F00001E0
F0001FE0
F0001FE0
F0001FE0
F0000FE0
ENDCHAR
STARTCHAR 2FBF
ENCODING 12223
SWIDTH 1020 0
DWIDTH 34 0
BBX 27 31 3 -2
BITMAP
020E0800
038F3800
F3EF79E0
F3F1F9E0
F1FFF1E0
F77FF9E0
F73FB9E0
F7FFF9E0
F3FBF9E0
F7E0F9E0
F7CE79E0
F70F19E0
F40F09E0
F00001E0
FFFFFFE0
FFFFFFE0
FFFFFFE0
FFFFFFE0
F0000000
F0000000
F3FFFFC0
F3FFFFC0
F3FFFFC0
F3FFFFC0
F0000000
F0000000
F0000000
FFFFFFC0
FFFFFFC0
FFFFFFE0
FFFFFFE0
ENDCHAR
STARTCHAR 2FC0
ENCODING 12224
SWIDTH 990 0
DWIDTH 33 0
BBX 28 31 2 -4
BITMAP
7FFFFFF0
7FFFFFF0
7FFFFFE0
FFFFFFE0
00000000
0FFFFF00
0FFFFF00
0FFFFF00
0FFFFF00
0F000F00
0FFFFF00
0FFFFF00
0F7FFF00
0F3FFF00
00000000
00000000
7FFFFFE0
7FFFFFE0
7FFFFFE0
7FFFFFE0
780001E0
7871C1E0
7879E1E0
79FFFDE0
79FFFDE0
79FFF9E0
79FFF9E0
780F01E0
780F0FE0
780F07E0
780F07E0
ENDCHAR
STARTCHAR 2FC1
ENCODING 12225
SWIDTH 1020 0
DWIDTH 34 0
BBX 28 31 3 -2
BITMAP
00780000
00F80000
3FFFFF80
3FFFFF80
3FFFFF80
3FFFFF80
3C1E0780
3C1E0780
3FFFFF80
3FFFFF80
3FFFFF80
3FFFFF80
3C1E0780
3C1E0780
3C1E0780
3FFFFF80
3FFFFF80
3FFFFF80
3FFFFF80
007C0000
00F80E00
01F3CEC0
03F3DEE0
03E3DFE0
07C3DFE0
0F83DFE0
1F83C000
1F03FFE0
3E03FFE0
7C03FFF0
F803FFF0
ENDCHAR
STARTCHAR 2FC5
ENCODING 12229
SWIDTH 990 0
DWIDTH 33 0
BBX 27 32 3 -3
BITMAP
00180000
001E0000
FFFFFFE0
FFFFFFE0
FFFFFFC0
FFFFFFC0
F1E1E000
F1E1E000
F1E1E000
FFFFFFC0
FFFFFFC0
FFFFFFC0
FFFFFFC0
F1E1E3C0
F1E1E3C0
FFFFFFC0
FFFFFFC0
FFFFFFC0
FFFFFFC0
F0000000
F3C0F000
F3C0F040
F3FEFFC0
F3FEFFC0
F3FEFFC0
F3FEFFC0
F3C0F000
F3C0F000
F3FCFFC0
F3FEFFC0
F3FEFFE0
F3FEFFE0
ENDCHAR
STARTCHAR 2FC6
ENCODING 12230
SWIDTH 1020 0
DWIDTH 34 0
BBX 28 32 3 -4
BITMAP
000F0000
7FFFFFF0
7FFFFFE0
7FFFFFE0
FFFFFFC0
000F0000
000F0000
1E0F1F00
3F8F1F80
7FCF3FC0
79EF79E0
000F0000
1F0F0F80
3E0F0FC0
7C0F07E0
F80F03F0
1E000000
1FFFFF80
3FFFFF80
3FFFFF80
3FFFFF80
7C000780
00000780
3F801F80
3FFDFF80
3FFFFF80
1FFFFF00
7FFFFFE0
FFFFFFF0
FFC03FF0
FC0003F0
80000010
ENDCHAR
STARTCHAR 2FC7
ENCODING 12231
SWIDTH 1020 0
DWIDTH 34 0
BBX 28 31 3 -2
BITMAP
00070000
00078000
FFFFFFF0
FFFFFFF0
FFFFFFE0
FFFFFFE0
F0000000
F0780F00
F0780F00
F0780F00
F7FF7FF0
F7FF7FF0
F7FF7FF0
F7FE7FE0
F0780F00
F77F6F70
F77F6F70
F77F6F70
F77F6F70
F77F6F70
F77F6F70
F77F6F70
F77F6F70
F77F6F70
F77F6F70
F77F6F70
F77F6F70
F77F6F70
F77F6F70
F77F6F70
F77F6F70
ENDCHAR
STARTCHAR 2FC9
ENCODING 12233
SWIDTH 990 0
DWIDTH 33 0
BBX 27 31 3 -3
BITMAP
1FFFFF80
1FFFFF80
1FFFFF00
3FFFFF00
000F0000
7FFFFFE0
7FFFFFE0
FFFFFFC0
FFFFFFC0
3E0F0F00
3C0F0780
3C0F0780
780F03C0
00000000
3FFFFF80
3FFFFF80
3FFFFF80
7FFFFFC0
780003C0
F80F03E0
F00F01E0
7F0F1FC0
7F0F1FC0
7F0F1FC0
7F0F1FC0
000F0000
7F0F1FC0
7F3F1FC0
7F3F1FC0
7F3F1FC0
001F0000
ENDCHAR
STARTCHAR 2FCA
ENCODING 12234
SWIDTH 990 0
DWIDTH 33 0
BBX 28 30 2 -4
BITMAP
1FFFFF80
1FFFFF80
1FFFFF80
1FFFFF80
1E0F0780
1E8F4780
1EEF7780
1EEF7780
1EEF7780
1FFFFF80
1FFFFF80
1FFFFF80
1EFFFF80
000F0000
000F0000
3FFFFFE0
3FFFFFE0
3FFFFFE0
3FFFFFE0
000F0000
3FFFFFF0
7FFFFFF0
7FFFFFF0
FFFFFFE0
00000000
60C08180
78F0F1E0
78F0F1E0
78F0F1E0
78F0F1E0
ENDCHAR
STARTCHAR 2FCB
ENCODING 12235
SWIDTH 990 0
DWIDTH 33 0
BBX 29 32 2 -3
BITMAP
0078F000
3878F180
3C78F1E0
3C78F1E0
3C78F1E0
3C78F1E0
0078F000
3FFFFFF8
7FFFFFF0
7FFFFFF0
FFFFFFE0
000F0000
040F0800
078F0F00
078F0F00
078F0F00
7FFFFFF0
7FFFFFF0
7FFFFFF0
7FFFFFF0
780F00F0
798F30F0
79EF3CF0
79EF3CF0
79EF3CF0
79EF3CF0
79EF3CF0
780F00F0
780F0FF0
780F0FF0
780F07F0
780F03F0
ENDCHAR
STARTCHAR 2FCD
ENCODING 12237
SWIDTH 990 0
DWIDTH 33 0
BBX 28 32 3 -3
BITMAP
01FFF800
01FFF800
01FFF800
01FFF800
01E07800
79FFF9E0
79FFF9E0
79FFF9E0
79FFF9E0
79FFF9E0
79FFF9E0
79E079E0
79FFF9E0
79FFF9E0
79EFF9E0
79E7F9E0
780001E0
7FF8FFE0
7FF8FFE0
7FF8FFE0
7FF8FFE0
0078F000
7FF8FFF0
7FF8FFF0
FFF8FFF0
FFF8FFF0
7C78F0F0
7878F0F0
7878F0F0
7878F0F0
7878F0F0
F878F0F0
ENDCHAR
STARTCHAR 2FCE
ENCODING 12238
SWIDTH 1020 0
DWIDTH 34 0
BBX 29 31 2 -2
BITMAP
03C00F00
7FFE0F00
7FFEFFF8
7FFDFFF8
FFFDFFF8
03C1FFF0
03C00F00
7FFC0F00
7FFC0F00
7FFCFFF0
7FFCFFF0
0000FFF0
7FF9FFF0
7FF800F0
7FF8F0F0
7FF8F0F0
7878F0F0
7FF8F0F0
7FF8F0F0
7BF8F9F0
7BF8FFF0
00007FE0
18603FC0
1E781FC0
1E781F80
1E781F80
00003FC0
7FFE7FE0
7FFE7FF0
FFFCF9F0
FFFDF0F8
ENDCHAR
STARTCHAR 2FCF
ENCODING 12239
SWIDTH 990 0
DWIDTH 33 0
BBX 27 30 3 -4
BITMAP
FFF3FF00
FFE7FF00
FFE7FF00
FFE7FF00
F0000F00
FFE7FF00
FFE7FF00
FFE7FF00
FFE7FF00
F0000F00
F0000F00
FFFFFF00
FFFFFF00
FFFFFF00
FFFFFF00
F03C0F00
F03C0F00
FFBFCF00
FFBFCF00
FFBFCF00
F03C0F00
FFBFCF00
FFBFCF00
FFBFCF00
FFBFCF00
F03C0F00
FF3F8FC0
FF3FCFC0
FFBFCFE0
FFBFEFE0
ENDCHAR
STARTCHAR 2FD0
ENCODING 12240
SWIDTH 990 0
DWIDTH 33 0
BBX 27 32 3 -4
BITMAP
00780000
1FFFFF00
1FFFFF00
1FFFFF00
1FFFFF00
1FFFFF00
1E000F00
1FFFFF00
1FFFFF00
1E000F00
1FFFFF00
1FFFFF00
1EFFFF00
3FFFFF80
3FFFFF80
3FFFFF80
3C0F0780
3FFFFF80
3FFFFF80
3C0F0780
3FFFFF80
3DFFFF80
3DFFFF80
00000000
7FFFFFE0
7FFFFFE0
FFFFFFC0
FFFFFFC0
0F003C00
1F003C00
1E003C00
3E003C00
ENDCHAR
STARTCHAR 2FD3
ENCODING 12243
SWIDTH 990 0
DWIDTH 33 0
BBX 29 31 2 -2
BITMAP
03C0F000
7FFCFFF8
7FFCFFF0
7FFCFFF0
7FFCFFF0
3870F000
3C78F000
3C78FFF0
7FFEFFF0
FFFEFFF0
FFFEFFF0
FFFE00F0
000000F0
7FFCFFF0
7FFCFFF0
7FFCFFF0
7FFCFFF0
783CFFF0
7FFCFFF0
7FFCFFF0
7FFCF000
783CFFF0
783CFFF0
7FFCFFE0
7FFCFFF0
7FFCFFF0
783CFFE0
78FCFFF0
78FCFFF0
787CFFF0
787CFFF8
ENDCHAR
STARTCHAR 2FD5
ENCODING 12245
SWIDTH 990 0
DWIDTH 33 0
BBX 29 31 2 -4
BITMAP
1FFFFFC0
1FFFFFE0
3FFFFFE0
3FFFFFE0
7C0001F0
7DFFFDF0
7DFFFCF0
F9FFFCF8
00000000
7FFFEFF0
7FFFEFF0
7FFFEFF0
7BFCEE70
7FFFEFF0
7FFFEFF0
7FFFEEF0
00000000
7FFFFFF0
7FFFFFF0
7FFFFFF0
7FFFFFF0
7878F0F0
7878F0F0
7FFFFFF0
7FFFFFF0
7FFFFFF0
7878F0F0
7878F0F0
7878F7F0
7878F3F0
7878F3F0
ENDCHAR
STARTCHAR 3000
ENCODING 12288
SWIDTH 990 0
DWIDTH 33 0
BBX 0 0 0 0
BITMAP
ENDCHAR
STARTCHAR 3001
ENCODING 12289
SWIDTH 990 0
DWIDTH 33 0
BBX 6 5 0 -3
BITMAP
F8
78
78
78
7C
ENDCHAR
STARTCHAR 3002
ENCODING 12290
SWIDTH 990 0
DWIDTH 33 0
BBX 6 5 1 -3
BITMAP
FC
FC
FC
FC
FC
ENDCHAR
STARTCHAR 3005
ENCODING 12293
SWIDTH 990 0
DWIDTH 33 0
BBX 26 30 4 -1
BITMAP
03E00000
03E00000
07C00000
07C00000
07FFFFC0
0FFFFFC0
0FFFFFC0
1FFFFFC0
1E0007C0
3E000780
3E000F80
7C000F00
7C001F00
78001E00
F8003E00
00003C00
00007C00
00007800
0000F800
0000F000
0001F000
0001E000
0003E000
0007C000
0007C000
000F8000
1FFFFF80
3FFFFF80
3FFFFF00
7FFFFF00
ENDCHAR
STARTCHAR 3007
ENCODING 12295
SWIDTH 990 0
DWIDTH 33 0
BBX 26 29 3 -2
BITMAP
FFFFFFC0
FFFFFFC0
FFFFFFC0
FFFFFFC0
F00003C0
F00003C0
F00003C0
F00003C0
F00003C0
F00003C0
F00003C0
F00003C0
F00003C0
F00003C0
F00003C0
F00003C0
F00003C0
F00003C0
F00003C0
F00003C0
F00003C0
F00003C0
F00003C0
F00003C0
F00003C0
F7FFFFC0
F3FFFFC0
F3FFFFC0
F1FFFFC0
ENDCHAR
STARTCHAR 3008
ENCODING 12296
SWIDTH 990 0
DWIDTH 33 0
BBX 10 31 21 -3
BITMAP
03C0
03C0
07C0
0780
0780
0F00
0F00
1F00
1E00
3E00
3C00
3C00
7800
7800
F800
F000
F800
7800
7C00
3C00
3C00
1E00
1E00
1F00
0F00
0F00
0780
0780
07C0
03C0
03C0
ENDCHAR
STARTCHAR 3009
ENCODING 12297
SWIDTH 990 0
DWIDTH 33 0
BBX 10 31 2 -3
BITMAP
F000
F000
7800
7800
3C00
3C00
3E00
1E00
1E00
0F00
0F00
0F80
0780
07C0
03C0
03C0
07C0
0780
0780
0F80
0F00
1F00
1E00
1E00
3E00
3C00
7C00
7800
7800
F000
F000
ENDCHAR
STARTCHAR 300A
ENCODING 12298
SWIDTH 990 0
DWIDTH 33 0
BBX 18 31 14 -3
BITMAP
03E7C0
03C780
07CF80
078F00
0F9F00
0F1E00
0F3E00
1F3E00
1E3C00
3E7C00
3C7800
7CF800
78F000
F9F000
F9E000
F1E000
F9F000
79F000
7CF800
7CF800
3C7800
3E7C00
1E3C00
1F3E00
0F1E00
0F9E00
078F00
078F00
07CF80
03C780
03E7C0
ENDCHAR
STARTCHAR 300B
ENCODING 12299
SWIDTH 990 0
DWIDTH 33 0
BBX 18 31 2 -3
BITMAP
F1E000
F1E000
78F000
78F000
7CF800
3C7800
3E7C00
1E3C00
1F3E00
0F1E00
0F9F00
078F00
07CF80
07CF80
03E7C0
03E7C0
03C780
07CF80
078F00
0F9F00
0F9E00
0F3E00
1F3E00
1E3C00
3E7C00
3C7800
7CF800
78F000
79F000
F1E000
F1E000
ENDCHAR
STARTCHAR 300C
ENCODING 12300
SWIDTH 990 0
DWIDTH 33 0
BBX 9 26 23 2
BITMAP
FF80
FF80
FF80
FF80
F000
F000
F000
F000
F000
F000
F000
F000
F000
F000
F000
F000
F000
F000
F000
F000
F000
F000
F000
F000
F000
F000
ENDCHAR
STARTCHAR 300D
ENCODING 12301
SWIDTH 1020 0
DWIDTH 34 0
BBX 8 26 2 -2
BITMAP
0F
0F
0F
0F
0F
0F
0F
0F
0F
0F
0F
0F
0F
0F
0F
0F
0F
0F
0F
0F
0F
0F
FF
FF
FF
FF
ENDCHAR
STARTCHAR 300E
ENCODING 12302
SWIDTH 1020 0
DWIDTH 34 0
BBX 12 28 20 0
BITMAP
FFF0
FFF0
FFF0
E070
E070
E7F0
E7F0
E7F0
E700
E700
E700
E700
E700
E700
E700
E700
E700
E700
E700
E700
E700
E700
E700
E700
E700
FF00
FF00
FF00
ENDCHAR
STARTCHAR 300F
ENCODING 12303
SWIDTH 990 0
DWIDTH 33 0
BBX 12 28 1 -3
BITMAP
0FF0
0FF0
0FF0
0E70
0E70
0E70
0E70
0E70
0E70
0E70
0E70
0E70
0E70
0E70
0E70
0E70
0E70
0E70
0E70
0E70
FE70
FE70
FE70
E070
E070
FFF0
FFF0
FFF0
ENDCHAR
STARTCHAR 3010
ENCODING 12304
SWIDTH 990 0
DWIDTH 33 0
BBX 8 31 24 -2
BITMAP
FF
FE
FE
FC
FC
FC
FC
F8
F8
F8
F8
F8
F8
F8
F8
F8
F8
F8
F8
F8
F8
F8
F8
F8
FC
FC
FC
FC
FE
FE
FF
ENDCHAR
STARTCHAR 3011
ENCODING 12305
SWIDTH 990 0
DWIDTH 33 0
BBX 8 31 1 -2
BITMAP
FF
7F
7F
7F
3F
3F
3F
1F
1F
1F
1F
1F
1F
1F
1F
1F
1F
1F
1F
1F
1F
1F
1F
1F
3F
3F
3F
7F
7F
7F
FF
ENDCHAR
STARTCHAR 3016
ENCODING 12310
SWIDTH 1020 0
DWIDTH 34 0
BBX 11 31 21 -3
BITMAP
FFE0
FFE0
FFC0
E3C0
E3C0
E380
E380
E380
E780
E700
E700
E700
E700
E700
E700
E700
E700
E700
E700
E700
E700
E700
E780
E380
E380
E380
E3C0
E3C0
FFC0
FFE0
FFE0
ENDCHAR
STARTCHAR 3017
ENCODING 12311
SWIDTH 990 0
DWIDTH 33 0
BBX 11 31 2 -3
BITMAP
FFE0
FFE0
FFE0
70E0
78E0
38E0
38E0
38E0
3CE0
3CE0
1CE0
1CE0
1CE0
1CE0
1CE0
1CE0
1CE0
1CE0
1CE0
1CE0
1CE0
1CE0
3CE0
38E0
38E0
38E0
78E0
78E0
7FE0
FFE0
FFE0
ENDCHAR
STARTCHAR 306E
ENCODING 12398
SWIDTH 990 0
DWIDTH 33 0
BBX 27 29 3 -2
BITMAP
FFFFFFE0
FFFFFFE0
FFFFFFE0
FFFFFFE0
F00F01E0
F00F01E0
F00F01E0
F00F01E0
F00F01E0
F00F01E0
F00F01E0
F00F01E0
F00F01E0
F00F01E0
F00F01E0
F00F01E0
F00F01E0
F00F01E0
F00F01E0
F00F01E0
F00F01E0
F00F01E0
F00F01E0
F00F01E0
F00F01E0
FFFF01E0
FFFF01E0
FFFF01E0
FFFF01E0
ENDCHAR
STARTCHAR 30FB
ENCODING 12539
SWIDTH 990 0
DWIDTH 33 0
BBX 4 6 14 5
BITMAP
F0
F0
F0
F0
F0
F0
ENDCHAR
STARTCHAR 4E00
ENCODING 19968
SWIDTH 990 0
DWIDTH 33 0
BBX 27 4 3 13
BITMAP
7FFFFFE0
7FFFFFE0
FFFFFFC0
FFFFFFC0
ENDCHAR
STARTCHAR 4E01
ENCODING 19969
SWIDTH 990 0
DWIDTH 33 0
BBX 28 30 3 -4
BITMAP
7FFFFFF0
7FFFFFE0
FFFFFFE0
FFFFFFC0
000F0000
000F0000
000F0000
000F0000
000F0000
000F0000
000F0000
000F0000
000F0000
000F0000
000F0000
000F0000
000F0000
000F0000
000F0000
000F0000
000F0000
000F0000
000F0000
000F0000
000F0000
000F0000
01FF0000
01FF0000
00FF0000
00FF0000
ENDCHAR
STARTCHAR 4E03
ENCODING 19971
SWIDTH 990 0
DWIDTH 33 0
BBX 27 31 3 -1
BITMAP
00780000
00780000
00780000
00780000
00780000
00780000
00780000
00780020
00783FE0
007FFFE0
7FFFFFE0
FFFFFFE0
FFFFE000
FFF80000
C0780000
00780000
00780000
00780000
00780000
00780000
00780000
00780000
00780000
00780000
00780000
00780000
00780000
007FFFC0
007FFFC0
007FFFC0
007FFFE0
ENDCHAR
STARTCHAR 4E07
ENCODING 19975
SWIDTH 1020 0
DWIDTH 34 0
BBX 26 30 4 -3
BITMAP
7FFFFFC0
FFFFFFC0
FFFFFF80
FFFFFF80
07800000
07800000
0F800000
0F800000
0F000000
0FFFFE00
0FFFFE00
0FFFFE00
1FFFFE00
1E001E00
1E001E00
1E001E00
1E001E00
1E001E00
3E001E00
3C001E00
3C001E00
3C001E00
3C001E00
3C001E00
7C001E00
78001E00
7803FE00
7803FE00
7801FE00
F801FE00
ENDCHAR
STARTCHAR 4E08
ENCODING 19976
SWIDTH 1020 0
DWIDTH 34 0
BBX 28 31 3 -2
BITMAP
00003C00
00003C00
00003C00
7FFFFFF0
7FFFFFE0
7FFFFFE0
FFFFFFE0
00003C00
00003C00
0F003C00
0F003C00
0F003C00
0F003C00
0F003C00
0F003C00
0F003C00
0F807C00
0FC0FC00
0FF1FC00
03FBF800
01FFE000
00FFC000
003F8000
007FC000
00FFE000
03FFF800
07F1FC00
0FE0FE00
1FC07F00
3F803FC0
FE000FE0
ENDCHAR
STARTCHAR 4E09
ENCODING 19977
SWIDTH 990 0
DWIDTH 33 0
BBX 27 29 3 -2
BITMAP
3FFFFFC0
3FFFFFC0
3FFFFF80
7FFFFF80
00000000
00000000
00000000
00000000
00000000
00000000
00000000
00000000
00000000
1FFFFF00
1FFFFF00
1FFFFF00
1FFFFF00
00000000
00000000
00000000
00000000
00000000
00000000
00000000
00000000
7FFFFFE0
FFFFFFE0
FFFFFFE0
FFFFFFC0
ENDCHAR
STARTCHAR 4E0A
ENCODING 19978
SWIDTH 990 0
DWIDTH 33 0
BBX 27 31 3 -2
BITMAP
003C0000
003C0000
003C0000
003C0000
003C0000
003C0000
003C0000
003C0000
003C0000
003FFFE0
003FFFC0
003FFF80
003FFF80
003C0000
003C0000
003C0000
003C0000
003C0000
003C0000
003C0000
003C0000
003C0000
003C0000
003C0000
003C0000
003C0000
003C0000
7FFFFFE0
7FFFFFE0
FFFFFFC0
FFFFFFC0
ENDCHAR
STARTCHAR 4E0B
ENCODING 19979
SWIDTH 990 0
DWIDTH 33 0
BBX 27 30 3 -4
BITMAP
3FFFFFE0
7FFFFFC0
7FFFFFC0
FFFFFF80
003C0000
003C0000
003C0000
003C0000
003C0000
003C3C00
003C3E00
003C1E00
003C1E00
003C1E00
003C1F00
003C0F00
003C0F00
003C0F00
003C0F80
003C0F80
003C0780
003C0780
003C07C0
003C0000
003C0000
003C0000
003C0000
003C0000
003C0000
003C0000
ENDCHAR
STARTCHAR 4E0C
ENCODING 19980
SWIDTH 990 0
DWIDTH 33 0
BBX 28 30 3 -4
BITMAP
7FFFFFF0
7FFFFFE0
FFFFFFE0
FFFFFFC0
07C03C00
07C03C00
07C03C00
07803C00
07803C00
07803C00
07803C00
07803C00
07803C00
0F803C00
0F803C00
0F803C00
0F003C00
0F003C00
0F003C00
0F003C00
0F003C00
0F003C00
1F003C00
1F003C00
1F003C00
1E003C00
1E003C00
1E003C00
1E003C00
1E003C00
ENDCHAR
STARTCHAR 4E0D
ENCODING 19981
SWIDTH 1020 0
DWIDTH 34 0
BBX 27 30 4 -2
BITMAP
3FFFFFC0
7FFFFFC0
7FFFFF80
FFFFFF80
03E00000
03E00000
03C00000
07DE0000
07DE7C00
079E3C00
0F9E3E00
0F9E3E00
0F1E1E00
1F1E1E00
1E1E1F00
3E1E0F00
3E1E0F00
3C1E0F80
7C1E0780
7C1E0780
781E07C0
F81E07C0
F81E03C0
F01E03E0
001E0000
001E0000
001E0000
001E0000
001E0000
001E0000
ENDCHAR
STARTCHAR 4E0E
ENCODING 19982
SWIDTH 990 0
DWIDTH 33 0
BBX 27 31 3 -2
BITMAP
0F000000
0F000000
0F000000
0FFFFFE0
0FFFFFE0
0FFFFFC0
0FFFFFC0
0F000000
0F000000
0F000000
0F000000
0F000000
0FFFFF80
0FFFFF80
0FFFFF80
0FFFFF80
00000780
00000780
00000780
00000780
7FFFF780
7FFFE780
FFFFE780
FFFFC780
00000780
00000780
00000780
0000FF80
0000FF80
00007F80
00003F80
ENDCHAR
STARTCHAR 4E10
ENCODING 19984
SWIDTH 990 0
DWIDTH 33 0
BBX 28 30 3 -4
BITMAP
7FFFFFF0
FFFFFFE0
FFFFFFE0
FFFFFFC0
000F0000
000F0000
3C0F0000
3C0F0000
3C0FFFC0
3C0FFFC0
3C0FFF80
3C0FFF80
3C0F0000
3C0F0000
3C0F0000
3FFFFFC0
3FFFFFC0
3FFFFFC0
3FFFFFC0
000003C0
000003C0
000003C0
000003C0
000003C0
000003C0
000003C0
0001FFC0
0000FFC0
00007FC0
00007FC0
ENDCHAR
STARTCHAR 4E11
ENCODING 19985
SWIDTH 990 0
DWIDTH 33 0
BBX 29 29 2 -2
BITMAP
1FFFFF80
1FFFFF80
3FFFFF80
3FFFFF80
00780780
00780780
00F80780
00F80780
00F00780
00F00780
00F00780
1FFFFF80
1FFFFF80
3FFFFF80
3FFFFF80
01E00780
01E00780
01E00780
01E00780
01E00780
03E00780
03E00780
03E00780
03C00780
03C00780
7FFFFFF8
7FFFFFF0
FFFFFFF0
FFFFFFF0
ENDCHAR
STARTCHAR 4E13
ENCODING 19987
SWIDTH 1020 0
DWIDTH 34 0
BBX 29 31 2 -1
BITMAP
001F0000
003F0000
003E0000
1FFFFFF0
1FFFFFF0
1FFFFFF0
1FFFFFF0
007C0000
00FC0000
00F80000
00F80000
7FFFFFF8
7FFFFFF8
7FFFFFF8
FFFFFFF0
03F00000
03E00000
03E00000
07FFFFC0
07FFFF80
07FFFF80
0FFFFF80
00001F00
00003F00
00003E00
00003E00
00007E00
07FFFFF0
0FFFFFF0
0FFFFFE0
1FFFFFE0
ENDCHAR
STARTCHAR 4E14
ENCODING 19988
SWIDTH 990 0
DWIDTH 33 0
BBX 29 29 2 -2
BITMAP
0FFFFF80
0FFFFF80
0FFFFF80
0FFFFF80
0F000780
0F000780
0F000780
0FFFFF80
0FFFFF80
0FFFFF80
0FFFFF80
0F000780
0F000780
0F000780
0F000780
0F000780
0FFFFF80
0FFFFF80
0FFFFF80
0FFFFF80
0F000780
0F000780
0F000780
0F000780
0F000780
3FFFFFF8
7FFFFFF0
7FFFFFF0
FFFFFFE0
ENDCHAR
STARTCHAR 4E15
ENCODING 19989
SWIDTH 990 0
DWIDTH 33 0
BBX 28 29 2 -2
BITMAP
3FFFFFF0
7FFFFFE0
7FFFFFE0
7FFFFFE0
01E00000
03E00000
03E00000
07CF1E00
07CF1F00
07CF0F00
0F8F0F00
0F8F0F80
0F8F0780
1F0F07C0
1F0F07C0
1E0F03C0
3E0F03E0
3E0F03E0
3C0F03E0
7C0F01F0
000F0000
000F0000
000F0000
000F0000
00000000
7FFFFFF0
7FFFFFF0
7FFFFFE0
FFFFFFE0
ENDCHAR
STARTCHAR 4E16
ENCODING 19990
SWIDTH 1020 0
DWIDTH 34 0
BBX 28 31 3 -1
BITMAP
001E0F00
001E0F00
1E1E0F00
1E1E0F00
1E1E0F00
1E1E0F00
1E1E0F00
7FFFFFF0
7FFFFFF0
FFFFFFE0
FFFFFFE0
1E1E0F00
1E1E0F00
1E1E0F00
1E1E0F00
1E1E0F00
1E1E0F00
1E1E0F00
1E1FFF00
1E1FFF00
1E1FFF00
1E1FFF00
1E000000
1E000000
1E000000
1E000000
1E000000
1FFFFFF0
1FFFFFE0
1FFFFFE0
1FFFFFE0
ENDCHAR
STARTCHAR 4E18
ENCODING 19992
SWIDTH 990 0
DWIDTH 33 0
BBX 29 29 2 -2
BITMAP
0FFFFFE0
0FFFFFC0
0FFFFFC0
0FFFFFC0
0F000000
0F000000
0F000000
0F000000
0F000000
0F000000
0FFFFFE0
0FFFFFE0
0FFFFFE0
0FFFFFC0
0F003C00
0F003C00
0F003C00
0F003C00
0F003C00
0F003C00
0F003C00
0F003C00
0F003C00
0F003C00
0F003C00
7FFFFFF8
7FFFFFF0
7FFFFFF0
FFFFFFF0
ENDCHAR
STARTCHAR 4E19
ENCODING 19993
SWIDTH 990 0
DWIDTH 33 0
BBX 28 31 3 -4
BITMAP
7FFFFFF0
7FFFFFE0
FFFFFFE0
FFFFFFE0
000F0000
000F0000
000F0000
000F0000
7FFFFFE0
7FFFFFE0
7FFFFFE0
7FFFFFE0
783E03E0
783E03E0
783FC3E0
787FC3E0
787BE3E0
78F9E3E0
78F1F3E0
79F0F3E0
79F0F3E0
79E07BE0
7BE07BE0
780003E0
780003E0
780003E0
780003E0
78003FE0
78001FE0
78000FE0
78000FE0
ENDCHAR
STARTCHAR 4E1A
ENCODING 19994
SWIDTH 990 0
DWIDTH 33 0
BBX 27 31 3 -2
BITMAP
00F1E000
00F1E000
00F1E000
00F1E000
00F1E000
00F1E000
40F1E200
70F1E380
78F1E3C0
78F1E3C0
78F1E3C0
78F1E3C0
78F1E3C0
78F1E3C0
78F1E3C0
78F1E3C0
78F1E3C0
78F1E3C0
78F1E3C0
78F1E3C0
78F1E3C0
78F1E3C0
00F1E000
00F1E000
00F1E000
00F1E000
00F1E000
7FFFFFE0
FFFFFFE0
FFFFFFC0
FFFFFFC0
ENDCHAR
STARTCHAR 4E1B
ENCODING 19995
SWIDTH 990 0
DWIDTH 33 0
BBX 29 32 2 -2
BITMAP
01E00F80
01E00F80
01E00F00
03E00F00
03C00F00
03C01F00
03C01E00
03C01E00
07C01E00
07801E00
07F03F80
07F03F80
07F03FC0
0FF03FC0
0FF83FC0
0F787FC0
0F787BC0
0F787BC0
1F7879E0
1E7879E0
1E7CF9E0
1E3CF1E0
1E3CF1E0
3E3CF1E0
3C3CF0F0
3C3DF0F0
00000000
00000000
7FFFFFF8
7FFFFFF8
7FFFFFF0
FFFFFFF0
ENDCHAR
STARTCHAR 4E1C
ENCODING 19996
SWIDTH 990 0
DWIDTH 33 0
BBX 27 31 3 -2
BITMAP
01E00000
01E00000
03E00000
7FFFFFE0
7FFFFFE0
FFFFFFC0
FFFFFFC0
07800000
0F800000
0F0F0000
0F0F0000
1F0F0000
1E0F0000
1E0F0000
3FFFFF80
3FFFFF80
3FFFFF00
7FFFFF00
000F0000
000F0000
1F0F0F00
1E0F0F00
1E0F0F80
3E0F0780
3C0F0780
3C0F07C0
3C0F07C0
7CFF03C0
787F03C0
783F03E0
F83F01E0
ENDCHAR
STARTCHAR 4E1D
ENCODING 19997
SWIDTH 990 0
DWIDTH 33 0
BBX 28 30 3 -1
BITMAP
07C03E00
0F803E00
0F807C00
0F807C00
1F007C00
1F00F800
1F00F800
3E00F800
3E01F000
7FFDFFE0
7FF9FFE0
7FFBFFC0
FFF3FFC0
0F807C00
0F007C00
1F007800
1F00F800
1E00F800
3E00F000
3E01F000
3FFDFFE0
7FF9FFE0
7FFBFFC0
FFF3FFC0
00000000
00000000
7FFFFFF0
7FFFFFE0
FFFFFFE0
FFFFFFC0
ENDCHAR
STARTCHAR 4E1E
ENCODING 19998
SWIDTH 990 0
DWIDTH 33 0
BBX 28 29 2 -2
BITMAP
07FFFFC0
0FFFFF80
0FFFFF00
1FFFFE00
0000F800
0003F000
0007F000
3FF7FFF0
3FE7FFF0
7FE7FFE0
7FE7FFE0
03C7BC00
07C7BE00
07879F00
0F879F00
0F078F80
1F078F80
1F0787C0
3E0787C0
3E0783E0
3C0781E0
7C0781F0
00060000
00000000
00000000
7FFFFFF0
7FFFFFF0
FFFFFFF0
FFFFFFE0
ENDCHAR
STARTCHAR 4E22
ENCODING 20002
SWIDTH 990 0
DWIDTH 33 0
BBX 28 29 2 -2
BITMAP
1FFFFFE0
3FFFFFC0
3FFFFFC0
7FFFFF80
000F0000
000F0000
1FFFFF80
1FFFFF80
1FFFFF80
1FFFFF80
000F0000
000F0000
000F0000
000F0000
3FFFFFF0
7FFFFFE0
7FFFFFE0
FFFFFFC0
03C00000
07C00000
07C00600
07800780
0F800780
0F800780
0F000780
1FFFFF80
1FFFFF80
1FFFFF80
3FFFFF80
ENDCHAR
STARTCHAR 4E24
ENCODING 20004
SWIDTH 990 0
DWIDTH 33 0
BBX 28 31 3 -4
BITMAP
7FFFFFF0
7FFFFFE0
FFFFFFE0
FFFFFFC0
00F0F000
00F0F000
00F0F000
00F0F000
7FFFFFC0
7FFFFFC0
7FFFFFC0
7FFFFFC0
79F1E3C0
79E1E3C0
79F9FBC0
79F9FBC0
7BF9FBC0
7BFBFBC0
7BFFFFC0
7BDFFFC0
7FDFDFC0
7FDF9FC0
7F879FC0
7F879FC0
780003C0
780003C0
780003C0
78003FC0
78001FC0
78000FC0
78000FC0
ENDCHAR
STARTCHAR 4E25
ENCODING 20005
SWIDTH 990 0
DWIDTH 33 0
BBX 27 30 3 -4
BITMAP
7FFFFFE0
7FFFFFE0
7FFFFFC0
FFFFFFC0
00F1E000
20F1E400
38F1E700
3CF1E780
3CF1E780
3CF1E780
3CF1E780
00F1E000
7FFFFFE0
7FFFFFC0
7FFFFFC0
7FFFFFC0
78000000
78000000
78000000
78000000
78000000
78000000
78000000
78000000
78000000
78000000
78000000
78000000
78000000
78000000
ENDCHAR
STARTCHAR 4E27
ENCODING 20007
SWIDTH 990 0
DWIDTH 33 0
BBX 28 31 2 -2
BITMAP
000F0000
000F0000
1FFFFFE0
3FFFFFE0
3FFFFFC0
7FFFFFC0
000F0000
0C0F0C00
0F0F0F00
0F0F0F00
0F0F0F00
0F0F0F00
0F0F0F00
000F0000
3FFFFFF0
7FFFFFF0
7FFFFFE0
FFFFFFE0
07800000
0780F000
07807800
07807FF0
07803FE0
07803FE0
07801FC0
07801F00
07800F00
07F80F80
07FC0F80
07FC0780
07FE07C0
ENDCHAR
STARTCHAR 4E28
ENCODING 20008
SWIDTH 990 0
DWIDTH 33 0
BBX 4 31 14 -2
BITMAP
F0
F0
F0
F0
F0
F0
F0
F0
F0
F0
F0
F0
F0
F0
F0
F0
F0
F0
F0
F0
F0
F0
F0
F0
F0
F0
F0
F0
F0
F0
F0
ENDCHAR
STARTCHAR 4E2A
ENCODING 20010
SWIDTH 990 0
DWIDTH 33 0
BBX 28 30 2 -3
BITMAP
07FFFE00
07FFFF00
0FFFFF00
0FFFFF80
1F000F80
1F000780
1E0007C0
3E0F03C0
3C0F03E0
7C0F03E0
780F01E0
780F01F0
F80F00F0
000F0000
000F0000
000F0000
000F0000
000F0000
000F0000
000F0000
000F0000
000F0000
000F0000
000F0000
000F0000
000F0000
000F0000
000F0000
000F0000
000F0000
ENDCHAR
STARTCHAR 4E2B
ENCODING 20011
SWIDTH 990 0
DWIDTH 33 0
BBX 26 31 3 -3
BITMAP
F80007C0
7C000780
3C000F80
3E001F00
1F003E00
0F803E00
0F807C00
07C0F800
03E0F000
01E1F000
00000000
00000000
001E0000
001E0000
001E0000
001E0000
001E0000
001E0000
001E0000
001E0000
001E0000
001E0000
001E0000
001E0000
001E0000
001E0000
001E0000
001E0000
001E0000
001E0000
001E0000
ENDCHAR
STARTCHAR 4E2C
ENCODING 20012
SWIDTH 1020 0
DWIDTH 34 0
BBX 12 31 11 -3
BITMAP
00F0
00F0
00F0
80F0
E0F0
F0F0
F0F0
F0F0
F0F0
F0F0
F0F0
F0F0
00F0
00F0
00F0
80F0
E0F0
F0F0
F0F0
F0F0
F0F0
F0F0
F0F0
F0F0
F0F0
F0F0
F0F0
00F0
00F0
00F0
00F0
ENDCHAR
STARTCHAR 4E2D
ENCODING 20013
SWIDTH 1020 0
DWIDTH 34 0
BBX 26 32 4 -3
BITMAP
001E0000
001E0000
001E0000
001E0000
001E0000
001E0000
FFFFFFC0
FFFFFFC0
FFFFFFC0
FFFFFFC0
F01E03C0
F01E03C0
F01E03C0
F01E03C0
F01E03C0
F01E03C0
F01E03C0
F01E03C0
F7FFFFC0
F3FFFFC0
F3FFFFC0
F1FFFFC0
001E0000
001E0000
001E0000
001E0000
001E0000
001E0000
001E0000
001E0000
001E0000
001E0000
ENDCHAR
STARTCHAR 4E30
ENCODING 20016
SWIDTH 990 0
DWIDTH 33 0
BBX 29 31 2 -3
BITMAP
000F0000
000F0000
000F0000
000F0000
3FFFFFF0
3FFFFFE0
7FFFFFE0
7FFFFFE0
000F0000
000F0000
000F0000
000F0000
1FFFFFC0
1FFFFFC0
1FFFFFC0
1FFFFFC0
000F0000
000F0000
000F0000
000F0000
000F0000
3FFFFFF8
7FFFFFF0
7FFFFFF0
FFFFFFE0
000F0000
000F0000
000F0000
000F0000
000F0000
000F0000
ENDCHAR
STARTCHAR 4E32
ENCODING 20018
SWIDTH 1020 0
DWIDTH 34 0
BBX 26 31 4 -3
BITMAP
001E0000
001E0000
7FFFFF80
7FFFFF80
7FFFFF80
7FFFFF80
781E0780
781E0780
781E0780
7BFFFF80
7BFFFF80
7BFFFF80
79FFFF80
001E0000
001E0000
001E0000
FFFFFFC0
FFFFFFC0
FFFFFFC0
FFFFFFC0
F01E03C0
F01E03C0
F01E03C0
F7FFFFC0
F7FFFFC0
F3FFFFC0
F3FFFFC0
001E0000
001E0000
001E0000
001E0000
ENDCHAR
STARTCHAR 4E34
ENCODING 20020
SWIDTH 1020 0
DWIDTH 34 0
BBX 28 31 3 -1
BITMAP
079C0000
079E0000
079E0000
F79FFFF0
F79FFFE0
F79FFFE0
F79FFFE0
F79E1800
F79E1C00
F79E1E00
F79E1E00
F79E1E00
F79E1E00
F7800000
F7800000
F79FFFE0
F79FFFE0
F79FFFE0
F79FFFE0
F79E71E0
F79E71E0
F79E71E0
F79E71E0
F79E71E0
F79E71E0
F79E71E0
F79E71E0
F79FFFE0
079FFFE0
079EFFE0
079EFFE0
ENDCHAR
STARTCHAR 4E36
ENCODING 20022
SWIDTH 990 0
DWIDTH 33 0
BBX 4 14 14 8
BITMAP
80
E0
F0
F0
F0
F0
F0
F0
F0
F0
F0
F0
F0
F0
ENDCHAR
STARTCHAR 4E38
ENCODING 20024
SWIDTH 990 0
DWIDTH 33 0
BBX 27 32 3 -3
BITMAP
01F00000
01F00000
01E00000
01E00000
03E00000
7FFFFC00
FFFFFC00
FFFFFC00
FFFFFC00
07C03C00
07C03C00
07803C00
07803C00
0F803C00
0F803C00
8F803C00
FF003C00
FF003C00
FFE03C00
FFFC3C00
1FFC3C00
1FFC3C00
3E7C3C00
3E043C00
3E003C00
3C003C00
3C003C00
7C003C00
7C003FC0
78003FC0
78003FC0
F8003FE0
ENDCHAR
STARTCHAR 4E39
ENCODING 20025
SWIDTH 1020 0
DWIDTH 34 0
BBX 29 31 2 -4
BITMAP
0FFFFFC0
0FFFFFC0
0FFFFFC0
0FFFFFC0
0F0007C0
0F0007C0
0F0607C0
0F0787C0
0F0787C0
0F0787C0
0F0787C0
0F0787C0
0F0787C0
0F0007C0
7FFFFFF8
7FFFFFF8
7FFFFFF8
FFFFFFF0
0F0007C0
0F0007C0
0F0007C0
0F0007C0
0F0007C0
0F0007C0
0F0007C0
0F0007C0
0F0007C0
0F007FC0
0F007FC0
0F003FC0
0F001FC0
ENDCHAR
STARTCHAR 4E3A
ENCODING 20026
SWIDTH 990 0
DWIDTH 33 0
BBX 25 32 4 -2
BITMAP
103E0000
1C3C0000
1E3C0000
1E3C0000
1E7C0000
1E780000
00780000
7FFFFF80
7FFFFF80
FFFFFF80
FFFFFF80
01F00780
01E00780
01E00780
03E00780
03C40780
03C70780
03C78780
07C78780
07878780
07878780
0F878780
0F078780
0F078780
1F000780
1F000780
1E000780
1E000780
3E01FF80
3E00FF80
3C00FF80
7C007F80
ENDCHAR
STARTCHAR 4E3B
ENCODING 20027
SWIDTH 1020 0
DWIDTH 34 0
BBX 28 31 3 -2
BITMAP
001E0000
001E0000
001F0000
000F0000
3FFFFFE0
3FFFFFC0
3FFFFFC0
7FFFFFC0
000F0000
000F0000
000F0000
000F0000
000F0000
000F0000
000F0000
1FFFFF80
1FFFFF80
1FFFFF80
1FFFFF80
000F0000
000F0000
000F0000
000F0000
000F0000
000F0000
000F0000
000F0000
7FFFFFF0
7FFFFFF0
FFFFFFE0
FFFFFFE0
ENDCHAR
STARTCHAR 4E3D
ENCODING 20029
SWIDTH 990 0
DWIDTH 33 0
BBX 28 30 2 -4
BITMAP
7FFFFFF0
7FFFFFF0
FFFFFFF0
FFFFFFE0
00000000
00000000
7FF9FFE0
7FF9FFE0
7FF9FFE0
7FF9FFE0
7879E1E0
7879E1E0
7879E1E0
7B79EDE0
7BF9EFE0
7BF9EFE0
7BF9EFE0
7BF9EFE0
7BF9EFE0
7BF9EFE0
7BF9EFE0
7BF9EFE0
7BF9EFE0
7879E1E0
7879E1E0
7879E1E0
78F9E3E0
78F9E3E0
78F9E3E0
7879E1E0
ENDCHAR
STARTCHAR 4E3E
ENCODING 20030
SWIDTH 990 0
DWIDTH 33 0
BBX 27 31 3 -2
BITMAP
180C0C00
1E0F0F00
1E0F0F00
1E0F0F00
1E0F0F00
00000000
7FFFFFE0
7FFFFFE0
7FFFFFC0
FFFFFFC0
0F803E00
0F8F1E00
1F0F1F00
1F0F0F80
3E0F0F80
3FFFFFC0
7FFFFFC0
7BFFFBE0
FBFFFBE0
000F0000
000F0000
000F0000
7FFFFFE0
7FFFFFE0
FFFFFFE0
FFFFFFC0
000F0000
000F0000
000F0000
000F0000
000F0000
ENDCHAR
STARTCHAR 4E3F
ENCODING 20031
SWIDTH 990 0
DWIDTH 33 0
BBX 7 31 13 -3
BITMAP
1E
1E
1E
1E
1E
1E
1E
1E
1E
1E
1E
1E
1E
1E
1E
1E
1E
1E
3E
3C
3C
3C
7C
7C
78
78
F8
F8
F0
F0
F0
ENDCHAR
STARTCHAR 4E43
ENCODING 20035
SWIDTH 1020 0
DWIDTH 34 0
BBX 26 31 4 -4
BITMAP
7FFFFE00
7FFFFE00
7FFFFE00
FFFFFE00
07801E00
0F803C00
0F803C00
0F007C00
0F007800
0F00F800
0F00F000
1F01F000
1F01FFC0
1E01FFC0
1E01FFC0
1E01FFC0
1E0003C0
3E0003C0
3C0003C0
3C0003C0
3C0003C0
3C0003C0
7C0003C0
7C0003C0
780003C0
780003C0
780003C0
7800FFC0
F8007FC0
F8007FC0
F0003FC0
ENDCHAR
STARTCHAR 4E45
ENCODING 20037
SWIDTH 990 0
DWIDTH 33 0
BBX 29 32 2 -2
BITMAP
18000000
1E000000
1E000000
1FFFFF00
1FFFFF00
1FFFFF00
1FFFFF00
1E000F00
1E000F00
1E000F00
1E000F00
1E000F00
1E000F00
00000F00
00003F00
00007F00
0000FE00
0001FC00
0003F800
0007F000
000FE000
001FF000
003FF800
007EFC00
00FC7C00
01F83E00
03F01F00
07E00F80
0FC00FC0
1F8007E0
7E0003F0
FC0001F8
ENDCHAR
STARTCHAR 4E47
ENCODING 20039
SWIDTH 990 0
DWIDTH 33 0
BBX 27 29 3 -2
BITMAP
3FFFFFC0
3FFFFFC0
7FFFFF80
7FFFFF80
001E0000
001E0000
001E0000
001E0000
001E0000
001E0000
001E0000
FFFFFFE0
FFFFFFE0
FFFFFFE0
FFFFFFE0
001E0000
001E0000
001E0000
001E0000
001E0000
001E0000
001E0000
001E0000
001E0000
001E0000
001FFFC0
001FFFC0
001FFFE0
001FFFE0
ENDCHAR
STARTCHAR 4E48
ENCODING 20040
SWIDTH 990 0
DWIDTH 33 0
BBX 27 31 3 -2
BITMAP
00F80000
00F00000
01F00000
01E00000
01E00000
03E1F000
03C3E000
07C3E000
0783C000
0F87C000
0F87C000
0F0F8000
1F0F8000
1E0F0000
3E1F0000
3E1F0000
3C3E0000
7C3E0000
783C0180
F87C01E0
007C01E0
00F801E0
00F801E0
00F001E0
01F001E0
01F001E0
03E001E0
03FFFFE0
07FFFFE0
07FFFFE0
07FFFFE0
ENDCHAR
STARTCHAR 4E49
ENCODING 20041
SWIDTH 1020 0
DWIDTH 34 0
BBX 28 31 3 -2
BITMAP
000C0000
000F0000
000F0000
1E0F0780
1E0F0780
1E0F0780
1E0F0780
1E0F0780
1E0F0780
1E0F0780
1E000780
1E000780
1E000780
1F000F80
1FC01F80
0FE03F00
07F0FE00
03F9FC00
00FFF800
007FF000
003FC000
001FC000
003FE000
00FFF000
01FDF800
03F8FC00
07E07E00
0FC03F00
1F801FC0
3F000FE0
FE0003F0
ENDCHAR
STARTCHAR 4E4B
ENCODING 20043
SWIDTH 990 0
DWIDTH 33 0
BBX 27 31 3 -2
BITMAP
00080000
000C0000
000F0000
000F0000
000F0000
7FFFFF80
7FFFFF80
7FFFFF80
7FFFFF80
00001F80
00003F00
00007E00
0000FC00
0001F800
0001F000
0003E000
0007E000
000FC000
001F8000
003F0000
007E0000
00FC0000
01F80000
01F00000
03F00000
07E00000
0FC00000
1FFFFFE0
3FFFFFE0
7EFFFFC0
FCFFFFC0
ENDCHAR
STARTCHAR 4E4C
ENCODING 20044
SWIDTH 990 0
DWIDTH 33 0
BBX 27 32 3 -3
BITMAP
001F0000
001E0000
001E0000
0FFFFF80
0FFFFF80
0FFFFF80
0FFFFF80
0F000780
0F000780
0F000780
0F07FF80
0F03FF80
0F03FF80
0F01FF80
0F000000
0F000000
0FFFFFE0
0FFFFFE0
0FFFFFE0
0FFFFFE0
000001E0
000001E0
7FFFF9E0
7FFFF9E0
7FFFF1E0
FFFFF1E0
000001E0
000001E0
0003FFE0
0001FFE0
0001FFE0
0000FFE0
ENDCHAR
STARTCHAR 4E4D
ENCODING 20045
SWIDTH 990 0
DWIDTH 33 0
BBX 27 31 3 -2
BITMAP
E0000000
F0000000
F0000000
FFFFFFE0
FFFFFFE0
FFFFFFC0
FFFFFFC0
F0F00000
F0F00000
F0F00000
F0F00000
F0F00000
00FFFF80
00FFFF80
00FFFF00
00FFFF00
00F00000
00F00000
00F00000
00F00000
00FFFF80
00FFFF80
00FFFF00
00FFFF00
00F00000
00F00000
00F00000
00F00000
00F00000
00F00000
00F00000
ENDCHAR
STARTCHAR 4E4E
ENCODING 20046
SWIDTH 990 0
DWIDTH 33 0
BBX 28 31 2 -4
BITMAP
1FFFFFE0
1FFFFFC0
3FFFFFC0
3FFFFF80
000F0000
000F0000
0C0F0C00
0F0F0F00
0F0F0F00
0F0F0F00
0F0F0F00
0F0F0F00
0F0F0F00
000F0000
000F0000
7FFFFFF0
7FFFFFF0
FFFFFFE0
FFFFFFE0
000F0000
000F0000
000F0000
000F0000
000F0000
000F0000
000F0000
000F0000
00FF0000
007F0000
007F0000
003F0000
ENDCHAR
STARTCHAR 4E4F
ENCODING 20047
SWIDTH 1020 0
DWIDTH 34 0
BBX 26 30 4 -4
BITMAP
3FFFFFC0
7FFFFFC0
7FFFFF80
FFFFFF80
00000000
00100000
001E0000
001E0000
001E0000
7FFFFF00
7FFFFF00
7FFFFF00
7FFFFF00
00007E00
0000FC00
0001F800
0003F000
0007E000
000FC000
001F8000
003F0000
007E0000
01FC0000
03F80000
07F00000
0FE00000
1FFFFFC0
3FFFFFC0
7EFFFF80
FCFFFF80
ENDCHAR
STARTCHAR 4E50
ENCODING 20048
SWIDTH 990 0
DWIDTH 33 0
BBX 26 31 4 -4
BITMAP
7FFFFF00
7FFFFF00
7FFFFF00
7FFFFE00
78000000
78000000
78000000
781E0000
781E0000
781E0000
781E0000
781E0000
781E0000
7FFFFF80
7FFFFF80
7FFFFF00
7FFFFF00
001E0000
001E0000
001E0000
3C1E1E00
3C1E0F00
3C1E0F00
7C1E0F00
781E0F00
781E0780
781E0780
F9FE0780
F0FE0780
F0FE07C0
F0FE03C0
ENDCHAR
STARTCHAR 4E52
ENCODING 20050
SWIDTH 990 0
DWIDTH 33 0
BBX 29 31 2 -4
BITMAP
1FFFFFC0
1FFFFFC0
1FFFFFC0
1FFFFF80
1E000000
1E000000
1E000000
1E000000
1E000000
1FFFFFF0
1FFFFFE0
1FFFFFE0
1FFFFFC0
1E003C00
1E003C00
1E003C00
1E003C00
1E003C00
1E003C00
7FFFFFF8
FFFFFFF0
FFFFFFF0
FFFFFFF0
00000000
0F800000
0F000000
1F000000
1E000000
3E000000
3C000000
7C000000
ENDCHAR
STARTCHAR 4E53
ENCODING 20051
SWIDTH 990 0
DWIDTH 33 0
BBX 29 31 2 -4
BITMAP
1FFFFFE0
1FFFFFC0
1FFFFFC0
1FFFFF80
1E000000
1E000000
1E000000
1E000000
1E000000
1FFFFFF0
1FFFFFE0
1FFFFFE0
1FFFFFC0
1E003C00
1E003C00
1E003C00
1E003C00
1E003C00
1E003C00
7FFFFFF8
FFFFFFF0
FFFFFFF0
FFFFFFF0
00000000
00001F00
00000F80
00000F80
000007C0
000007C0
000003E0
000001F0
ENDCHAR
STARTCHAR 4E54
ENCODING 20052
SWIDTH 990 0
DWIDTH 33 0
BBX 28 31 3 -4
BITMAP
1FFFFFC0
1FFFFF80
3FFFFF80
3FFFFF00
00F80000
00F80000
01F00000
01F00000
03E00000
7FFFFFF0
7FFFFFE0
FFFFFFE0
FFFFFFC0
1F001F00
1F000F00
3E000F80
3E000780
7C0007C0
7C0003E0
F80003E0
07C03C00
07803C00
07803C00
0F803C00
0F003C00
0F003C00
0F003C00
1F003C00
1E003C00
1E003C00
3E003C00
ENDCHAR
STARTCHAR 4E56
ENCODING 20054
SWIDTH 1020 0
DWIDTH 34 0
BBX 28 31 3 -4
BITMAP
3FFFFFE0
3FFFFFC0
7FFFFFC0
7FFFFF80
000F0000
000F0000
7FFFFFF0
7FFFFFE0
FFFFFFE0
FFFFFFC0
000F0000
000F0000
078F3C00
078F3C00
FF8F3CE0
FF8F3FE0
FF8F3FE0
FF8F3FE0
078F3F80
078F3C00
078F3C00
7F8F3C00
FF8F3C00
FF8F3FE0
FF8F3FE0
078F3FF0
078F3FF0
000F0000
000F0000
000F0000
000F0000
ENDCHAR
STARTCHAR 4E58
ENCODING 20056
SWIDTH 990 0
DWIDTH 33 0
BBX 28 31 2 -4
BITMAP
1FFFFFE0
1FFFFFC0
3FFFFFC0
3FFFFF80
000F0000
000F0000
3FFFFFF0
7FFFFFF0
7FFFFFE0
FFFFFFE0
000F0000
03CF3C00
7FCF3FE0
7FCF3FE0
7FCF3FE0
7FCF3FE0
03CF3C00
7FCF3C00
7FCF3FE0
7FCF3FE0
7FCF3FF0
03CF3FF0
000F0000
078F1F00
0F8F0F00
0F0F0F80
1E0F0780
3E0F07C0
3C0F03C0
7C0F03E0
780F01E0
ENDCHAR
STARTCHAR 4E59
ENCODING 20057
SWIDTH 990 0
DWIDTH 33 0
BBX 27 30 3 -2
BITMAP
7FFFFF00
7FFFFF00
7FFFFF00
7FFFFF00
00003F00
00007E00
0000FC00
0000F800
0001F000
0003E000
0007E000
000FC000
001F8000
003F0000
003E0000
007C0000
00FC0000
01F80000
03F00000
07E00000
07C00000
0F800000
1F800000
3F000000
7E000000
FC000000
FFFFFF80
FFFFFFC0
FFFFFFC0
FFFFFFE0
ENDCHAR
STARTCHAR 4E5C
ENCODING 20060
SWIDTH 990 0
DWIDTH 33 0
BBX 29 31 2 -2
BITMAP
07800000
07800000
07800000
078001C0
07807FC0
078FFFC0
07FFFFC0
7FFFFFC0
FFFFE3C0
FFFC03C0
FF8003C0
C78003C0
078003C0
078003C0
078003C0
078003C0
078003C0
078003C0
078003C0
07807FC0
07807FC0
07803FC0
07803FC0
07800000
07800000
07800000
07800000
07FFFFF0
07FFFFF0
07FFFFF8
07FFFFF8
ENDCHAR
STARTCHAR 4E5D
ENCODING 20061
SWIDTH 1020 0
DWIDTH 34 0
BBX 28 32 3 -3
BITMAP
01F00000
01F00000
01F00000
01E00000
01E00000
03E00000
7FFFFE00
7FFFFE00
FFFFFE00
FFFFFE00
07C01E00
07C01E00
07801E00
07801E00
07801E00
0F801E00
0F801E00
0F001E00
0F001E00
1F001E00
1F001E00
1F001E00
1E001E00
1E001E00
3E001E00
3E001E00
3C001E00
3C001E00
3C001FE0
7C001FE0
7C001FE0
78001FF0
ENDCHAR
STARTCHAR 4E5E
ENCODING 20062
SWIDTH 1020 0
DWIDTH 34 0
BBX 26 32 4 -2
BITMAP
C0000000
F0000000
F0000000
FFFFFFC0
FFFFFFC0
FFFFFF80
FFFFFF80
F0000000
F0000000
F0000000
00000000
3FFFFE00
3FFFFE00
3FFFFE00
3FFFFE00
0000FE00
0003F800
0007F000
000FE000
003FC000
007F0000
00FE0000
01FC0000
07F80000
0FE00000
1FC00000
3F800000
FF000000
FFFFFF00
FFFFFF80
FFFFFFC0
FFFFFFC0
ENDCHAR
STARTCHAR 4E5F
ENCODING 20063
SWIDTH 990 0
DWIDTH 33 0
BBX 28 32 3 -3
BITMAP
000F0000
000F0000
000F0000
1E0F0000
1E0F0000
1E0F0F80
1E0FFF80
1E7FFF80
1FFFFF80
FFFFFF80
FFFF0780
FFEF0780
FE0F0780
1E0F0780
1E0F0780
1E0F0780
1E0F0780
1E0F0780
1E0F0780
1E0F0780
1E0F3F80
1E0F1F80
1E0F1F80
1E0F0F80
1E0F0000
1E000000
1E000000
1E000000
1FFFFFE0
1FFFFFE0
1FFFFFE0
1FFFFFF0
ENDCHAR
STARTCHAR 4E60
ENCODING 20064
SWIDTH 1020 0
DWIDTH 34 0
BBX 24 30 5 -4
BITMAP
7FFFFF
7FFFFF
FFFFFF
FFFFFF
00000F
00000F
00000F
00000F
00000F
3FFE0F
3FFE0F
3FFE0F
3FFE0F
00000F
00000F
00000F
00000F
00038F
000F8F
007F8F
03FF8F
1FFE0F
7FF00F
7F800F
7C000F
60000F
0007FF
0003FF
0001FF
0001FF
ENDCHAR
STARTCHAR 4E61
ENCODING 20065
SWIDTH 990 0
DWIDTH 33 0
BBX 26 31 4 -3
BITMAP
01F00000
03E00000
03E00000
07C00000
07C00000
0F800000
0F800000
1FFFFFC0
1FFFFF80
3FFFFF00
3FFFFF00
07C00000
07C00780
0F800780
0F800780
1F000780
1FFFFF80
3FFFFF80
3FFFFF80
7FFFFF80
00000780
00000780
00003F80
0003FF80
003FFF80
03FFFE00
1FFFE000
FFFE0000
FFE00000
FF000000
F0000000
ENDCHAR
STARTCHAR 4E66
ENCODING 20070
SWIDTH 990 0
DWIDTH 33 0
BBX 27 32 3 -3
BITMAP
003C0300
003C03C0
003C03C0
003C03C0
003C03C0
003C0000
0FFFFF00
1FFFFF00
1FFFFF00
3FFFFF00
003C0F00
003C0F00
003C0F00
003C0F00
003C0F00
003C0F00
7FFFFFE0
7FFFFFE0
FFFFFFE0
FFFFFFE0
003C01E0
003C01E0
003C01E0
003C01E0
003C01E0
003C01E0
003C1FE0
003C0FE0
003C0FE0
003C07E0
003C0000
003C0000
ENDCHAR
STARTCHAR 4E69
ENCODING 20073
SWIDTH 990 0
DWIDTH 33 0
BBX 29 32 2 -3
BITMAP
03C07800
03C07800
03C07800
03C07800
03C07800
03FF7800
03FF7800
03FE7800
03FE7800
03C07800
03C07800
03C07800
03C07800
03C07800
03C07800
FFFE7800
FFFE7800
FFFE7800
FFFE7800
F01E7800
F01E7800
F01E7800
F01E7800
F01E7800
F01E7800
F01E7800
F01E7800
F01E7800
F7FE7FE0
F3FE7FF0
F3FE7FF0
F1FE7FF8
ENDCHAR
STARTCHAR 4E70
ENCODING 20080
SWIDTH 990 0
DWIDTH 33 0
BBX 28 31 2 -3
BITMAP
1FFFFFE0
3FFFFFE0
3FFFFFE0
7FFFFFE0
000001E0
1FE3C1E0
1FE3C1E0
3FE3C1E0
3FC3C1E0
0003C1E0
0003C1E0
1FE3C1E0
1FE3C1E0
3FE3C000
3FC3C000
0003C000
0003C000
7FFFFFF0
7FFFFFF0
7FFFFFE0
FFFFFFE0
00F80000
01F8F800
03F07C00
07E03E00
0FC03F00
1F801F80
1F000FC0
3E0007E0
7E0003E0
FC0001F0
ENDCHAR
STARTCHAR 4E71
ENCODING 20081
SWIDTH 990 0
DWIDTH 33 0
BBX 29 31 2 -2
BITMAP
00007800
00007800
7FFE7800
7FFE7800
7FFC7800
FFFC7800
07807800
07807800
07807800
FFFE7800
FFFE7800
FFFE7800
FFFE7800
07807800
07807800
07807800
07807800
FFFE7800
FFFE7800
FFFE7800
FFFE7800
F01E7800
F01E7800
F01E7800
F01E7800
F01E7800
F01E7800
F7FE7FE0
F7FE7FF0
F7FE7FF0
F3FE7FF8
ENDCHAR
STARTCHAR 4E73
ENCODING 20083
SWIDTH 990 0
DWIDTH 33 0
BBX 29 31 2 -2
BITMAP
7FFF7800
7FFF7800
FFFE7800
FFFE7800
00007800
42107800
7BDE7800
7BDE7800
7BDE7800
7BDE7800
00007800
3FFE7800
3FFC7800
7FFC7800
7FF87800
00F07800
01F07800
03E07800
7FFF7800
7FFE7800
FFFE7800
FFFC7800
03C07800
03C07800
03C07800
03C07800
03C07800
03C07FE0
03C07FF0
03C07FF0
03007FF8
ENDCHAR
STARTCHAR 4E7E
ENCODING 20094
SWIDTH 990 0
DWIDTH 33 0
BBX 29 32 2 -2
BITMAP
07810000
0781C000
0781E000
3FFDE000
7FFDFFF8
7FF9FFF0
7FF9FFF0
0781FFF0
0781E000
7FFDE000
7FFDE000
7FFC0000
787DFFF0
7FFDFFF0
7FFDFFF0
7FFDFFF0
787C03F0
787C07E0
7BFC07C0
7BFC0FC0
7BFC1F80
79FC1F80
07803F00
07803E00
7FFC7E00
7FFCFC00
7FFCF800
FFF9F800
0781FFF0
0781FFF0
0781FFF0
0781FFF8
ENDCHAR
STARTCHAR 4E86
ENCODING 20102
SWIDTH 990 0
DWIDTH 33 0
BBX 25 30 4 -3
BITMAP
7FFFFF80
7FFFFF00
FFFFFF00
FFFFFE00
00007C00
0000F800
0001F000
0003F000
0003E000
0007C000
000F8000
001F0000
001F0000
001E0000
001E0000
001E0000
001E0000
001E0000
001E0000
001E0000
001E0000
001E0000
001E0000
001E0000
001E0000
001E0000
07FE0000
03FE0000
01FE0000
01FE0000
ENDCHAR
STARTCHAR 4E88
ENCODING 20104
SWIDTH 1020 0
DWIDTH 34 0
BBX 28 31 3 -4
BITMAP
0FFFFFE0
1FFFFFC0
1FFFFFC0
3FFFFF80
00000F80
01800F80
01E00F00
01E01F00
01E01E00
01E03E00
00003E00
3FFFFFF0
7FFFFFF0
7FFFFFF0
FFFFFFF0
000780F0
000780F0
000780F0
000780F0
000780F0
000780F0
00078000
00078000
00078000
00078000
00078000
00078000
007F8000
007F8000
003F8000
003F8000
ENDCHAR
STARTCHAR 4E89
ENCODING 20105
SWIDTH 1020 0
DWIDTH 34 0
BBX 28 31 3 -3
BITMAP
07800000
0FFFFF00
0FFFFE00
0FFFFE00
1FFFFE00
1E003C00
1E003C00
00007C00
1FFFFF80
1FFFFF80
1FFFFF80
3FFFFF80
001E0780
001E0780
FFFFFFF0
FFFFFFF0
FFFFFFF0
FFFFFFE0
001E0780
001E0780
1FFFFF80
1FFFFF80
1FFFFF80
3FFFFF80
001E0000
001E0000
001E0000
01FE0000
00FE0000
00FE0000
007E0000
ENDCHAR
STARTCHAR 4E8B
ENCODING 20107
SWIDTH 990 0
DWIDTH 33 0
BBX 28 31 2 -2
BITMAP
000F0000
3FFFFFF0
3FFFFFE0
7FFFFFE0
7FFFFFC0
000F0000
1FFFFF80
1FFFFF80
1FFFFF80
1E0F0780
1E0F0780
1EFFFF80
1EFFFF80
1E7FFF80
000F0000
1FFFFFC0
1FFFFFC0
3FFFFFC0
000F03C0
7FFFFFF0
FFFFFFF0
FFFFFFF0
FFFFFFF0
1FFFFFC0
1FFFFFC0
3FFFFFC0
000F0000
000F0000
00FF0000
007F0000
003F0000
ENDCHAR
STARTCHAR 4E8C
ENCODING 20108
SWIDTH 990 0
DWIDTH 33 0
BBX 27 26 3 -1
BITMAP
1FFFFFC0
1FFFFF80
3FFFFF80
3FFFFF00
00000000
00000000
00000000
00000000
00000000
00000000
00000000
00000000
00000000
00000000
00000000
00000000
00000000
00000000
00000000
00000000
00000000
00000000
3FFFFFE0
7FFFFFE0
FFFFFFC0
FFFFFFC0
ENDCHAR
STARTCHAR 4E8D
ENCODING 20109
SWIDTH 1020 0
DWIDTH 34 0
BBX 28 30 3 -4
BITMAP
1FFFFFC0
1FFFFFC0
3FFFFF80
3FFFFF80
00000000
00000000
00000000
00000000
00000000
00000000
7FFFFFF0
7FFFFFF0
FFFFFFE0
FFFFFFE0
000F0000
000F0000
000F0000
000F0000
000F0000
000F0000
000F0000
000F0000
000F0000
000F0000
000F0000
000F0000
01FF0000
00FF0000
00FF0000
007F0000
ENDCHAR
STARTCHAR 4E8E
ENCODING 20110
SWIDTH 1020 0
DWIDTH 34 0
BBX 28 30 3 -4
BITMAP
1FFFFFC0
1FFFFFC0
3FFFFF80
3FFFFF80
000F0000
000F0000
000F0000
000F0000
000F0000
000F0000
000F0000
3FFFFFF0
7FFFFFF0
FFFFFFE0
FFFFFFC0
000F0000
000F0000
000F0000
000F0000
000F0000
000F0000
000F0000
000F0000
000F0000
000F0000
000F0000
01FF0000
00FF0000
00FF0000
007F0000
ENDCHAR
STARTCHAR 4E8F
ENCODING 20111
SWIDTH 990 0
DWIDTH 33 0
BBX 28 30 2 -4
BITMAP
0FFFFFE0
1FFFFFC0
1FFFFF80
3FFFFF80
00000000
00000000
00000000
00000000
3FFFFFF0
7FFFFFF0
7FFFFFE0
FFFFFFE0
07800000
07800000
07800000
07800000
07FFFF80
07FFFF80
07FFFF80
07FFFF80
00000780
00000780
00000780
00000780
00000780
00000780
0001FF80
0000FF80
0000FF80
00007F80
ENDCHAR
STARTCHAR 4E91
ENCODING 20113
SWIDTH 1020 0
DWIDTH 34 0
BBX 28 29 3 -2
BITMAP
1FFFFFC0
1FFFFF80
3FFFFF80
3FFFFF00
00000000
00000000
00000000
00000000
00000000
00000000
7FFFFFF0
7FFFFFE0
FFFFFFE0
FFFFFFC0
03E00000
03C00000
07C00000
07C00400
07800600
0F800780
0F800780
0F000780
1F000780
1F000780
1F000780
1FFFFF80
3FFFFF80
3FFFFF80
3FFFFF80
ENDCHAR
STARTCHAR 4E92
ENCODING 20114
SWIDTH 990 0
DWIDTH 33 0
BBX 29 29 2 -2
BITMAP
3FFFFFF0
3FFFFFF0
7FFFFFE0
7FFFFFE0
03E00000
03C00000
03C00000
03C00000
07FFFF80
07FFFF80
07FFFF80
07FFFF80
07800F80
0F800F00
0F800F00
0F800F00
0FFFFF00
0FFFFF00
1FFFFF00
1FFFFF00
00001E00
00001E00
00001E00
00001E00
00001E00
3FFFFFF8
7FFFFFF0
7FFFFFF0
FFFFFFF0
ENDCHAR
STARTCHAR 4E93
ENCODING 20115
SWIDTH 1020 0
DWIDTH 34 0
BBX 28 31 3 -4
BITMAP
1FFFFFC0
3FFFFFC0
3FFFFF80
7FFFFF80
00000000
00000000
00000000
00000000
00000000
00000000
00000000
7FFFFFF0
7FFFFFE0
FFFFFFE0
FFFFFFC0
07803C00
07803C00
0F803C00
0F803C00
0F003C00
0F003C00
0F003C00
1F003C00
1E003C00
1E003C00
1E003C00
3E003C00
3E003C00
3C003C00
3C003C00
3C003C00
ENDCHAR
STARTCHAR 4E94
ENCODING 20116
SWIDTH 990 0
DWIDTH 33 0
BBX 29 29 2 -2
BITMAP
3FFFFFE0
3FFFFFE0
3FFFFFE0
7FFFFFC0
007C0000
00780000
00780000
00780000
00F80000
00F80000
1FFFFF00
1FFFFF00
3FFFFF00
3FFFFF00
01F00F00
01E00F00
01E00F00
01E00F00
01E00F00
03E00F00
03E00F00
03C00F00
03C00F00
03C00F00
07C00F00
7FFFFFF8
FFFFFFF0
FFFFFFF0
FFFFFFF0
ENDCHAR
STARTCHAR 4E95
ENCODING 20117
SWIDTH 990 0
DWIDTH 33 0
BBX 29 31 2 -3
BITMAP
00F03C00
00F03C00
00F03C00
01F03C00
01F03C00
01F03C00
3FFFFFF0
3FFFFFE0
7FFFFFE0
7FFFFFC0
01E03C00
01E03C00
01E03C00
03E03C00
03E03C00
03E03C00
03C03C00
7FFFFFF8
7FFFFFF0
FFFFFFF0
FFFFFFF0
03C03C00
03C03C00
07C03C00
07C03C00
07C03C00
07803C00
07803C00
07803C00
07803C00
07803C00
ENDCHAR
STARTCHAR 4E98
ENCODING 20120
SWIDTH 990 0
DWIDTH 33 0
BBX 28 31 3 -2
BITMAP
7FFFFFE0
7FFFFFE0
FFFFFFE0
FFFFFFC0
00000000
00000000
00000000
1FFFFF00
1FFFFF00
1FFFFF00
1FFFFF00
1E000F00
1E000F00
1E000F00
1FFFFF00
1FFFFF00
1FFFFF00
1FFFFF00
1E000F00
1E000F00
1E000F00
1EFFFF00
1E7FFF00
1E7FFF00
1E3FFF00
00000000
00000000
7FFFFFF0
FFFFFFE0
FFFFFFE0
FFFFFFE0
ENDCHAR
STARTCHAR 4E9A
ENCODING 20122
SWIDTH 990 0
DWIDTH 33 0
BBX 28 29 3 -2
BITMAP
3FFFFFE0
7FFFFFC0
7FFFFFC0
7FFFFFC0
00F1E000
00F1E000
00F1E000
00F1E000
30F1E600
3CF1E780
3CF1E780
3CF1E780
3CF1E780
3CF1E780
3CF1E780
3CF1E780
3CF1E780
3CF1E780
3CF1E780
3CF1E780
3CF1E780
3CF1E780
00F1E000
00F1E000
00F1E000
7FFFFFF0
FFFFFFE0
FFFFFFE0
FFFFFFC0
ENDCHAR
STARTCHAR 4E9B
ENCODING 20123
SWIDTH 990 0
DWIDTH 33 0
BBX 28 31 3 -2
BITMAP
00F0F000
00F0F000
00F0F000
3CF0F000
3CF0F0E0
3CFEFFE0
3CFEFFE0
3CFEFFE0
3CFCFF80
3CF0F000
3CF0F000
3CF0F000
3CF0F000
3CF0F000
7FFEFFC0
FFFEFFE0
FFFCFFE0
FFFCFFF0
00000000
00000000
00000000
1FFFFFC0
3FFFFFC0
3FFFFF80
3FFFFF80
00000000
00000000
7FFFFFF0
FFFFFFE0
FFFFFFE0
FFFFFFE0
ENDCHAR
STARTCHAR 4E9F
ENCODING 20127
SWIDTH 990 0
DWIDTH 33 0
BBX 28 29 2 -2
BITMAP
0FFFFFC0
1FFFFFC0
1FFFFFC0
3FFFFFC0
00007F00
0003F800
0007FFE0
7FE7FFE0
7FE7BFE0
7FE7BFE0
7FE781E0
79E7BDE0
79E7BDE0
79E7BDE0
79E7BDE0
79E7BFE0
79E79FC0
79E78FC0
7FE78F80
7FE79FC0
7BE79FE0
7BE7BDF0
00070000
00040000
00000000
7FFFFFF0
7FFFFFF0
FFFFFFE0
FFFFFFE0
ENDCHAR
STARTCHAR 4EA0
ENCODING 20128
SWIDTH 1020 0
DWIDTH 34 0
BBX 28 9 3 20
BITMAP
00080000
000E0000
000F0000
000F0000
000F0000
7FFFFFF0
7FFFFFF0
FFFFFFF0
FFFFFFE0
ENDCHAR
STARTCHAR 4EA1
ENCODING 20129
SWIDTH 990 0
DWIDTH 33 0
BBX 28 31 2 -2
BITMAP
00080000
000E0000
000F0000
000F0000
000F0000
7FFFFFF0
7FFFFFF0
FFFFFFF0
FFFFFFE0
0F000000
0F000000
0F000000
0F000000
0F000000
0F000000
0F000000
0F000000
0F000000
0F000000
0F000000
0F000000
0F000000
0F000000
0F000000
0F000000
0F000000
0F000000
0FFFFFC0
0FFFFFC0
0FFFFF80
0FFFFF80
ENDCHAR
STARTCHAR 4EA2
ENCODING 20130
SWIDTH 1020 0
DWIDTH 34 0
BBX 28 31 3 -2
BITMAP
000E0000
000F0000
000F0000
3FFFFFF0
7FFFFFE0
7FFFFFE0
FFFFFFC0
00000000
00000000
00000000
07FFFC00
07FFFC00
07FFFC00
07FFFC00
07803C00
07803C00
07803C00
07803C00
07803C00
07803C00
07803C00
07803C00
0F803C00
0F003C00
0F003C00
1F003C00
1E003C00
3E003FE0
3C003FE0
3C003FF0
7C003FF0
ENDCHAR
STARTCHAR 4EA4
ENCODING 20132
SWIDTH 990 0
DWIDTH 33 0
BBX 27 31 3 -3
BITMAP
001E0000
001E0000
7FFFFFE0
7FFFFFC0
7FFFFFC0
FFFFFF80
00000000
00000000
0F803E00
1F003E00
3E001F00
3E000F80
7C000FC0
00000000
1E001E00
1E001E00
1E001E00
1E001E00
1E001E00
1F807E00
1FE1FE00
0FFFFC00
03FFF000
00FFC000
03FFF800
0FFFFE00
3FE1FF80
FF803FE0
FE000FE0
F00003E0
C0000060
ENDCHAR
STARTCHAR 4EA5
ENCODING 20133
SWIDTH 990 0
DWIDTH 33 0
BBX 27 31 3 -2
BITMAP
001C0000
001E0000
001E0000
7FFFFFE0
FFFFFFC0
FFFFFFC0
FFFFFF80
03C00000
07C00000
0F8F9F00
0F9F1F00
1F1F3E00
1F3E3C00
3E3E7C00
3FFC7800
7FF8F800
7FF9F000
FFF1E000
01F3E000
03E3F800
03C7F800
07C7FC00
0F8FBC00
0F9F3E00
1F1E1E00
1F3E1F00
3E3C0F00
3C7C0F80
7C780F80
F8F807C0
F8F007C0
ENDCHAR
STARTCHAR 4EA6
ENCODING 20134
SWIDTH 990 0
DWIDTH 33 0
BBX 28 32 2 -3
BITMAP
00080000
000E0000
000F0000
000F0000
3FFFFFF0
7FFFFFE0
7FFFFFE0
FFFFFFC0
00F8F000
00F0F000
00F0F000
00F0F000
3CF0F3C0
3CF0F3C0
3CF0F3E0
3CF0F3E0
3DF0F1E0
7DF0F1E0
7DF0F1E0
79E0F1E0
79E0F1E0
79E0F1E0
79E0F1E0
79E0F1F0
79E0F1F0
79E0F0F0
03E0F000
03E0F000
03E7F000
03C7F000
03C3F000
03C1F000
ENDCHAR
STARTCHAR 4EA7
ENCODING 20135
SWIDTH 1020 0
DWIDTH 34 0
BBX 27 32 3 -3
BITMAP
00080000
000F0000
000F0000
3FFFFFE0
7FFFFFE0
7FFFFFC0
FFFFFFC0
00000000
03803800
03C03C00
03C03C00
03C03C00
00000000
7FFFFFE0
7FFFFFE0
7FFFFFC0
7FFFFFC0
78000000
78000000
78000000
78000000
78000000
78000000
78000000
78000000
78000000
78000000
78000000
78000000
78000000
78000000
78000000
ENDCHAR
STARTCHAR 4EA8
ENCODING 20136
SWIDTH 990 0
DWIDTH 33 0
BBX 28 32 3 -2
BITMAP
000C0000
000F0000
7FFFFFF0
FFFFFFF0
FFFFFFE0
FFFFFFE0
00000000
1FFFFF00
1FFFFF00
1FFFFF00
1FFFFF00
1E000F00
1EFFFF00
1EFFFF00
1E7FFF00
1E7FFF00
00000000
1FFFFF80
3FFFFF80
7FFFFF80
7FFFFF80
00007F00
0001FE00
0003F800
0007F000
0007C000
00078000
00078000
00078000
00078000
00078000
00040000
ENDCHAR
STARTCHAR 4EA9
ENCODING 20137
SWIDTH 1020 0
DWIDTH 34 0
BBX 28 30 3 -1
BITMAP
000F0000
000F0000
000F0000
7FFFFFF0
FFFFFFF0
FFFFFFE0
FFFFFFE0
00000000
00000000
00000000
3FFFFFC0
3FFFFFC0
3FFFFFC0
3FFFFFC0
3C0F07C0
3C0F07C0
3C0F07C0
3C0F07C0
3FFFFFC0
3FFFFFC0
3FFFFFC0
3FFFFFC0
3C0F07C0
3C0F07C0
3C0F07C0
3C0F07C0
3DFFFFC0
3CFFFFC0
3CFFFFC0
3C7FFFC0
ENDCHAR
STARTCHAR 4EAB
ENCODING 20139
SWIDTH 1020 0
DWIDTH 34 0
BBX 29 32 3 -4
BITMAP
000C0000
000F0000
3FFFFFF0
7FFFFFF0
7FFFFFE0
FFFFFFE0
00000000
1FFFFF80
1FFFFF80
1FFFFF80
1FFFFF80
1E000780
1E000780
1EFFFF80
1EFFFF80
1E7FFF80
1E7FFF80
00000000
1FFFFF80
3FFFFF80
3FFFFF80
7FFFFF80
00003F00
0000FC00
7FFFFFF8
FFFFFFF0
FFFFFFF0
FFFFFFF0
00078000
00078000
00078000
00070000
ENDCHAR
STARTCHAR 4EAC
ENCODING 20140
SWIDTH 990 0
DWIDTH 33 0
BBX 27 31 3 -2
BITMAP
000E0000
000F0000
000F0000
7FFFFFE0
7FFFFFE0
FFFFFFC0
FFFFFFC0
00000000
00000000
1FFFFF00
1FFFFF00
1FFFFF00
1FFFFF00
1E000F00
1E000F00
1E000F00
1EFFFF00
1EFFFF00
1E7FFF00
1E7FFF00
000F0000
000F0000
1E0F0F00
1E0F0F00
3E0F0780
3C0F0780
3C0F07C0
7C7F03C0
787F03C0
783F03E0
F83F01E0
ENDCHAR
STARTCHAR 4EAD
ENCODING 20141
SWIDTH 1020 0
DWIDTH 34 0
BBX 28 31 3 -2
BITMAP
000E0000
000F0000
7FFFFFF0
7FFFFFF0
FFFFFFE0
FFFFFFE0
00000000
0FFFFF00
0FFFFF00
0FFFFF00
0F000F00
0F7FFF00
0F7FFF00
0F3FFF00
00000000
FFFFFFF0
FFFFFFF0
FFFFFFF0
FFFFFFF0
F00000F0
00000000
3FFFFFE0
7FFFFFE0
7FFFFFE0
7FFFFFC0
00078000
00078000
007F8000
003F8000
003F8000
001F8000
ENDCHAR
STARTCHAR 4EAE
ENCODING 20142
SWIDTH 1020 0
DWIDTH 34 0
BBX 28 32 3 -3
BITMAP
000C0000
000F0000
7FFFFFF0
7FFFFFE0
7FFFFFE0
FFFFFFE0
00000000
0FFFFF00
0FFFFF00
0FFFFF00
0F000F00
0F000F00
0F7FFF00
0F3FFF00
0F3FFF00
00000000
FFFFFFF0
FFFFFFF0
FFFFFFF0
FFFFFFF0
F00000F0
00000000
07FFFE00
07FFFE00
07FFFE00
07FFFE00
0F801E00
0F801E00
0F001FE0
1F001FE0
1E001FE0
3E001FF0
ENDCHAR
STARTCHAR 4EB2
ENCODING 20146
SWIDTH 1020 0
DWIDTH 34 0
BBX 26 32 4 -3
BITMAP
00100000
001E0000
001E0000
3FFFFF80
7FFFFF80
7FFFFF80
7FFFFF00
00000000
06006000
07807800
07807800
07807800
7FFFFFC0
FFFFFFC0
FFFFFFC0
FFFFFF80
001E0000
001E0000
001E0000
3FFFFF80
7FFFFF80
7FFFFF00
7FFFFF00
001E0000
3E1E1F00
3C1E0F00
3C1E0F00
7C1E0F80
78FE0780
787E0780
F87E07C0
F03E03C0
ENDCHAR
STARTCHAR 4EB3
ENCODING 20147
SWIDTH 990 0
DWIDTH 33 0
BBX 29 32 2 -4
BITMAP
000F0000
7FFFFFF0
7FFFFFF0
7FFFFFE0
FFFFFFE0
00000000
0FFFFF00
0FFFFF00
0FFFFF00
0F000F00
0F7FFF00
0F7FFF00
0F3FFF00
00000000
FFFFFFF8
FFFFFFF8
FFFFFFF8
FFFFFFF8
F00000F8
1FFFFFC0
1FFFFF80
1FFFFF80
001E0000
FFFFFFF0
FFFFFFF0
FFFFFFF0
FFFFFFF0
001E0000
001FFFE0
001FFFF0
001FFFF0
001FFFF0
ENDCHAR
STARTCHAR 4EB5
ENCODING 20149
SWIDTH 990 0
DWIDTH 33 0
BBX 28 32 2 -2
BITMAP
000E0000
000F0000
7FFFFFF0
7FFFFFF0
7FFFFFF0
FFFFFFE0
00000000
00000000
0F00F000
7FF7FFC0
7FF7FFC0
FFE7FFC0
0F01E3C0
7FF7FBC0
FFE7FBC0
FFEFFBC0
0F0FFBF0
3F03C3F0
3F07C3F0
3F0783F0
00000000
07C1F000
0FC0FFF0
0F807FF0
1FC07FE0
3FC03FE0
7FC01F00
FBC00F80
03FE0FC0
03FF07C0
03FF83E0
03FF81F0
ENDCHAR
STARTCHAR 4EBA
ENCODING 20154
SWIDTH 990 0
DWIDTH 33 0
BBX 26 31 3 -3
BITMAP
001E0000
001E0000
001E0000
001E0000
001E0000
001E0000
001E0000
001E0000
001E0000
001E0000
001E0000
001E0000
001E0000
003E0000
003E0000
007F8000
007FC000
00FBC000
01F3E000
01F1F000
03E1F000
03C0F800
07C07800
0F807C00
0F803E00
1F001E00
3E001F00
3E000F80
7C000F80
780007C0
F80003C0
ENDCHAR
STARTCHAR 4EBB
ENCODING 20155
SWIDTH 990 0
DWIDTH 33 0
BBX 9 32 1 -3
BITMAP
0F80
0F00
0F00
1F00
1E00
1E00
3E00
3C00
3C00
7C00
7800
FE00
FE00
FE00
1E00
1E00
1E00
1E00
1E00
1E00
1E00
1E00
1E00
1E00
1E00
1E00
1E00
1E00
1E00
1E00
1E00
1E00
ENDCHAR
STARTCHAR 4EBF
ENCODING 20159
SWIDTH 990 0
DWIDTH 33 0
BBX 28 31 3 -3
BITMAP
0F000000
0F3FFFC0
1F3FFFC0
1E3FFFC0
3E3FFFC0
3E0007C0
3C000F80
7C000F80
7C001F00
78001E00
FE003E00
FE007C00
FE007C00
1E00F800
1E00F800
1E01F000
1E03E000
1E03E000
1E07C000
1E07C000
1E0F8000
1E0F0000
1E1F0000
1E3E0000
1E3E0000
1E7C0000
1E7FFFC0
1E7FFFE0
1E7FFFE0
1E7FFFF0
1E000000
ENDCHAR
STARTCHAR 4EC0
ENCODING 20160
SWIDTH 1020 0
DWIDTH 34 0
BBX 29 31 2 -3
BITMAP
07C03C00
07803C00
0F803C00
0F803C00
0F003C00
1F003C00
1E003C00
3E003C00
3C003C00
3C003C00
7F1FFFF8
7F1FFFF8
FF3FFFF8
0F3FFFF0
0F003C00
0F003C00
0F003C00
0F003C00
0F003C00
0F003C00
0F003C00
0F003C00
0F003C00
0F003C00
0F003C00
0F003C00
0F003C00
0F003C00
0F003C00
0F003C00
0F003C00
ENDCHAR
STARTCHAR 4EC1
ENCODING 20161
SWIDTH 1020 0
DWIDTH 34 0
BBX 28 31 3 -3
BITMAP
0F000000
1F000000
1F3FFFE0
1E3FFFE0
3E3FFFE0
3E3FFFE0
3C000000
7C000000
7C000000
78000000
F8000000
FE000000
FE000000
1E000000
1E000000
1E000000
1E000000
1E000000
1E000000
1E000000
1E000000
1E000000
1E000000
1E000000
1E000000
1E3FFFF0
1E3FFFF0
1E7FFFE0
1E7FFFE0
1E000000
1E000000
ENDCHAR
STARTCHAR 4EC2
ENCODING 20162
SWIDTH 1020 0
DWIDTH 34 0
BBX 28 31 3 -2
BITMAP
0F80F000
0F01F000
1F01F000
1E01E000
1E01E000
3E01E000
3C3FFFF0
3C3FFFF0
7C7FFFF0
7E7FFFF0
FE03C0F0
FE07C0F0
1E07C0F0
1E07C0F0
1E0780F0
1E0780F0
1E0F80F0
1E0F80F0
1E0F80F0
1E0F00F0
1E0F00F0
1E1F00F0
1E1F00F0
1E1F00F0
1E1E00F0
1E1E00F0
1E3E00F0
1E3E1FF0
1E3E0FF0
1E3C0FF0
1E3C07F0
ENDCHAR
STARTCHAR 4EC3
ENCODING 20163
SWIDTH 990 0
DWIDTH 33 0
BBX 28 32 2 -3
BITMAP
0F800000
0F000000
0F7FFFF0
1F7FFFF0
1E7FFFF0
1E7FFFE0
3E001E00
3C001E00
3C001E00
7C001E00
78001E00
7E001E00
FE001E00
FE001E00
1E001E00
1E001E00
1E001E00
1E001E00
1E001E00
1E001E00
1E001E00
1E001E00
1E001E00
1E001E00
1E001E00
1E001E00
1E001E00
1E001E00
1E03FE00
1E01FE00
1E01FE00
1E00FE00
ENDCHAR
STARTCHAR 4EC4
ENCODING 20164
SWIDTH 990 0
DWIDTH 33 0
BBX 26 31 3 -4
BITMAP
FFFFFFC0
FFFFFF80
FFFFFF80
FFFFFF80
F0000000
F0078000
F0078000
F0078000
F0078000
F0078000
F0078000
F0078000
F0078000
F0078000
F0078000
F0078000
F00F8000
F00FE000
F01FE000
F01FF000
F03EF000
F03EF800
F07C7C00
F07C7C00
F0F83E00
F0F83E00
F1F01F00
F1F00F00
F3E00F80
F3E007C0
F7C007C0
ENDCHAR
STARTCHAR 4EC5
ENCODING 20165
SWIDTH 990 0
DWIDTH 33 0
BBX 28 31 2 -2
BITMAP
0F1FFFC0
1F1FFFC0
1F3FFFC0
1E3FFFC0
1E0003C0
3E0003C0
3C1E03C0
3C1E03C0
7C1E03C0
7C1E03C0
781E03C0
FE1E03C0
FE1E03C0
1E1E03C0
1E1E03C0
1E1F07C0
1E1F8FC0
1E0F8F80
1E07DF00
1E03FE00
1E01FC00
1E01FC00
1E00FC00
1E01FC00
1E03FE00
1E07DF00
1E0FCF80
1E0F8FC0
1E1F07C0
1E3E03E0
1E7C01F0
ENDCHAR
STARTCHAR 4EC6
ENCODING 20166
SWIDTH 990 0
DWIDTH 33 0
BBX 27 31 3 -3
BITMAP
0F878000
0F878000
0F078000
1F078000
1E078000
3E078000
3E078000
3C078000
7C079F00
78078F00
F8078F00
FE078F00
FE078F80
1E078780
1E078780
1E078780
1E078780
1E0787C0
1E0783C0
1E0783C0
1E0783C0
1E0783E0
1E0783E0
1E0781E0
1E078000
1E078000
1E078000
1E078000
1E078000
1E078000
1E078000
ENDCHAR
STARTCHAR 4EC7
ENCODING 20167
SWIDTH 990 0
DWIDTH 33 0
BBX 29 32 2 -3
BITMAP
0F83C000
0F07C000
0F078000
1F078000
1E078000
1E3FFF80
3E7FFF80
3C7FFF80
3C7FFF80
7C0F0780
780F0780
7E0F0780
FE0F0780
FE1F0780
1E1E0780
1E1E0780
1E1E0780
1E1E0780
1E1E0780
1E3E0780
1E3C0780
1E3C0780
1E3C0780
1E3C0780
1E3C0780
1E7C0780
1E780780
1E780780
1E7807F0
1E7807F0
1E7807F0
1EF807F8
ENDCHAR
STARTCHAR 4EC9
ENCODING 20169
SWIDTH 990 0
DWIDTH 33 0
BBX 28 31 2 -3
BITMAP
0F3FFF80
0F3FFF80
1F3FFF80
1E3FFF80
1E3C0780
3E3C0780
3C3C0780
3C3C0780
7C3C0780
783C0780
783C0780
FE3C0780
FE3C0780
1E3C0780
1E3C0780
1E3C0780
1E3C0780
1E3C0780
1E3C0780
1E3C0780
1E3C0780
1E3C0780
1E3C0780
1E3C0780
1E3C0780
1E3C0780
1E3C0780
1E3C07F0
1E3C07F0
1E3C07F0
1E3C07F0
ENDCHAR
STARTCHAR 4ECA
ENCODING 20170
SWIDTH 990 0
DWIDTH 33 0
BBX 26 31 3 -5
BITMAP
0FFFFC00
0FFFFC00
1FFFFE00
1FFFFE00
1E001F00
3E000F00
3C180F00
7C1E0F80
7C1E0780
781E07C0
F81E03C0
F01E03C0
001E0000
00000000
00000000
3FFFFF80
3FFFFF00
7FFFFF00
7FFFFE00
00003E00
00003C00
00007C00
00007800
0000F800
0001F000
0001F000
0003E000
0003E000
0007C000
00078000
000F8000
ENDCHAR
STARTCHAR 4ECB
ENCODING 20171
SWIDTH 990 0
DWIDTH 33 0
BBX 27 31 3 -4
BITMAP
0FFFFE00
0FFFFE00
1FFFFF00
1FFFFF00
3E000F00
3C000F80
3C000780
7C0007C0
780007C0
F80003C0
F80003E0
F00003E0
00000000
07803C00
0F803C00
0F803C00
0F003C00
0F003C00
0F003C00
0F003C00
0F003C00
1F003C00
1F003C00
1E003C00
1E003C00
1E003C00
1E003C00
1E003C00
3E003C00
3E003C00
3C003C00
ENDCHAR
STARTCHAR 4ECD
ENCODING 20173
SWIDTH 990 0
DWIDTH 33 0
BBX 29 31 2 -2
BITMAP
0F1FFFE0
0F3FFFE0
1F3FFFE0
1E3FFFE0
1E0783E0
1E0783C0
3E0787C0
3C0787C0
3C0F8780
7C0F8F80
7E0F0F00
7E0F1F00
FE0F1FF8
1E0F1FF8
1E0F1FF8
1E1F1FF8
1E1F0078
1E1E0078
1E1E0078
1E1E0078
1E1E0078
1E1E0078
1E3E0078
1E3E0078
1E3C0078
1E3C0078
1E3C0078
1E3C07F8
1E3C03F8
1E7C03F8
1E7C03F8
ENDCHAR
STARTCHAR 4ECE
ENCODING 20174
SWIDTH 990 0
DWIDTH 33 0
BBX 28 31 3 -3
BITMAP
07801E00
07803E00
07803C00
0F803C00
0F003C00
0F003C00
0F007C00
0F007C00
0F007800
1F007800
1FE07F00
1FE07F00
1FE0FF00
1FE0FF80
1FF0F780
3EF0F780
3CF0F780
3CF0F780
3CF1F780
3CF9F7C0
7C79E3C0
7C79E3C0
7879E3C0
7879E3C0
787FE3E0
783FE1E0
F803C1E0
F803C1E0
F003C1E0
F003C1E0
F007C1F0
ENDCHAR
STARTCHAR 4ED1
ENCODING 20177
SWIDTH 990 0
DWIDTH 33 0
BBX 27 31 3 -4
BITMAP
0FFFFE00
0FFFFE00
1FFFFE00
1FFFFF00
1E000F00
3E000F80
3C000780
3C000780
7C0007C0
780003C0
F80003C0
F00003E0
00000000
1E000000
1E000180
1E003F80
1E03FF80
1E7FFF80
1E7FFE00
1E7FE000
1E7C0000
1E400000
1E000000
1E000000
1E000000
1E000000
1E000000
1FFFFF80
1FFFFFC0
1FFFFFC0
1FFFFFE0
ENDCHAR
STARTCHAR 4ED3
ENCODING 20179
SWIDTH 1020 0
DWIDTH 34 0
BBX 28 30 3 -3
BITMAP
0FFFFF00
0FFFFF00
1FFFFF80
1FFFFF80
1E0007C0
3E0007C0
3C0003C0
7C0003E0
780001E0
7FFFFFF0
FFFFFFF0
0FFFFF00
0FFFFF00
0F000F00
0F000F00
0F000F00
0F000F00
0F000F00
0F03FF00
0F01FF00
0F00FF00
0F00FF00
0F000000
0F000000
0F000000
0F000000
0FFFFFC0
0FFFFFE0
0FFFFFE0
0FFFFFF0
ENDCHAR
STARTCHAR 4ED4
ENCODING 20180
SWIDTH 990 0
DWIDTH 33 0
BBX 29 31 2 -4
BITMAP
0F000000
0F0FFFE0
1F0FFFE0
1E1FFFC0
1E1FFFC0
3E0007C0
3C000780
3C000F80
78000F00
78000F00
FE001F00
FE001E00
FE003E00
1E7FFFF8
1E7FFFF0
1E7FFFF0
1EFFFFF0
1E003C00
1E003C00
1E003C00
1E003C00
1E003C00
1E003C00
1E003C00
1E003C00
1E003C00
1E003C00
1E003C00
1E003C00
1E003C00
1E002000
ENDCHAR
STARTCHAR 4ED5
ENCODING 20181
SWIDTH 990 0
DWIDTH 33 0
BBX 28 30 3 -1
BITMAP
0F007800
1F007800
1E007800
1E007800
3E007800
3C007800
3C007800
7C007800
787FFFF0
F87FFFF0
FE7FFFF0
FE7FFFF0
1E007800
1E007800
1E007800
1E007800
1E007800
1E007800
1E007800
1E007800
1E007800
1E007800
1E007800
1E007800
1E007800
1E007800
1E3FFFE0
1E3FFFE0
1E3FFFE0
1E7FFFC0
ENDCHAR
STARTCHAR 4ED6
ENCODING 20182
SWIDTH 990 0
DWIDTH 33 0
BBX 29 32 2 -3
BITMAP
0F807800
0F007800
0F007800
1F3C7800
1E3C7800
1E3C7810
3E3C7FF0
3C3DFFF0
3C3FFFF0
7CFFFFF0
78FFFCF0
7EFF78F0
7EFC78F0
FE3C78F0
1E3C78F0
1E3C78F0
1E3C78F0
1E3C78F0
1E3C78F0
1E3C78F0
1E3C7BF0
1E3C7BF0
1E3C79F0
1E3C79F0
1E3C7800
1E3C0000
1E3C0000
1E3C0000
1E3FFFF0
1E3FFFF0
1E3FFFF8
1E3FFFF8
ENDCHAR
STARTCHAR 4ED7
ENCODING 20183
SWIDTH 990 0
DWIDTH 33 0
BBX 28 31 2 -2
BITMAP
0F800780
0F800780
0F000780
1F000780
1E7FFFF0
1E7FFFF0
3E7FFFF0
3CFFFFE0
7C000780
7C3C0780
7E3C0780
FE3C0780
FE3C0780
1E3C0780
1E3C0780
1E3C0780
1E3E0F80
1E1F1F80
1E1F9F00
1E0FFE00
1E07FC00
1E03F800
1E01F800
1E01F800
1E03FC00
1E07FE00
1E0F9F00
1E1F0F80
1E1F07C0
1E3E03E0
1E7C03F0
ENDCHAR
STARTCHAR 4ED8
ENCODING 20184
SWIDTH 1020 0
DWIDTH 34 0
BBX 28 32 3 -3
BITMAP
0F800F00
0F000F00
0F000F00
1F000F00
1E000F00
1E000F00
3C3FFFF0
3C7FFFF0
7C7FFFF0
787FFFE0
7E000F00
FE000F00
FE000F00
1E000F00
1E0C0F00
1E0F0F00
1E0F0F00
1E0F0F00
1E0F0F00
1E0F0F00
1E0F0F00
1E0F0F00
1E0F0F00
1E000F00
1E000F00
1E000F00
1E000F00
1E000F00
1E01FF00
1E00FF00
1E007F00
1E007F00
ENDCHAR
STARTCHAR 4ED9
ENCODING 20185
SWIDTH 990 0
DWIDTH 33 0
BBX 29 31 2 -2
BITMAP
0F807800
0F007800
0F007800
1F007800
1E007800
3E3C7878
3E3C7878
3C3C7878
7C3C7878
783C7878
7E3C7878
FE3C7878
1E3C7878
1E3C7878
1E3C7878
1E3C7878
1E3C7878
1E3C7878
1E3C7878
1E3C7878
1E3C7878
1E3C7878
1E3C7878
1E3C7878
1E3C7878
1E3C7878
1E3FFFF8
1E3FFFF8
1E3FFFF8
1E3FFFF8
1E000000
ENDCHAR
STARTCHAR 4EDD
ENCODING 20189
SWIDTH 990 0
DWIDTH 33 0
BBX 27 29 3 -2
BITMAP
0FFFFC00
1FFFFE00
1FFFFE00
1FFFFF00
3E001F00
3C000F80
7C000F80
780007C0
F80003C0
F00003C0
00000000
1FFFFF80
1FFFFF00
3FFFFF00
3FFFFE00
001E0000
001E0000
001E0000
001E0000
001E0000
001E0000
001E0000
001E0000
001E0000
001E0000
7FFFFFE0
FFFFFFC0
FFFFFFC0
FFFFFF80
ENDCHAR
STARTCHAR 4EDE
ENCODING 20190
SWIDTH 990 0
DWIDTH 33 0
BBX 28 32 2 -3
BITMAP
0F800000
0F1FFFF0
0F1FFFF0
1F3FFFF0
1E3FFFF0
1E0078F0
3E00F8F0
3C00F8F0
3C1EF0F0
7C1EF0F0
7E1EF0F0
7E3CF0F0
FE3DF0F0
1E3DF0F0
1E3DE0F0
1E3DE0F0
1E79E0F0
1E79E0F0
1E7BE0F0
1E7BE0F0
1E7BC0F0
1E73C0F0
1EF3C0F0
1E03C0F0
1E07C0F0
1E07C0F0
1E0780F0
1E0780F0
1E078FF0
1E078FF0
1E0F87F0
1E0F87F0
ENDCHAR
STARTCHAR 4EDF
ENCODING 20191
SWIDTH 990 0
DWIDTH 33 0
BBX 28 31 2 -3
BITMAP
07BFFFE0
0FBFFFE0
0F3FFFE0
1F3FFFE0
1F3FF800
1E007800
3E007800
3E007800
3C007800
7C007800
78007800
FE007800
FE007800
1E3FFFF0
1E3FFFF0
1E7FFFF0
1E7FFFE0
1E007800
1E007800
1E007800
1E007800
1E007800
1E007800
1E007800
1E007800
1E007800
1E007800
1E007800
1E007800
1E007800
1E007800
ENDCHAR
STARTCHAR 4EE1
ENCODING 20193
SWIDTH 1020 0
DWIDTH 34 0
BBX 29 31 2 -2
BITMAP
0F200000
0F3C0000
0F3FFFF8
1F3FFFF8
1E3FFFF0
3E3FFFF0
3E3C0000
3C3C0000
7C3C0000
7C000000
7E1FFFE0
FE1FFFE0
1E1FFFE0
1E1FFFE0
1E0007E0
1E000FC0
1E001F80
1E003F00
1E007E00
1E00FC00
1E01F800
1E03F000
1E03F000
1E07E000
1E0FC000
1E1F8000
1E3F0000
1E3FFFF0
1E3FFFF0
1E3FFFF8
1E3FFFF8
ENDCHAR
STARTCHAR 4EE3
ENCODING 20195
SWIDTH 1020 0
DWIDTH 34 0
BBX 28 31 3 -2
BITMAP
0F87C400
0F07C700
0F03C780
1F03C780
1E03C780
3E03E780
3C03E780
3C03E000
7801E7F0
7807FFF0
FE7FFFF0
FE7FFFF0
FE7FFE00
1E7FF000
1E00F000
1E00F000
1E00F000
1E00F800
1E00F800
1E00F800
1E007800
1E007800
1E007C00
1E007C00
1E007C00
1E003C00
1E003C00
1E003FE0
1E003FE0
1E003FF0
1E003FF0
ENDCHAR
STARTCHAR 4EE4
ENCODING 20196
SWIDTH 990 0
DWIDTH 33 0
BBX 27 29 3 -2
BITMAP
0FFFFE00
1FFFFE00
1FFFFE00
1FFFFF00
3E000F00
3C000F80
7C1C0F80
781E0780
F81E07C0
F81E03C0
F01E03E0
001E0000
001E0000
3FFFFFC0
3FFFFF80
7FFFFF00
7FFFFF00
00003E00
00003C00
00007C00
0000F800
0000F800
0001F000
0003E000
0003E000
1FFFFF80
3FFFFF80
3FFFFF00
7FFFFF00
ENDCHAR
STARTCHAR 4EE5
ENCODING 20197
SWIDTH 990 0
DWIDTH 33 0
BBX 27 31 3 -4
BITMAP
F0003E00
F0003C00
F0C03C00
F0F03C00
F0F07C00
F0F07800
F0F07800
F0F07800
F0F0F800
F0F0F000
F0F0F000
F0F0F000
F0F1FE00
F0F1FE00
F0F1FE00
F0F1FE00
F003FF00
F003DF00
F003DF00
F003CF00
F007CF00
F0078F80
F0078F80
F0078780
F00F8780
FF8F07C0
FF8F07C0
FF8F03C0
FFDF03C0
001E03E0
001E03E0
ENDCHAR
STARTCHAR 4EE8
ENCODING 20200
SWIDTH 1020 0
DWIDTH 34 0
BBX 29 31 2 -2
BITMAP
07C00000
078FFFF8
0F8FFFF8
0F1FFFF0
0F1FFFF0
1F000000
1E000000
3E000000
3C000000
7C000000
7C000000
7F000000
FF000000
0F0FFFF0
0F0FFFF0
0F0FFFF0
0F0FFFF0
0F000000
0F000000
0F000000
0F000000
0F000000
0F000000
0F000000
0F000000
0F000000
0F0FFFF8
0F1FFFF8
0F1FFFF8
0F3FFFF0
0F000000
ENDCHAR
STARTCHAR 4EEA
ENCODING 20202
SWIDTH 990 0
DWIDTH 33 0
BBX 28 32 2 -3
BITMAP
0F808000
0F00F000
0F00F000
1E00F000
1E00F000
1E3CF1E0
3C3CF1E0
3C3CF1E0
3C3CF1E0
783CF1E0
783CF1E0
7E3C01E0
FE3C01E0
FE3C01E0
1E3C03E0
1E3E07C0
1E1F0FC0
1E0F8F80
1E079F00
1E07FE00
1E03FC00
1E01F800
1E00F800
1E01FC00
1E03FC00
1E07FE00
1E079F00
1E0F0F80
1E1F07C0
1E3E03E0
1E3C01E0
1E7800F0
ENDCHAR
STARTCHAR 4EEB
ENCODING 20203
SWIDTH 990 0
DWIDTH 33 0
BBX 29 32 2 -3
BITMAP
0780F000
0F81F000
0F01E000
0F01E000
1F03C000
1E03C000
1E03C000
3E078F00
3C078F00
7C0F9F00
780F1E00
7E0F1E00
FE1F3E00
1E1E3C00
1E1E7C00
1E3E7C00
1E3C7800
1E3CF800
1E7CF800
1E78F060
1E79F078
1EF1F078
1E01E078
1E03E078
1E03E078
1E03C078
1E07C078
1E07C078
1E07FFF8
1E0FFFF8
1E0FFFF8
1E0FFFF8
ENDCHAR
STARTCHAR 4EEC
ENCODING 20204
SWIDTH 1020 0
DWIDTH 34 0
BBX 29 31 2 -3
BITMAP
0FA00000
0F387FF8
0F3C7FF8
1F3CFFF8
1E3CFFF8
3E3C0078
3C000078
3C3C0078
7C3C0078
783C0078
7E3C0078
FE3C0078
1E3C0078
1E3C0078
1E3C0078
1E3C0078
1E3C0078
1E3C0078
1E3C0078
1E3C0078
1E3C0078
1E3C0078
1E3C0078
1E3C0078
1E3C0078
1E3C0078
1E3C0078
1E3C07F8
1E3C03F8
1E3C03F8
1E3C03F8
ENDCHAR
STARTCHAR 4EEE
ENCODING 20206
SWIDTH 1020 0
DWIDTH 34 0
BBX 28 32 3 -3
BITMAP
0F000000
1F7FFFF0
1E7FFFF0
1E7FFFE0
3E7FFFE0
3C780000
3C780000
7C780000
78780000
787FFFE0
F87FFFE0
FC7FFFE0
FC7FFFE0
3C7801E0
3C79E1E0
3C79E1E0
3C79E1E0
3C79E1E0
3C79E1E0
3C79E1E0
3C79F3E0
3C78FFC0
3C787FC0
3C787F80
3C783F00
3C781F00
3C783F80
3C787F80
3C787FC0
3C78FBE0
3C79F1F0
3C79E0F0
ENDCHAR
STARTCHAR 4EF0
ENCODING 20208
SWIDTH 1020 0
DWIDTH 34 0
BBX 28 32 3 -3
BITMAP
1F000000
1E7FBFF0
1E7FBFF0
3E7F3FF0
3C7F3FF0
3C783CF0
7C783CF0
7C783CF0
78783CF0
78783CF0
F8783CF0
FC783CF0
FC783CF0
3C783CF0
3C783CF0
3C783CF0
3C783CF0
3C783CF0
3C783CF0
3C783CF0
3C783CF0
3C783CF0
3C783CF0
3C783DF0
3C7E3DF0
3C7F3DF0
3C7F3CF0
3C7FBC00
3C003C00
3C003C00
3C003C00
3C003C00
ENDCHAR
STARTCHAR 4EF2
ENCODING 20210
SWIDTH 990 0
DWIDTH 33 0
BBX 29 32 2 -3
BITMAP
07807800
0F807800
0F007800
0F007800
1E007800
1E007800
3E3FFFF8
3C3FFFF8
3C3FFFF8
7C3FFFF8
7E3C7878
7E3C7878
FE3C7878
1E3C7878
1E3C7878
1E3C7878
1E3C7878
1E3C7878
1E3FFFF8
1E3FFFF8
1E3FFFF8
1E3DFFF8
1E007800
1E007800
1E007800
1E007800
1E007800
1E007800
1E007800
1E007800
1E007800
1E007800
ENDCHAR
STARTCHAR 4EF3
ENCODING 20211
SWIDTH 1020 0
DWIDTH 34 0
BBX 29 31 2 -3
BITMAP
0F3C0F00
0F3C0F00
0F3C0F00
1E3C0F00
1E3C0F00
1E3C0F00
3C3C0F00
3C3C0F00
3C3C0F78
783FEFF8
783FCFF8
7E3FCFF8
FE3FCFE0
1E3C0F00
1E3C0F00
1E3C0F00
1E3C0F00
1E3C0F00
1E3C0F00
1E3C0F00
1E3C0F00
1E3C0F00
1E3C0F00
1E3C0F00
1E3C0F00
1E3C0F00
1E3C0F00
1E3FCFF0
1E3FCFF0
1E3FCFF8
1E3FEFF8
ENDCHAR
STARTCHAR 4EF5
ENCODING 20213
SWIDTH 990 0
DWIDTH 33 0
BBX 29 31 2 -2
BITMAP
0FB00000
0F3C0000
0F3C0000
1F3FFFF0
1E3FFFE0
1E3FFFE0
3E3FFFE0
3C3C7800
3C3C7800
7C3C7800
783C7800
7E007800
FE007800
1E007800
1E007800
1E3FFFF8
1E7FFFF0
1E7FFFF0
1E7FFFF0
1E007800
1E007800
1E007800
1E007800
1E007800
1E007800
1E007800
1E007800
1E007800
1E007800
1E007800
1E007800
ENDCHAR
STARTCHAR 4EF6
ENCODING 20214
SWIDTH 990 0
DWIDTH 33 0
BBX 29 31 2 -3
BITMAP
0F803C00
0F003C00
1F383C00
1E3C3C00
1E3C3C00
3E3FFFF8
3C3FFFF0
7C3FFFF0
7C3FFFE0
783C3C00
FE3C3C00
FE3C3C00
1E003C00
1E003C00
1E003C00
1E003C00
1E3FFFF8
1E3FFFF8
1E7FFFF0
1E7FFFF0
1E003C00
1E003C00
1E003C00
1E003C00
1E003C00
1E003C00
1E003C00
1E003C00
1E003C00
1E003C00
1E003C00
ENDCHAR
STARTCHAR 4EF7
ENCODING 20215
SWIDTH 1020 0
DWIDTH 34 0
BBX 29 31 2 -2
BITMAP
0F8FFFC0
0F0FFFC0
0F0FFFE0
1F0FFFE0
1E1F01E0
1E1E01E0
3E1E01F0
3C3E00F0
7C3E00F0
783C00F8
7E7C0078
FE7C0078
1E000000
1E0F01E0
1E1F01E0
1E1F01E0
1E1E01E0
1E1E01E0
1E1E01E0
1E1E01E0
1E1E01E0
1E1E01E0
1E3E01E0
1E3E01E0
1E3C01E0
1E3C01E0
1E3C01E0
1E3C01E0
1E3C01E0
1E7C01E0
1E7C01E0
ENDCHAR
STARTCHAR 4EFB
ENCODING 20219
SWIDTH 990 0
DWIDTH 33 0
BBX 29 31 2 -2
BITMAP
0F800000
0F3FFFF0
1F3FFFF0
1F3FFFF0
1E3FFFF0
3E3FF800
3C007800
3C007800
7C007800
78007800
FE007800
FE007800
1E007800
1E7FFFF8
1E7FFFF8
1E7FFFF8
1E7FFFF8
1E007800
1E007800
1E007800
1E007800
1E007800
1E007800
1E007800
1E007800
1E007800
1E1FFFF0
1E1FFFF0
1E3FFFF0
1E3FFFE0
1E000000
ENDCHAR
STARTCHAR 4EFD
ENCODING 20221
SWIDTH 990 0
DWIDTH 33 0
BBX 28 32 2 -3
BITMAP
0F800000
0F000000
0F078F80
1F0F8780
1E0F0780
1E0F07C0
3E1F03C0
3C1E03E0
3C3E01E0
7C3E01E0
783C01F0
7E7C00F0
7E7800F0
FE000000
1E3FFFE0
1E3FFFE0
1E3FFFE0
1E3FFFE0
1E0F81E0
1E0F01E0
1E0F01E0
1E0F01E0
1E1F01E0
1E1F01E0
1E1E01E0
1E1E01E0
1E1E01E0
1E3E01E0
1E3C3FE0
1E3C1FE0
1E3C1FE0
1E7C0FE0
ENDCHAR
STARTCHAR 4EFF
ENCODING 20223
SWIDTH 990 0
DWIDTH 33 0
BBX 29 31 2 -2
BITMAP
0F007000
0F007800
1F007800
1E3FFFF8
1E7FFFF8
1E7FFFF8
3E7FFFF0
3C078000
3C078000
7C078000
780F8000
7E0FFFE0
FE0FFFE0
1E0FFFE0
1E0FFFE0
1E0F01E0
1E0F01E0
1E1F01E0
1E1F01E0
1E1E01E0
1E1E01E0
1E1E01E0
1E1E01E0
1E3E01E0
1E3E01E0
1E3E01E0
1E3C01E0
1E3C1FE0
1E3C0FE0
1E3C0FE0
1E7C0FE0
ENDCHAR
STARTCHAR 4F01
ENCODING 20225
SWIDTH 1020 0
DWIDTH 34 0
BBX 28 29 3 -2
BITMAP
0FFFFE00
0FFFFF00
0FFFFF00
1FFFFF80
1E000780
3E0007C0
3C0787C0
7C0783C0
7C0783E0
780781E0
F80781F0
00078000
0F078000
0F07FFE0
0F07FFC0
0F07FFC0
0F07FFC0
0F078000
0F078000
0F078000
0F078000
0F078000
0F078000
0F078000
0F078000
7FFFFFF0
7FFFFFF0
FFFFFFE0
FFFFFFE0
ENDCHAR
STARTCHAR 4F09
ENCODING 20233
SWIDTH 990 0
DWIDTH 33 0
BBX 28 32 3 -2
BITMAP
0F018000
1F01E000
1E01E000
1E7FFFE0
3E7FFFC0
3CFFFFC0
3CFFFFC0
7C000000
78000000
78000000
F83FFF00
FC3FFF00
FC3FFF00
FC3FFF00
3C3C0F00
3C3C0F00
3C3C0F00
3C3C0F00
3C3C0F00
3C3C0F00
3C3C0F00
3C3C0F00
3C3C0F00
3C3C0F00
3C3C0F00
3C3C0F00
3C3C0F00
3C3C0F00
3C3C0FE0
3C3C0FE0
3C3C0FF0
3C3C0FF0
ENDCHAR
STARTCHAR 4F0A
ENCODING 20234
SWIDTH 990 0
DWIDTH 33 0
BBX 29 32 2 -3
BITMAP
0F800000
0F9FFFE0
0F3FFFE0
1F3FFFE0
1F3FFFE0
1E01E1E0
1E01E1E0
3E01E1E0
3C01E1E0
3C7FFFF8
7C7FFFF8
7E7FFFF8
7E7FFFF8
FE01E1E0
1E01E1E0
1E01E1E0
1E01E1E0
1E1FFFE0
1E3FFFE0
1E3FFFE0
1E3FFFE0
1E03C000
1E03C000
1E07C000
1E078000
1E0F8000
1E0F0000
1E0F0000
1E1F0000
1E1E0000
1E1E0000
1E3E0000
ENDCHAR
STARTCHAR 4F0D
ENCODING 20237
SWIDTH 1020 0
DWIDTH 34 0
BBX 29 31 2 -2
BITMAP
0F000000
0F3FFFF8
1F3FFFF8
1E3FFFF8
1E7FFFF0
3E03E000
3C03E000
3C03E000
7C03C000
7803C000
7E03C000
FE1FFFE0
1E3FFFE0
1E3FFFE0
1E3FFFE0
1E07C1E0
1E0781E0
1E0781E0
1E0781E0
1E0781E0
1E0781E0
1E0F81E0
1E0F81E0
1E0F81E0
1E0F01E0
1E0F01E0
1E7FFFF8
1E7FFFF8
1EFFFFF8
1EFFFFF8
1E000000
ENDCHAR
STARTCHAR 4F0E
ENCODING 20238
SWIDTH 990 0
DWIDTH 33 0
BBX 28 32 2 -3
BITMAP
0F807800
0F007800
0F007800
1F3FFFF0
1E3FFFF0
1E7FFFF0
3E7FFFE0
3C007800
3C007800
7C007800
781FFFC0
7E1FFFC0
FE3FFFC0
FE3FFFC0
1E0003C0
1E0003C0
1E1E03C0
1E1E03C0
1E1E03C0
1E1E03C0
1E1F07C0
1E1F8FC0
1E07FF80
1E03FF00
1E01FE00
1E00FC00
1E01FE00
1E03FF00
1E0FDF80
1E1F8FC0
1E3F07E0
1E7E03F0
ENDCHAR
STARTCHAR 4F0F
ENCODING 20239
SWIDTH 990 0
DWIDTH 33 0
BBX 28 32 3 -3
BITMAP
0F80F000
0F00F200
0F00F380
1F00F3C0
1E00F3C0
3E00F3C0
3C00F3C0
3C00F000
7C00F000
783FFFF0
F87FFFE0
FE7FFFE0
FE7FFFE0
1E01E000
1E03E000
1E03FC00
1E03FC00
1E07DE00
1E07DE00
1E079E00
1E0F8F00
1E0F8F00
1E0F0F00
1E1F0780
1E1F0780
1E1E0780
1E3E07C0
1E3E03C0
1E3C03C0
1E3C03E0
1E7C01E0
1E7801F0
ENDCHAR
STARTCHAR 4F10
ENCODING 20240
SWIDTH 960 0
DWIDTH 32 0
BBX 28 31 2 -2
BITMAP
0F078700
0F07C780
1F03C780
1E03C780
1E03C000
3E03C000
3C03E000
7C7FFFE0
7C7FFFE0
787FFFE0
FE7FFFE0
FE01F000
1E00F000
1E00F000
1E00F000
1E00F0E0
1E00FFE0
1E01FFE0
1E3FFFE0
1E7FFF80
1E7FF800
1E7F7C00
1E603C00
1E003C00
1E003C00
1E003E00
1E003E00
1E001FE0
1E001FE0
1E001FF0
1E001FF0
ENDCHAR
STARTCHAR 4F11
ENCODING 20241
SWIDTH 990 0
DWIDTH 33 0
BBX 29 32 2 -3
BITMAP
0F007800
0F007800
1F007800
1F007800
1E007800
1E007800
3E3FFFF0
3C3FFFF0
3C3FFFF0
7C7FFFE0
78007800
7E007800
FE1E79E0
1E1E79E0
1E1E79E0
1E3E79E0
1E3E79E0
1E3E79E0
1E3E79E0
1E3C79F0
1E3C79F0
1E3C79F0
1E3C79F0
1E3C78F0
1E3C78F0
1E3C78F0
1E7C78F0
1E7C78F0
1E7C78F0
1E7C78F0
1E7C78F0
1E7878F8
ENDCHAR
STARTCHAR 4F17
ENCODING 20247
SWIDTH 990 0
DWIDTH 33 0
BBX 28 31 3 -4
BITMAP
0FFFFE00
0FFFFF00
1FFFFF00
1FFFFF80
3E000F80
3E000780
3C0007C0
7C0003C0
780003E0
F80001E0
F00001E0
07803C00
07803C00
07803C00
0F807C00
0F007800
0F007800
1F007800
1E007800
1FC0FF00
1FC0FF00
3FE0FF00
3DE0F780
3DE1F780
7DE1E780
79F1E3C0
78F1E3C0
78F3E3E0
F8F3C1E0
F07BC1E0
F07BC1F0
ENDCHAR
STARTCHAR 4F18
ENCODING 20248
SWIDTH 1020 0
DWIDTH 34 0
BBX 28 31 3 -2
BITMAP
1F03C600
1E03C780
1E03C780
3E03C780
3C03C780
3C03C780
7C03C000
787FFFF0
787FFFF0
F8FFFFF0
FCFFFFE0
FC079E00
3C079E00
3C0F9E00
3C0F9E00
3C0F1E00
3C0F1E00
3C1F1E00
3C1F1E00
3C1E1E00
3C1E1E00
3C3E1E00
3C3E1E00
3C3C1E00
3C3C1E00
3C7C1E00
3C7C1E00
3C781FE0
3C781FF0
3CF81FF0
3CF81FF0
ENDCHAR
STARTCHAR 4F19
ENCODING 20249
SWIDTH 990 0
DWIDTH 33 0
BBX 29 32 2 -3
BITMAP
0F807800
0F007800
0F007800
1F007800
1E007800
1E3078C0
3E3C78F0
3C3C78F0
3C3C78F0
7C3C78F0
783C78F0
7E3C78F0
FE3C78F0
FE3C78F0
1E3C78F0
1E3C78F0
1E007800
1E00F800
1E00F800
1E01FE00
1E01FE00
1E03FF00
1E03EF00
1E07CF80
1E07C780
1E0F87C0
1E0F83C0
1E1F03E0
1E1F01E0
1E3E01F0
1E3E00F0
1E7C00F8
ENDCHAR
STARTCHAR 4F1A
ENCODING 20250
SWIDTH 990 0
DWIDTH 33 0
BBX 27 29 3 -2
BITMAP
0FFFFE00
0FFFFF00
1FFFFF00
1FFFFF00
3E000F80
3E000F80
3C0007C0
7DFFF7C0
79FFF3C0
79FFF3E0
F9FFF1E0
00000000
00000000
00000000
00000000
7FFFFFE0
7FFFFFE0
FFFFFFE0
FFFFFFC0
03C00000
07C00000
07800C00
07800F00
0F800F00
0F000F00
1FFFFF00
1FFFFF00
1FFFFF00
3FFFFF00
ENDCHAR
STARTCHAR 4F1B
ENCODING 20251
SWIDTH 990 0
DWIDTH 33 0
BBX 28 31 3 -2
BITMAP
1E7FFFF0
1E7FFFF0
1E7FFFF0
3E7FFFF0
3C780000
3C780000
7C79E3C0
7879E3C0
7878F7C0
F878F780
F0787F80
FC787F00
FC787F00
3C783E00
3C783E00
3C783E00
3C783E00
3C787F00
3C787F00
3C787F80
3C78F780
3C78F3C0
3C79F3C0
3C79E1E0
3C7BE1E0
3C780000
3C780000
3C7FFFF0
3C7FFFF0
3C7FFFF0
3C7FFFF0
ENDCHAR
STARTCHAR 4F1E
ENCODING 20254
SWIDTH 990 0
DWIDTH 33 0
BBX 28 31 2 -4
BITMAP
07FFFF00
0FFFFF00
0FFFFF80
1FFFFF80
1F000780
3E0007C0
3E0003C0
7C0F03E0
7C0F01E0
F80F01F0
000F0000
0E0F0E00
0F0F0F00
0F0F0F00
0F0F0F00
0F0F0F00
0F0F0F00
000F0000
000F0000
7FFFFFF0
7FFFFFF0
7FFFFFE0
FFFFFFE0
000F0000
000F0000
000F0000
000F0000
000F0000
000F0000
000F0000
000F0000
ENDCHAR
STARTCHAR 4F1F
ENCODING 20255
SWIDTH 990 0
DWIDTH 33 0
BBX 28 31 2 -3
BITMAP
0F80F000
0F00F000
0F3FFFF0
1F3FFFF0
1E7FFFE0
1E7FFFE0
3E00F000
3C00F000
7C00F000
783FFFE0
7E3FFFE0
FE3FFFE0
1E3FFFE0
1E00F000
1E00F000
1E00F000
1E3FFFF0
1E7FFFF0
1E7FFFF0
1E7FFFF0
1E00F0F0
1E00F0F0
1E00F0F0
1E00F0F0
1E00F0F0
1E00F0F0
1E00F3F0
1E00F3F0
1E00F1F0
1E00F1F0
1E00F000
ENDCHAR
STARTCHAR 4F20
ENCODING 20256
SWIDTH 1050 0
DWIDTH 35 0
BBX 30 31 2 -2
BITMAP
0780F800
0F80F000
0F00F000
0F3FFFF8
1F3FFFF8
1E3FFFF8
3E3FFFF8
3C03E000
3C03C000
7C07C000
7E3FFFFC
7E7FFFFC
FE7FFFFC
1E7FFFF8
1E0F0000
1E1F0000
1E1F0000
1E1FFFE0
1E1FFFE0
1E1FFFE0
1E1FFFE0
1E0003E0
1E0007C0
1E000F80
1E000F80
1E001F00
1E0FFFF8
1E1FFFF8
1E1FFFF0
1E1FFFE0
1E000000
ENDCHAR
STARTCHAR 4F22
ENCODING 20258
SWIDTH 990 0
DWIDTH 33 0
BBX 29 31 2 -2
BITMAP
0F800000
0F1FFFF8
1F3FFFF8
1F3FFFF0
1E3FFFF0
3E1E0780
3E1E0780
3C1E0780
7C1E0780
7C1E0780
7E1E0780
FE1FFFF8
1E1FFFF8
1E1FFFF0
1E1FFFF0
1E000780
1E000780
1E078780
1E078780
1E0F0780
1E0F0780
1E0F0780
1E1F0780
1E1E0780
1E1E0780
1E1E0780
1E3E0780
1E3C3F80
1E3C3F80
1E3C3F80
1E7C1F80
ENDCHAR
STARTCHAR 4F24
ENCODING 20260
SWIDTH 990 0
DWIDTH 33 0
BBX 29 32 2 -3
BITMAP
0F800000
0F380000
0F3C0000
1F3FFFF8
1E3FFFF0
1E3FFFF0
3E3FFFF0
3C3C0000
3C3C0000
7C000000
7803E000
7E03C000
FE03C000
FE1FFFF0
1E3FFFF0
1E3FFFF0
1E7FFFF0
1E0780F0
1E0780F0
1E0F80F0
1E0F00F0
1E0F00F0
1E0F00F0
1E0F00F0
1E1F00F0
1E1E00F0
1E1E00F0
1E1E00F0
1E3E1FF0
1E3C0FF0
1E3C0FF0
1E3C07F0
ENDCHAR
STARTCHAR 4F25
ENCODING 20261
SWIDTH 990 0
DWIDTH 33 0
BBX 29 32 2 -3
BITMAP
078F0000
0F8F0000
0F0F0070
1F0F01F0
1F0F0FF0
1E0F3FF0
3E0F3FC0
3C0F3F00
3C0F3800
7C0F2000
780F0000
FE0F0000
FE3FFFF8
1E3FFFF0
1E7FFFF0
1E7FFFF0
1E0F0000
1E0F0000
1E0F0F00
1E0F0F80
1E0F0780
1E0F0780
1E0F07C0
1E0F03C0
1E0F03C0
1E0F03E0
1E0F01E0
1E0F01E0
1E0FE1F0
1E0FF0F0
1E0FF0F0
1E0FF8F0
ENDCHAR
STARTCHAR 4F26
ENCODING 20262
SWIDTH 990 0
DWIDTH 33 0
BBX 28 31 2 -2
BITMAP
0F9FFFC0
0F1FFFC0
1F1FFFC0
1E3FFFE0
1E3E03E0
3E3E03E0
3C3C01E0
3C7C01E0
7C7C01F0
787C01F0
FE7800F0
FE000000
1E3C0000
1E3C0000
1E3C00E0
1E3C07E0
1E3C7FE0
1E3CFFE0
1E3CFF80
1E3CFC00
1E3CC000
1E3C0000
1E3C0000
1E3C0000
1E3C0000
1E3C0000
1E3C0000
1E3FFFE0
1E3FFFF0
1E3FFFF0
1E3FFFF0
ENDCHAR
STARTCHAR 4F27
ENCODING 20263
SWIDTH 990 0
DWIDTH 33 0
BBX 29 31 2 -2
BITMAP
0F9FFFC0
0F1FFFE0
0F1FFFE0
1F3FFFE0
1E3E01E0
1E3C01F0
3E3C01F0
3C7C01F0
3C7C00F0
7C7C00F0
787800F8
7E3FFFE0
FE3FFFE0
1E3FFFE0
1E3FFFE0
1E3C01E0
1E3C01E0
1E3C01E0
1E3C01E0
1E3C01E0
1E3CFFE0
1E3C7FE0
1E3C7FE0
1E3C3FE0
1E3C0000
1E3C0000
1E3C0000
1E3FFFF0
1E3FFFF0
1E3FFFF8
1E3FFFF8
ENDCHAR
STARTCHAR 4F2A
ENCODING 20266
SWIDTH 990 0
DWIDTH 33 0
BBX 28 32 2 -3
BITMAP
0F00F000
0F30F000
1F3CF000
1E3CF000
1E3DE000
3E3DE000
3C3DE000
3C01E000
7C3FFFF0
7C7FFFF0
787FFFF0
FE7FFFF0
FE0380F0
1E0780F0
1E0780F0
1E0780F0
1E07B0F0
1E0F3CF0
1E0F3CF0
1E0F3CF0
1E0F3CF0
1E1F3CF0
1E1E3CF0
1E1E00F0
1E1E00F0
1E1E00F0
1E3E00F0
1E3C00F0
1E3C3FF0
1E3C3FF0
1E7C1FF0
1E7C1FF0
ENDCHAR
STARTCHAR 4F2B
ENCODING 20267
SWIDTH 1020 0
DWIDTH 34 0
BBX 29 32 3 -3
BITMAP
00004000
0F007800
0F007800
1F7FFFF0
1E7FFFF0
1E7FFFF0
3E7FFFF0
3C7800F0
3C7800F0
7C7800F0
787800F0
FE7800F0
FE7800F0
FE000000
1E000000
1E000000
1E000000
1E000000
1E000000
1E000000
1E000000
1E000000
1E000000
1E000000
1E000000
1E000000
1E000000
1E000000
1E7FFFF8
1E7FFFF0
1E7FFFF0
1E7FFFF0
ENDCHAR
STARTCHAR 4F2F
ENCODING 20271
SWIDTH 990 0
DWIDTH 33 0
BBX 28 32 2 -3
BITMAP
0F807800
0F807800
0F00F800
1F00F000
1F1FFFF0
1E1FFFF0
3E1FFFF0
3C1FFFF0
3C1E00F0
7C1E00F0
7E1E00F0
7E1E00F0
FE1E00F0
1E1E00F0
1E1E00F0
1E1E00F0
1E1FFFF0
1E1FFFF0
1E1FFFF0
1E1FFFF0
1E1E00F0
1E1E00F0
1E1E00F0
1E1E00F0
1E1E00F0
1E1E00F0
1E1E00F0
1E1E00F0
1E1EFFF0
1E1EFFF0
1E1E7FF0
1E1E7FF0
ENDCHAR
STARTCHAR 4F30
ENCODING 20272
SWIDTH 1020 0
DWIDTH 34 0
BBX 28 32 3 -3
BITMAP
1F00F000
1E00F000
1E00F000
3E00F000
3C00F000
3C7FFFF0
3C7FFFF0
7C7FFFF0
78FFFFF0
7800F000
F800F000
FC00F000
FC00F000
FC00F000
3C00F000
3C3FFFE0
3C3FFFE0
3C3FFFE0
3C3FFFE0
3C3C01E0
3C3C01E0
3C3C01E0
3C3C01E0
3C3C01E0
3C3C01E0
3C3C01E0
3C3C01E0
3C3C01E0
3C3DFFE0
3C3DFFE0
3C3DFFE0
3C3CFFE0
ENDCHAR
STARTCHAR 4F32
ENCODING 20274
SWIDTH 990 0
DWIDTH 33 0
BBX 29 32 2 -3
BITMAP
0F000000
0F3FFFF0
1F3FFFF0
1E3FFFF0
1E3FFFF0
1E3C00F0
3E3C00F0
3C3C00F0
3C3C00F0
7C3DFFF0
783DFFF0
7E3CFFF0
7E3CFFF0
FE3C0000
1E3C0000
1E3CF000
1E3CF000
1E3CF000
1E3CF0F0
1E3CFFF0
1E3CFFF0
1E3CFFF0
1E3CFF00
1E3CF000
1E3CF000
1E3CF000
1E3CF000
1E3CF000
1E3CFFF0
1E3CFFF0
1E3CFFF8
1E3CFFF8
ENDCHAR
STARTCHAR 4F34
ENCODING 20276
SWIDTH 1020 0
DWIDTH 34 0
BBX 29 31 2 -3
BITMAP
0F807800
0F9C7980
0F1E79E0
1F1E79E0
1E1E79E0
1E1E79E0
3E1E79E0
3C007800
7C007800
7C3FFFF0
7E3FFFF0
FE3FFFF0
FE3FFFF0
1E007800
1E007800
1E007800
1E007800
1E007800
1E3FFFF8
1E3FFFF8
1E7FFFF0
1E7FFFF0
1E007800
1E007800
1E007800
1E007800
1E007800
1E007800
1E007800
1E007800
1E007800
ENDCHAR
STARTCHAR 4F36
ENCODING 20278
SWIDTH 1020 0
DWIDTH 34 0
BBX 28 31 3 -3
BITMAP
07800000
0F9FFFC0
0F1FFFC0
0F3FFFC0
1F3FFFC0
1E3C03C0
3E3C03E0
3C7C01E0
3C7CE1E0
7C78F1E0
7E78F1F0
FEF8F0F0
FEF8F0F0
1E00F000
1E000000
1E1FFFC0
1E1FFFC0
1E3FFFC0
1E3FFFC0
1E0007C0
1E000F80
1E000F80
1E001F00
1E001F00
1E003E00
1E003E00
1E007C00
1E1FFFE0
1E3FFFE0
1E3FFFC0
1E7FFFC0
ENDCHAR
STARTCHAR 4F38
ENCODING 20280
SWIDTH 990 0
DWIDTH 33 0
BBX 28 31 2 -3
BITMAP
0F007800
0F007800
0F007800
1E007800
1E7FFFF0
1E7FFFF0
3C7FFFF0
3C7FFFF0
3C7878F0
7E7878F0
7E7878F0
7E7878F0
FE7FFFF0
1E7FFFF0
1E7FFFF0
1E7FFFF0
1E7878F0
1E7878F0
1E7878F0
1E7878F0
1E7878F0
1E7FFFF0
1E7FFFF0
1E7BFFF0
1E79FFF0
1E007800
1E007800
1E007800
1E007800
1E007800
1E007800
ENDCHAR
STARTCHAR 4F3A
ENCODING 20282
SWIDTH 990 0
DWIDTH 33 0
BBX 29 31 2 -2
BITMAP
0F1FFFF8
0F3FFFF8
1F3FFFF8
1E7FFFF8
1E000078
3E000078
3E3FFE78
3C3FFE78
3C7FFE78
7C7FFC78
7E000078
7E000078
FE3FFC78
1E3FFC78
1E3FFC78
1E3FFC78
1E3C3C78
1E3C3C78
1E3C3C78
1E3C3C78
1E3C3C78
1E3FFC78
1E3FFC78
1E3DFC78
1E3DFC78
1E000078
1E000078
1E001FF8
1E000FF8
1E000FF8
1E0007F8
ENDCHAR
STARTCHAR 4F3C
ENCODING 20284
SWIDTH 1020 0
DWIDTH 34 0
BBX 29 32 2 -3
BITMAP
1E7803C0
1E7803C0
1E7803C0
3C7803C0
3C7803C0
3C7983C0
7C79E3C0
7879E7C0
7879E780
7879E780
F879E780
FC79E780
FC79E7E0
3C79E7E0
3C79E7E0
3C79EFE0
3C79EFF0
3C79EFF0
3C780FF0
3C780FF0
3C780FF0
3C780FF0
3C780FF0
3C781E70
3C781E70
3C781E78
3C781E78
3C781E78
3C7F1E78
3C7F9E78
3C7FBE78
3C7FBC78
ENDCHAR
STARTCHAR 4F3D
ENCODING 20285
SWIDTH 990 0
DWIDTH 33 0
BBX 29 32 2 -3
BITMAP
1E780000
1E780000
1E780000
3E780000
3C781FF8
3DFFDFF8
3DFFDFF8
7DFFDFF8
7DFFDE78
78F3DE78
78F3DE78
FCF3DE78
FCF3DE78
3CF3DE78
3CF3DE78
3CF3DE78
3CF3DE78
3CF3DE78
3CF3DE78
3CF3DE78
3CF3DE78
3CF3DE78
3CF3DE78
3CF3DE78
3CF3DE78
3CF3DE78
3CF3DE78
3CF3DE78
3CFFDFF8
3CF7DFF8
3CF7DEF8
3CF7DEF8
ENDCHAR
STARTCHAR 4F43
ENCODING 20291
SWIDTH 990 0
DWIDTH 33 0
BBX 29 32 2 -3
BITMAP
0F800000
0F000000
0F3FFFF8
1F3FFFF8
1E3FFFF8
1E3FFFF8
1E3C7878
3E3C7878
3C3C7878
3C3C7878
7C3C7878
7E3C7878
7E3C7878
FE3C7878
1E3C7878
1E3FFFF8
1E3FFFF8
1E3FFFF8
1E3FFFF8
1E3C7878
1E3C7878
1E3C7878
1E3C7878
1E3C7878
1E3C7878
1E3C7878
1E3C7878
1E3DFFF8
1E3DFFF8
1E3CFFF8
1E3CFFF8
1E000000
ENDCHAR
STARTCHAR 4F46
ENCODING 20294
SWIDTH 990 0
DWIDTH 33 0
BBX 29 32 2 -3
BITMAP
07800000
0F800000
0F1FFFE0
0F1FFFE0
1F1FFFE0
1E1FFFE0
3E1E01E0
3E1E01E0
3C1E01E0
7C1E01E0
781E01E0
7E1FFFE0
FE1FFFE0
FE1FFFE0
1E1FFFE0
1E1E01E0
1E1E01E0
1E1E01E0
1E1E01E0
1E1E01E0
1E1FFFE0
1E1EFFE0
1E1EFFE0
1E1E7FE0
1E000000
1E000000
1E000000
1E3FFFF8
1E3FFFF8
1E7FFFF0
1E7FFFF0
1E000000
ENDCHAR
STARTCHAR 4F4D
ENCODING 20301
SWIDTH 1020 0
DWIDTH 34 0
BBX 29 32 3 -3
BITMAP
0F804000
0F007800
0F007800
1F007800
1E007800
1E7FFFF0
3E7FFFF0
3C7FFFF0
3C7FFFF0
7C000000
78000000
FE080200
FE0E0380
FE0F03C0
1E0F03C0
1E0F03C0
1E0F03C0
1E0F03C0
1E0F03C0
1E0F03C0
1E0F03C0
1E0F03C0
1E0F03C0
1E0F03C0
1E0F03C0
1E000000
1E000000
1E7FFFF8
1E7FFFF0
1E7FFFF0
1EFFFFF0
1E000000
ENDCHAR
STARTCHAR 4F4E
ENCODING 20302
SWIDTH 990 0
DWIDTH 33 0
BBX 29 32 2 -3
BITMAP
0F800000
0F000000
0F3FFFF8
1F3FFFF0
1E3FFFF0
1E3FFFF0
3E3C1E00
3C3C1E00
3C3C1F00
7C3C1F00
783C1F00
7E3C0F00
FE3FFFF8
FE3FFFF8
1E3FFFF8
1E3FFFF8
1E3C0F00
1E3C0F80
1E3C0F80
1E3C0F80
1E3C0F80
1E3C0780
1E3C0780
1E3FE780
1E3FE780
1E3FE780
1E3FE7C0
1E0007C0
1E3FE7F0
1E3FE7F8
1E7FE7F8
1E7FC3F8
ENDCHAR
STARTCHAR 4F4F
ENCODING 20303
SWIDTH 990 0
DWIDTH 33 0
BBX 28 32 2 -3
BITMAP
03C0F000
07C0F000
0780F800
0F80F800
0F007800
1F1FFFF0
1F3FFFF0
1E3FFFE0
3E7FFFE0
3C007800
7C007800
7E007800
FE007800
FE007800
1E007800
1E007800
1E3FFFE0
1E3FFFE0
1E3FFFE0
1E3FFFE0
1E007800
1E007800
1E007800
1E007800
1E007800
1E007800
1E007800
1E3FFFF0
1E3FFFF0
1E7FFFF0
1E7FFFE0
1E000000
ENDCHAR
STARTCHAR 4F50
ENCODING 20304
SWIDTH 990 0
DWIDTH 33 0
BBX 29 31 2 -2
BITMAP
07C3E000
0783C000
0F83C000
0F07C000
1F3FFFF8
1F3FFFF8
1E7FFFF0
3E7FFFF0
3C0F0000
7C0F0000
7E0F0000
7E1F0000
FE1E0000
1E1E0000
1E3FFFF0
1E3FFFE0
1E3FFFE0
1E3FFFE0
1E7C3C00
1E783C00
1E783C00
1EF83C00
1E003C00
1E003C00
1E003C00
1E003C00
1E3FFFF8
1E7FFFF8
1E7FFFF0
1E7FFFF0
1E000000
ENDCHAR
STARTCHAR 4F51
ENCODING 20305
SWIDTH 1020 0
DWIDTH 34 0
BBX 28 32 3 -3
BITMAP
0F83C000
0F07C000
1F078000
1F0F8000
1E7FFFF0
3EFFFFF0
3CFFFFF0
3CFFFFE0
7C1E0000
783E0000
FC3C0000
FC3C0000
FC7C0000
3C7FFFE0
3C7FFFE0
3CFFFFE0
3CFFFFE0
3CFC01E0
3DFC01E0
3DFC01E0
3C3C01E0
3C3C01E0
3C3C01E0
3C3C01E0
3C3C01E0
3C3C01E0
3C3C01E0
3C3C01E0
3C3FFFE0
3C3FFFE0
3C3DFFE0
3C3CFFE0
ENDCHAR
STARTCHAR 4F53
ENCODING 20307
SWIDTH 1020 0
DWIDTH 34 0
BBX 29 32 2 -3
BITMAP
07C07800
07807800
0F807800
0F807800
0F007800
1F007800
1E3FFFF8
1E7FFFF8
3E7FFFF8
3C7FFFF0
7C007800
7E3C78F0
7E3C78F0
FE3C78F0
1E3C78F0
1E3C78F0
1E3C78F0
1E3C78F0
1E3C78F0
1E3C78F0
1E3C78F0
1E3C78F0
1E3FFEF0
1E3FFEF0
1E3FFEF0
1E3FFEF0
1E3C78F0
1E3C78F0
1E3C78F0
1E3C78F0
1E3C78F0
1E3C78F0
ENDCHAR
STARTCHAR 4F55
ENCODING 20309
SWIDTH 1020 0
DWIDTH 34 0
BBX 29 32 2 -3
BITMAP
0F000000
0F000000
0F3FFFF8
1F7FFFF8
1E7FFFF8
1E7FFFF8
3E0001E0
3C0001E0
3C0001E0
7C7FF9E0
787FF9E0
7E7FF9E0
FE7FF9E0
1E7879E0
1E7879E0
1E7879E0
1E7879E0
1E7879E0
1E7879E0
1E7879E0
1E7879E0
1E7FF9E0
1E7FF9E0
1E7BF9E0
1E7BF9E0
1E0001E0
1E0001E0
1E0001E0
1E000FE0
1E000FE0
1E0007E0
1E0007E0
ENDCHAR
STARTCHAR 4F57
ENCODING 20311
SWIDTH 990 0
DWIDTH 33 0
BBX 29 31 2 -2
BITMAP
1F007800
1F007800
1E7FFFF0
1E7FFFF0
3E7FFFF0
3C7FFFF0
3C7800F0
7C7800F0
787800F0
787800F0
7E1E0000
FE1E0000
FE1E0000
1E1E0000
1E1E0000
1E1E01E0
1E1EFFE0
1E1FFFE0
1E1FFFE0
1E1FFC00
1E1E0000
1E1E0000
1E1E0000
1E1E0000
1E1E0000
1E1E0000
1E1FFFE0
1E1FFFF0
1E1FFFF0
1E1FFFF8
1E000000
ENDCHAR
STARTCHAR 4F58
ENCODING 20312
SWIDTH 990 0
DWIDTH 33 0
BBX 27 31 3 -4
BITMAP
0FFFFE00
0FFFFE00
1FFFFF00
1FFFFF00
1E000F00
3E000F80
3C000780
3C000780
7DFFF3C0
79FFF3C0
F9FFF3C0
F00001E0
00000000
00000000
00000000
7FFFFFE0
FFFFFFE0
FFFFFFE0
FFFFFFC0
000F0000
000F0000
1E0F0F00
3E0F0F80
3C0F0780
3C0F0780
3C0F0780
7C0F07C0
787F03C0
787F03C0
783F03C0
F81F03E0
ENDCHAR
STARTCHAR 4F59
ENCODING 20313
SWIDTH 990 0
DWIDTH 33 0
BBX 27 31 3 -4
BITMAP
0FFFFE00
0FFFFE00
1FFFFF00
1FFFFF00
1E000F00
3E000F80
3C000780
3C0007C0
79FFF3C0
79FFF3C0
F9FFF3E0
F00F01E0
000F0000
000F0000
000F0000
7FFFFFE0
FFFFFFE0
FFFFFFE0
FFFFFFC0
000F0000
000F0000
0F0F1F00
1F0F0F00
1E0F0F00
1E0F0F80
3E0F0780
3C0F0780
3C7F0780
3C3F07C0
7C3F03C0
781F03C0
ENDCHAR
STARTCHAR 4F5A
ENCODING 20314
SWIDTH 990 0
DWIDTH 33 0
BBX 28 32 3 -3
BITMAP
1F00F000
1E40F000
1E70F000
3E78F000
3C78F000
3C7FFFE0
3C7FFFC0
7C7FFFC0
787FFFC0
7878F000
F878F000
FC78F000
FC78F000
FC00F000
3C00F000
3C7FFFE0
3C7FFFE0
3CFFFFE0
3CFFFFE0
3C01E000
3C03E000
3C03FC00
3C07FE00
3C079E00
3C0F9F00
3C1F0F80
3C1F0F80
3C3E07C0
3C3C03C0
3C7C03E0
3C7801E0
3CF801F0
ENDCHAR
STARTCHAR 4F5B
ENCODING 20315
SWIDTH 990 0
DWIDTH 33 0
BBX 28 31 3 -3
BITMAP
0F879E00
0F079E00
1F079E00
1F7FFFF0
1E7FFFF0
3EFFFFF0
3CFFFFF0
7C079EF0
7C079EF0
78079EF0
FCFFFFF0
FCFFFFF0
FCFFFFF0
3CFFFFF0
3CF79E00
3CF79E00
3CF79E00
3CF79E00
3CFFFFF0
3CFFFFF0
3CFFFFF0
3CFFFFF0
3C0F1EF0
3C0F1EF0
3C0F1EF0
3C1F1EF0
3C1E1FF0
3C1E1EF0
3C1E1EF0
3C3C1EF0
3C3C1E00
ENDCHAR
STARTCHAR 4F5C
ENCODING 20316
SWIDTH 990 0
DWIDTH 33 0
BBX 29 31 2 -2
BITMAP
0F380000
0F3C0000
1F3C0000
1E3FFFF8
1E3FFFF0
3E3FFFF0
3C3FFFF0
3C3CF000
7C3CF000
783CF000
7E3CF000
FE00FFF0
FE00FFF0
1E00FFE0
1E00FFE0
1E00F000
1E00F000
1E00F000
1E00F000
1E00F000
1E00FFF0
1E00FFE0
1E00FFE0
1E00FFE0
1E00F000
1E00F000
1E00F000
1E00F000
1E00F000
1E00F000
1E00F000
ENDCHAR
STARTCHAR 4F5D
ENCODING 20317
SWIDTH 990 0
DWIDTH 33 0
BBX 28 30 2 -2
BITMAP
0F700000
1F780000
1E7FFFF0
1E7FFFF0
3E7FFFF0
3C7FFFF0
3C7800F0
7C7800F0
780000F0
7E3FF8F0
7E3FF8F0
FE3FF8F0
1E3FF8F0
1E3C78F0
1E3C78F0
1E3C78F0
1E3C78F0
1E3C78F0
1E3C78F0
1E3C78F0
1E3FF8F0
1E3FF8F0
1E3DF8F0
1E3DF8F0
1E0000F0
1E0000F0
1E003FF0
1E001FF0
1E001FF0
1E000FF0
ENDCHAR
STARTCHAR 4F5E
ENCODING 20318
SWIDTH 990 0
DWIDTH 33 0
BBX 28 32 2 -3
BITMAP
0F000000
0F3FFFE0
1F3FFFE0
1E3FFFE0
1E3FFFE0
1E000000
3E000000
3C000000
3C7FFFF0
7C7FFFF0
787FFFF0
7E7FFFF0
7E000000
FE0F0000
1E0F0000
1E7FFFF0
1E7FFFF0
1E7FFFF0
1E7FFFF0
1E0F03C0
1E0F03C0
1E0F03C0
1E0F87C0
1E0FCFC0
1E0FFF80
1E03FF00
1E01FE00
1E01FE00
1E03FF00
1E0FFFC0
1E1F87E0
1E7F03F0
ENDCHAR
STARTCHAR 4F5F
ENCODING 20319
SWIDTH 990 0
DWIDTH 33 0
BBX 29 32 2 -3
BITMAP
0F9F0000
0F1F0000
0F1FFFE0
1F1FFFE0
1E3FFFE0
1E3FFFE0
3E3E01E0
3C0001E0
3C1E01E0
7C1F03E0
781FFFE0
7E1FFFE0
FE07FF80
FE1FFFF0
1E7FFFF8
1E7F87F8
1E7E01F8
1E700038
1E4E0000
1E0FF800
1E0FFFE0
1E0FFFE0
1E03FFE0
1E000FE0
1E000020
1E3C0000
1E3FF000
1E3FFFC0
1E3FFFF0
1E07FFF0
1E001FF0
1E000070
ENDCHAR
STARTCHAR 4F60
ENCODING 20320
SWIDTH 990 0
DWIDTH 33 0
BBX 28 31 3 -3
BITMAP
1F1E0000
1E1E0000
1E3FFFF0
3E3FFFF0
3C3FFFE0
3C3FFFE0
7C3C01E0
787C01E0
787803E0
FC7803E0
FC7803C0
FC00F000
3C00F000
3C00F000
3C3CF3C0
3C3CF3C0
3C3CF3E0
3C3CF3E0
3C3CF3E0
3C7CF1E0
3C7CF1E0
3C78F1E0
3C78F1E0
3C78F1E0
3C78F1E0
3C78F1E0
3C78F1F0
3C7BF1F0
3C7BF1F0
3CF9F0F0
3C01F000
ENDCHAR
STARTCHAR 4F63
ENCODING 20323
SWIDTH 990 0
DWIDTH 33 0
BBX 28 32 2 -3
BITMAP
0F3FFFF0
0F3FFFF0
1F3FFFF0
1F3FFFF0
1E3C78F0
3E3C78F0
3E3C78F0
3C3C78F0
3C3C78F0
7C3FFFF0
7C3FFFF0
7E3FFFF0
FE3FFFF0
1E3C78F0
1E3C78F0
1E3C78F0
1E3C78F0
1E3C78F0
1E3FFFF0
1E3FFFF0
1E3FFFF0
1E3FFFF0
1E3C78F0
1E3C78F0
1E3C78F0
1E3C78F0
1E3C78F0
1E3C78F0
1E3C7BF0
1E3C7BF0
1E3C79F0
1E3C01F0
ENDCHAR
STARTCHAR 4F64
ENCODING 20324
SWIDTH 1020 0
DWIDTH 34 0
BBX 29 31 2 -2
BITMAP
0F000000
0F3FFFF8
1F3FFFF8
1E7FFFF8
1E7FFFF0
3E1E0000
3C1E0000
3C1E0000
3C1FFFC0
781FFFC0
7E1FFFC0
7E1FFFC0
FE1E03C0
1E1E03C0
1E1E03C0
1E1EE3C0
1E1EF3C0
1E1EF3C0
1E1EF3C0
1E1EF3C0
1E1EF3C0
1E1EF3C0
1E1EF3C0
1E1E03C0
1E1E03C0
1E1E03C0
1E1E03C0
1E1FC3F0
1E1FC3F8
1E1FE3F8
1E1FE3F8
ENDCHAR
STARTCHAR 4F65
ENCODING 20325
SWIDTH 1020 0
DWIDTH 34 0
BBX 28 29 3 -2
BITMAP
0FFFFF00
0FFFFF00
1FFFFF00
1FFFFF80
1E000780
3E0007C0
3DFFF3C0
7DFFF3C0
79FFF3E0
79FFF1E0
F80001E0
00000000
10000800
1C0E0F00
1E0F0F80
1E0F0F80
1E0F0F80
1E0F0F80
1E0F0F80
1E0F0F80
1E0F0F80
1E0F0F80
1E0F0F80
00000000
00000000
7FFFFFF0
FFFFFFE0
FFFFFFE0
FFFFFFE0
ENDCHAR
STARTCHAR 4F67
ENCODING 20327
SWIDTH 990 0
DWIDTH 33 0
BBX 29 32 2 -3
BITMAP
0F81E000
0F01E000
0F01E000
1F01E000
1E01FFF0
1E01FFE0
3E01FFE0
3C01FFC0
3C01E000
7C01E000
7801E000
7E3FFFF8
FE7FFFF0
FE7FFFF0
1EFFFFE0
1E000000
1E000000
1E01E000
1E01E000
1E01E780
1E01E7C0
1E01E3C0
1E01E3C0
1E01E3E0
1E01E1E0
1E01E1E0
1E01E1E0
1E01E0F0
1E01E0F0
1E01E000
1E01E000
1E01E000
ENDCHAR
STARTCHAR 4F69
ENCODING 20329
SWIDTH 1020 0
DWIDTH 34 0
BBX 30 32 2 -3
BITMAP
1E000000
1EFFFFF0
3EFFFFF0
3EFFFFF0
3CFFFFF0
3CF000F0
3CF3FEF0
7CF7FCF0
78F7FCF0
78F7FCF0
7CF0F0F0
FCF0F0F0
FCF0F0F0
3CF7FCF0
3CF7FCF0
3CF7FCF0
3CF7FCF0
3CF6ECF0
3CF6ECF0
3CF6ECF0
3CF6ECF0
3CF6ECF0
3CF6ECF0
3CF6ECF0
3CF6ECF0
3CF6FCF0
3CF6FCF0
3CF6ECF0
3CF6ECF8
3CF0E0F8
3CF0E0FC
3CF0E0FC
ENDCHAR
STARTCHAR 4F6C
ENCODING 20332
SWIDTH 990 0
DWIDTH 33 0
BBX 28 31 2 -2
BITMAP
0F80F000
0F00F000
0F00F000
1F3FFFE0
1E3FFFE0
3E3FFFE0
3C3FFFE0
3C00F000
7C00F3C0
7800F3C0
7E00F3C0
FE7FFFF0
1E7FFFF0
1E7FFFF0
1E7FFFF0
1E1E0000
1E1E0000
1E3F8000
1E3F81E0
1E3FBFE0
1E7FFFE0
1E7FFFE0
1EFFFF00
1EF7E000
1E078000
1E078000
1E078000
1E07FFE0
1E07FFF0
1E07FFF0
1E07FFF0
ENDCHAR
STARTCHAR 4F6F
ENCODING 20335
SWIDTH 990 0
DWIDTH 33 0
BBX 28 32 2 -3
BITMAP
00040400
07878700
0F878780
0F078780
0F3FFFF0
1F3FFFF0
1E3FFFE0
1E7FFFE0
3E007800
3C007800
7C007800
7C007800
7E007800
FE3FFFE0
1E3FFFE0
1E3FFFE0
1E3FFFE0
1E007800
1E007800
1E007800
1E007800
1E3FFFF0
1E3FFFF0
1E7FFFF0
1E7FFFE0
1E007800
1E007800
1E007800
1E007800
1E007800
1E007800
1E007800
ENDCHAR
STARTCHAR 4F70
ENCODING 20336
SWIDTH 990 0
DWIDTH 33 0
BBX 29 32 2 -3
BITMAP
0F000000
0F3FFFF8
1F7FFFF8
1E7FFFF0
1E7FFFF0
3E00F800
3C00F000
3C00F000
7C3FFFE0
7C3FFFE0
783FFFE0
7E3FFFE0
FE3C01E0
1E3C01E0
1E3C01E0
1E3C01E0
1E3C01E0
1E3C01E0
1E3FFFE0
1E3FFFE0
1E3FFFE0
1E3FFFE0
1E3C01E0
1E3C01E0
1E3C01E0
1E3C01E0
1E3C01E0
1E3C01E0
1E3DFFE0
1E3CFFE0
1E3CFFE0
1E3C7FE0
ENDCHAR
STARTCHAR 4F73
ENCODING 20339
SWIDTH 990 0
DWIDTH 33 0
BBX 29 32 2 -3
BITMAP
0F807800
0F007800
0F007800
1F007800
1E1FFFE0
1E1FFFE0
3E1FFFE0
3C1FFFE0
3C007800
7C007800
78007800
7E3FFFF8
FE3FFFF8
FE3FFFF0
1E7FFFF0
1E000000
1E007800
1E007800
1E007800
1E007800
1E3FFFF0
1E3FFFF0
1E3FFFF0
1E3FFFF0
1E007800
1E007800
1E007800
1E3FFFF8
1E3FFFF0
1E7FFFF0
1E7FFFF0
1E000000
ENDCHAR
STARTCHAR 4F74
ENCODING 20340
SWIDTH 1020 0
DWIDTH 34 0
BBX 29 32 2 -4
BITMAP
0F800000
0F3FFFF8
0F3FFFF8
1F3FFFF8
1E3FFFF8
1E0F03C0
3E0F03C0
3C0F03C0
3C0FFFC0
7C0FFFC0
7E0FFFC0
7E0FFFC0
FE0F03C0
1E0F03C0
1E0F03C0
1E0F03C0
1E0FFFC0
1E0FFFC0
1E0FFFC0
1E0FFFC0
1E0F03C0
1E0F03C0
1E0F03C0
1E3FFFF8
1E3FFFF8
1E3FFFF8
1E3FFFF8
1E0003C0
1E0003C0
1E0003C0
1E0003C0
1E0003C0
ENDCHAR
STARTCHAR 4F76
ENCODING 20342
SWIDTH 990 0
DWIDTH 33 0
BBX 29 31 2 -2
BITMAP
0F007800
0F007800
1F007800
1E3FFFF8
1E7FFFF8
1E7FFFF8
3C7FFFF0
3C007800
3C007800
7C007800
7E007800
7E3FFFF0
FE3FFFF0
1E3FFFF0
1E3FFFF0
1E000000
1E000000
1E000000
1E1FFFE0
1E1FFFE0
1E1FFFE0
1E1FFFE0
1E1E01E0
1E1E01E0
1E1E01E0
1E1E01E0
1E1E01E0
1E1FFFE0
1E1FFFE0
1E1EFFE0
1E1E7FE0
ENDCHAR
STARTCHAR 4F7B
ENCODING 20347
SWIDTH 1020 0
DWIDTH 34 0
BBX 30 32 2 -3
BITMAP
0F83CF00
0F03CF00
0F03CF00
1F43CF08
1F73CF38
1E7BCF78
3E7BCF78
3E7BCF78
3C7BCF78
7C7BCF78
7C7BCF78
7E7BCF78
FE03CF00
1E03CF00
1E7BCF78
1E7BCF78
1E7BCF78
1E7BCF78
1E7BCF78
1E7BCF78
1E7BCF78
1E7BCF78
1E7FCF78
1E67CF18
1E078F00
1E0F8F00
1E0F0F00
1E1F0F00
1E1F0FF8
1E1E0FF8
1E3E0FF8
1E3C0FFC
ENDCHAR
STARTCHAR 4F7C
ENCODING 20348
SWIDTH 990 0
DWIDTH 33 0
BBX 28 31 2 -2
BITMAP
0F807800
0F007800
0F3FFFF0
1F7FFFF0
1E7FFFF0
1E7FFFE0
3E000000
3E1E03C0
3C1E03C0
7C3E03C0
7C3C01E0
7E3C01E0
7E3C01E0
FE000000
1E1E03C0
1E1E03C0
1E1E03C0
1E1E03C0
1E1E03C0
1E1F07C0
1E1FCFC0
1E07FF80
1E03FF00
1E01FE00
1E00FC00
1E01FE00
1E03FF00
1E07FF80
1E0FCFC0
1E1F07E0
1E3E03F0
ENDCHAR
STARTCHAR 4F7E
ENCODING 20350
SWIDTH 990 0
DWIDTH 33 0
BBX 28 31 2 -2
BITMAP
078F8780
0F8F0780
0F0F07C0
0F1F03C0
1F1E03C0
1E1E03E0
3E3E01E0
3E3C01E0
3C3FFFF0
7C7FFFF0
7C7FFFF0
7E1FFFC0
FE1E03C0
1E1E03C0
1E1FFFC0
1E1FFFC0
1E1FFFC0
1E1FFFC0
1E1E03C0
1E1E03C0
1E1E03C0
1E1FFFC0
1E1FFFC0
1E1FFFC0
1E1FFFC0
1E1E03C0
1E1E03C0
1E1E1FC0
1E1E0FC0
1E1E0FC0
1E1E07C0
ENDCHAR
STARTCHAR 4F7F
ENCODING 20351
SWIDTH 990 0
DWIDTH 33 0
BBX 28 31 2 -2
BITMAP
0780F000
0F00F000
0F3FFFF0
1F7FFFF0
1E7FFFF0
1E7FFFE0
3E00F000
3C00F000
7C3FFFE0
783FFFE0
7E3FFFE0
FE3FFFE0
1E3CF1E0
1E3CF1E0
1E3CF1E0
1E3CF1E0
1E3FFFE0
1E3FFFE0
1E3FFFE0
1E3FFFE0
1E01E000
1E23C000
1E3FC000
1E3F8000
1E3FC000
1E3FF000
1E1FFC00
1E1FFFF0
1E1EFFF0
1E3E1FF0
1E3C07F0
ENDCHAR
STARTCHAR 4F83
ENCODING 20355
SWIDTH 990 0
DWIDTH 33 0
BBX 29 32 2 -3
BITMAP
0F000000
0F3FFFE0
0F3FFFE0
1F3FFFE0
1E3FFFE0
1E3C01E0
3E3C01E0
3C3C01E0
3C3C01E0
3C3C01E0
783C01E0
7E3FFFE0
7E3FFFE0
FE3DFFE0
1E3DFFE0
1E000000
1E1E7BC0
1E3E7BC0
1E3E7BC0
1E3E7BC0
1E3E7BC0
1E3C7BC0
1E3C7BC0
1E3C7BC0
1E3C7BC0
1E3C7BC0
1E3C7BC0
1E7C7BC0
1E7C7BF0
1E7C7BF0
1E787BF8
1E787BF8
ENDCHAR
STARTCHAR 4F84
ENCODING 20356
SWIDTH 990 0
DWIDTH 33 0
BBX 28 31 2 -2
BITMAP
0FBFFFF0
0F7FFFF0
1F7FFFE0
1F7FFFE0
1E0F8000
3E0F8000
3E0F8180
3C1F01E0
7C1F01E0
7C1F01E0
781FFFE0
FE3FFFE0
FE3FFFE0
1E3FFFE0
1E000000
1E007800
1E007800
1E007800
1E007800
1E3FFFE0
1E3FFFE0
1E3FFFE0
1E3FFFE0
1E007800
1E007800
1E007800
1E007800
1E7FFFF0
1E7FFFF0
1E7FFFF0
1E7FFFF0
ENDCHAR
STARTCHAR 4F88
ENCODING 20360
SWIDTH 990 0
DWIDTH 33 0
BBX 27 32 3 -3
BITMAP
0F400000
0F780000
0F780000
1E7FFFE0
1E7FFFE0
1E7FFFE0
3C7FFFE0
3C7801E0
3C7801E0
780003E0
780F03C0
7E0F07C0
FE0F0F80
FE0F0F80
1E0F1F00
1E003E00
1E707E00
1E780000
1E7FFFE0
1E7FFFE0
1E7FFFE0
1E7FFFE0
1E7801E0
1E7801E0
1E0003E0
1E0003E0
1E0E07C0
1E0F0F80
1E0F1F00
1E0F1F00
1E0F3E00
1E007C00
ENDCHAR
STARTCHAR 4F89
ENCODING 20361
SWIDTH 1020 0
DWIDTH 34 0
BBX 28 31 3 -2
BITMAP
1E03C000
1E07C000
1E7FFFF0
3EFFFFF0
3CFFFFF0
3CFFFFE0
7C3E07C0
783C03C0
787C03E0
F87FFFF0
FCFFFFF0
FC1FFF80
FC1FFF80
3C000000
3C7FFFF0
3C7FFFF0
3CFFFFF0
3CFFFFE0
3C1E0000
3C1E0000
3C1FFFC0
3C1FFFC0
3C1FFFC0
3C1FFFC0
3C0003C0
3C0003C0
3C0003C0
3C007FC0
3C007FC0
3C003FC0
3C003FC0
ENDCHAR
STARTCHAR 4F8B
ENCODING 20363
SWIDTH 990 0
DWIDTH 33 0
BBX 29 32 2 -3
BITMAP
1E000078
1EFFF078
1EFFF078
3EFFF078
3CFFE078
3C3C0078
3C3C0C78
7C7C0E78
787FEE78
787FEE78
787FEE78
FC7FEE78
FCF9EE78
3CF9EE78
3CF9EE78
3CF1EE78
3CF1EE78
3C01EE78
3C7FEE78
3C7FEE78
3CFFEE78
3CFFCE78
3C07CE78
3C07CE78
3C078078
3C0F8078
3C0F0078
3C1F0078
3C1F03F8
3C1E03F8
3C3E03F8
3C3C01F8
ENDCHAR
STARTCHAR 4F8D
ENCODING 20365
SWIDTH 990 0
DWIDTH 33 0
BBX 29 31 2 -2
BITMAP
0F807800
0F007800
0F3FFFF0
1F3FFFF0
1E3FFFF0
1E3FFFF0
3C007800
3C007800
7C007800
78007800
7E3FFFF8
FE3FFFF8
FE7FFFF0
1E7FFFF0
1E000000
1E0007C0
1E0007C0
1E3FFFF8
1E3FFFF8
1E7FFFF0
1E7FFFF0
1E0007C0
1E0007C0
1E0807C0
1E0E07C0
1E0F07C0
1E0F07C0
1E0F3FC0
1E0F1FC0
1E0F1FC0
1E000FC0
ENDCHAR
STARTCHAR 4F8F
ENCODING 20367
SWIDTH 990 0
DWIDTH 33 0
BBX 29 32 2 -3
BITMAP
0F807800
0FA07800
0F387800
1F3C7800
1F3C7800
1E3FFFF0
3E3FFFE0
3E3FFFE0
3C3FFFE0
7C3C7800
7C3C7800
7E007800
7E007800
FE007800
1E3FFFF8
1E3FFFF0
1E7FFFF0
1E7FFFF0
1E007800
1E007800
1E3E79E0
1E3E79E0
1E3C79F0
1E3C79F0
1E3C78F0
1E3C78F0
1E3C78F0
1E3C78F0
1E7C78F0
1E7C78F0
1E7878F8
1E7878F8
ENDCHAR
STARTCHAR 4F91
ENCODING 20369
SWIDTH 990 0
DWIDTH 33 0
BBX 29 31 2 -2
BITMAP
0F078000
0F0F8000
1F3FFFF8
1E7FFFF8
1E7FFFF0
3E7FFFF0
3C1E0000
3C1E0000
3C1FFFE0
7C3FFFE0
7E3FFFE0
7E3FFFE0
FE3E01E0
1E7E01E0
1E7FFFE0
1E7FFFE0
1E7FFFE0
1EFFFFE0
1E1E01E0
1E1E01E0
1E1E01E0
1E1FFFE0
1E1FFFE0
1E1FFFE0
1E1FFFE0
1E1E01E0
1E1E01E0
1E1E0FE0
1E1E0FE0
1E1E07E0
1E1E07E0
ENDCHAR
STARTCHAR 4F94
ENCODING 20372
SWIDTH 990 0
DWIDTH 33 0
BBX 29 31 2 -2
BITMAP
0F0F0000
0F1F00C0
1F1F00F0
1E1E00F0
1E1E00F0
3E3FFFF0
3C3FFFF0
3C3FFFF0
7C3FFFF0
7C000000
7E007800
FE387800
1E3C7800
1E3FFFF0
1E3FFFF0
1E3FFFE0
1E3FFFE0
1E3C7800
1E3C7800
1E007800
1E007800
1E7FFFF8
1E7FFFF8
1E7FFFF0
1E7FFFF0
1E007800
1E007800
1E007800
1E007800
1E007800
1E007800
ENDCHAR
STARTCHAR 4F97
ENCODING 20375
SWIDTH 1020 0
DWIDTH 34 0
BBX 28 31 3 -2
BITMAP
1F000000
1E7FFFF0
1E7FFFF0
3E7FFFF0
3C7FFFF0
3C7800F0
7C7BFEF0
787BFEF0
787BFEF0
787BFEF0
FC7800F0
FC7800F0
FC7800F0
3C7BFEF0
3C7BFEF0
3C7BFEF0
3C7BFEF0
3C7BDEF0
3C7BDEF0
3C7BDEF0
3C7BDEF0
3C7BFEF0
3C7BFEF0
3C7BFEF0
3C7BFEF0
3C7800F0
3C7800F0
3C7807F0
3C7803F0
3C7803F0
3C7801F0
ENDCHAR
STARTCHAR 4F9B
ENCODING 20379
SWIDTH 990 0
DWIDTH 33 0
BBX 28 31 3 -2
BITMAP
1E1E0F00
1E1E0F00
1E1E0F00
3C1E0F00
3C1E0F00
3CFFFFE0
78FFFFE0
78FFFFE0
78FFFFE0
FC1E0F00
FC1E0F00
FC1E0F00
FC1E0F00
3C1E0F00
3C1E0F00
3C1E0F00
3C1E0F00
3CFFFFF0
3CFFFFF0
3DFFFFF0
3DFFFFE0
3C000000
3C3E0F80
3C3C0780
3C7C07C0
3C7C07C0
3C7803C0
3CF803E0
3CF803E0
3CF801E0
3DF001F0
ENDCHAR
STARTCHAR 4F9D
ENCODING 20381
SWIDTH 990 0
DWIDTH 33 0
BBX 28 32 3 -3
BITMAP
00008000
0F00F000
1F00F000
1E00F000
1E7FFFF0
3E7FFFE0
3CFFFFE0
3CFFFFE0
7C0F0000
781F0000
781E0000
FC3E1E00
FC3E1E00
FC3C1E00
3C7C1F00
3C780FF0
3C7E0FF0
3CFE0FE0
3CFE0FE0
3CFE0780
3DFE0780
3C1E0780
3C1E07C0
3C1E03C0
3C1E03C0
3C1E03C0
3C1E03E0
3C1E01E0
3C1FE1E0
3C1FE1E0
3C1FF1F0
3C1FF0F0
ENDCHAR
STARTCHAR 4FA0
ENCODING 20384
SWIDTH 990 0
DWIDTH 33 0
BBX 29 31 2 -2
BITMAP
0F807800
0F807800
0F3FFFF0
1F3FFFF0
1E3FFFF0
1E3FFFF0
3E007800
3C207900
3C3879C0
7C3C79E0
7E3C79E0
7E3C79E0
FE3C79E0
1E007800
1E007800
1E7FFFF8
1E7FFFF8
1E7FFFF8
1EFFFFF0
1E00F000
1E01FE00
1E03FF00
1E03EF00
1E07CF80
1E078780
1E0F87C0
1E0F03C0
1E1F03E0
1E3E01F0
1E3C01F0
1E7C00F8
ENDCHAR
STARTCHAR 4FA3
ENCODING 20387
SWIDTH 990 0
DWIDTH 33 0
BBX 28 32 2 -3
BITMAP
07800000
0F1FFFF0
0F1FFFF0
0F1FFFF0
1E1FFFF0
1E1E00F0
1E1E00F0
3C1E00F0
3C1E00F0
3C1E00F0
781EFFF0
7E1EFFF0
7E1E7FF0
FE1E7FF0
1E000000
1E000000
1E3FFFF0
1E3FFFF0
1E3FFFF0
1E3FFFF0
1E3C00F0
1E3C00F0
1E3C00F0
1E3C00F0
1E3C00F0
1E3C00F0
1E3C00F0
1E3C00F0
1E3DFFF0
1E3DFFF0
1E3CFFF0
1E3CFFF0
ENDCHAR
STARTCHAR 4FA5
ENCODING 20389
SWIDTH 990 0
DWIDTH 33 0
BBX 29 31 2 -2
BITMAP
0707C000
0F03FFF0
0F7FFFF0
0F7FFFF0
1E7FFFF0
1E7FF000
3E40F870
3C00FBF0
3C007FF0
7C01FFF0
7C1FFFC0
7E7FFE00
FE7FDFE0
1E7C1FE0
1E401FF0
1E000FF0
1E000000
1E7FFFF8
1E7FFFF0
1E7FFFF0
1E7FFFF0
1E1F0780
1E1F0780
1E1E0780
1E3E0780
1E3E0780
1E3E0780
1E3C07F0
1E7C07F0
1E7C07F0
1E7807F8
ENDCHAR
STARTCHAR 4FA6
ENCODING 20390
SWIDTH 990 0
DWIDTH 33 0
BBX 29 31 2 -2
BITMAP
0F00F000
0F00FFF8
0F00FFF0
1F00FFF0
1E00FFF0
1E00F000
3E00F000
3C00F000
3C3FFFE0
7C3FFFE0
7E3FFFE0
7E3FFFE0
FE3C01E0
1E3C79E0
1E3C79E0
1E3C79E0
1E3C79E0
1E3C79E0
1E3C79E0
1E3C79E0
1E3C79E0
1E3CF9E0
1E3CF9E0
1E01FE00
1E03FF00
1E07CF80
1E0F8F80
1E1F07C0
1E1F03E0
1E3E01F0
1E7C01F8
ENDCHAR
STARTCHAR 4FA7
ENCODING 20391
SWIDTH 990 0
DWIDTH 33 0
BBX 29 32 2 -3
BITMAP
1E000078
1E000078
1EFFF078
3EFFF078
3CFFF478
3CFFF778
3CE07778
7CE07778
78EF7778
78EF7778
78EF7778
FCEF7778
FCEF7778
3CEF7778
3CEF7778
3CEF7778
3CEF7778
3CEF7778
3CEF7778
3CEF7778
3CEF7778
3CEF7778
3C1F0778
3C1FC778
3C3FC078
3C3FE078
3C3DE078
3C7DE078
3C79F3F8
3C78F1F8
3CF0F1F8
3CF070F8
ENDCHAR
STARTCHAR 4FA8
ENCODING 20392
SWIDTH 1020 0
DWIDTH 34 0
BBX 28 32 3 -3
BITMAP
0F000000
1F000000
1E1FFFE0
1E3FFFC0
3E3FFFC0
3C3FFFC0
3C03C000
7C07C000
787FFFF0
787FFFF0
F8FFFFF0
FCFFFFE0
FC1E07C0
FC3E03C0
3C3E03C0
3C7C03E0
3C7C01E0
3C7801F0
3C000000
3C1E0780
3C1E0780
3C3E0780
3C3E0780
3C3C0780
3C3C0780
3C3C0780
3C7C0780
3C7C0780
3C780780
3C780780
3C780780
3CF80780
ENDCHAR
STARTCHAR 4FA9
ENCODING 20393
SWIDTH 990 0
DWIDTH 33 0
BBX 28 31 2 -1
BITMAP
0F1FFFC0
1F3FFFE0
1E3FFFE0
1E3FFFE0
3E3C01E0
3E7C01F0
3C7C01F0
7C7800F0
7C7800F0
78000000
78000000
FE3FFFE0
FE3FFFE0
1E3FFFE0
1E3FFFE0
1E000000
1E000000
1E3FFFF0
1E7FFFF0
1E7FFFF0
1E7FFFE0
1E1F0000
1E1F0000
1E1E0100
1E1E01C0
1E3E01E0
1E3E01E0
1E3FFFE0
1E3FFFE0
1E3FFFE0
1E7FFFE0
ENDCHAR
STARTCHAR 4FAA
ENCODING 20394
SWIDTH 990 0
DWIDTH 33 0
BBX 29 31 2 -2
BITMAP
0F807800
0F007800
0F3FFFF8
1F3FFFF0
1E7FFFF0
1E7FFFF0
3E0F03C0
3C0F03C0
3C0F03C0
7C0F03C0
780F87C0
7E0FFFC0
FE07FF00
1E01FE00
1E01FE00
1E07FF00
1E0FFF80
1E1FCFC0
1E3F07F0
1E000000
1E0F03C0
1E0F03C0
1E0F03C0
1E1F03C0
1E1F03C0
1E1E03C0
1E1E03C0
1E1E03C0
1E1E03C0
1E1E03C0
1E3E03C0
ENDCHAR
STARTCHAR 4FAC
ENCODING 20396
SWIDTH 990 0
DWIDTH 33 0
BBX 29 32 2 -3
BITMAP
0F007800
0F007800
0F007800
1F7FFFF0
1E7FFFF0
1E7FFFF0
3E7FFFF0
3E78F0F0
3C79F0F0
3C79F0F0
7C03E000
7E03E000
7E07C000
FE07CF00
1E07CF00
1E0F8F00
1E0F8F80
1E1F0780
1E1F87F8
1E3F87F8
1E3F87F0
1E3F83F0
1E7F83C0
1E0783C0
1E0781E0
1E0781E0
1E0781E0
1E0781F0
1E07F8F0
1E07F8F0
1E07F8F0
1E07FCF8
ENDCHAR
STARTCHAR 4FAE
ENCODING 20398
SWIDTH 990 0
DWIDTH 33 0
BBX 29 32 2 -3
BITMAP
0F200000
0F3C0000
1F3FFFF8
1F3FFFF0
1E3FFFF0
1E3FFFF0
3E3C0000
3C000000
3C1FFFE0
7C1FFFE0
7E1FFFE0
7E1FFFE0
7E1E41E0
FE1E79E0
1E1E79E0
1E1E79E0
1E3FFFF8
1E7FFFF8
1E7FFFF8
1E7FFFF0
1E1E01E0
1E1E79E0
1E1E79E0
1E1E79E0
1E1FFFF8
1E1FFFF8
1E1FFFF0
1E1FFFF0
1E0001E0
1E000FE0
1E0007E0
1E0007E0
ENDCHAR
STARTCHAR 4FAF
ENCODING 20399
SWIDTH 990 0
DWIDTH 33 0
BBX 29 32 2 -3
BITMAP
07800000
0F1FFFC0
0F1FFFC0
0F1FFFC0
1E3FFFC0
1E0003C0
1E3FFFF8
3C7FFFF0
3C7FFFF0
3C7FFFF0
7E000000
7E200000
7E3C0000
FE3C0000
1E3FFFF0
1E3FFFE0
1E3FFFE0
1E3FFFE0
1E3C7800
1E007800
1E7FFFF0
1E7FFFF0
1E7FFFF0
1E7FFFF0
1E01F000
1E03FF00
1E07DF00
1E0FCF80
1E0F87C0
1E1F03E0
1E3E01F0
1E7E00F0
ENDCHAR
STARTCHAR 4FB5
ENCODING 20405
SWIDTH 990 0
DWIDTH 33 0
BBX 28 31 3 -3
BITMAP
1F3FFFE0
1E3FFFE0
1E3FFFE0
3E3FFFE0
3C0001E0
3C1FFFE0
3C1FFFE0
7C1FFFE0
783FFFE0
783FFFE0
F83FFFE0
FC3FFFE0
FC000000
3CFFFFF0
3CFFFFF0
3CFFFFF0
3CF000F0
3C000000
3C3FFFE0
3C3FFFE0
3C7FFFE0
3C0001E0
3C3C01E0
3C3F07E0
3C3FFFE0
3C1FFFC0
3C1FFFC0
3CFFFFF0
3CFF8FF0
3CF801F0
3CC00030
ENDCHAR
STARTCHAR 4FBF
ENCODING 20415
SWIDTH 1020 0
DWIDTH 34 0
BBX 30 31 2 -3
BITMAP
0FBFFFFC
0F7FFFF8
0F7FFFF8
1F7FFFF8
1E007800
1E007800
3E3FFFF0
3E3FFFF0
3C3FFFF0
7C3FFFF0
7C3C78F0
7E3C78F0
FE3FFFF0
1E3FFFF0
1E3FFFF0
1E3C78F0
1E3C78F0
1E3FFFF0
1E3FFFF0
1E3FFFF0
1E3FFFF0
1E01F000
1E71E000
1E7FC000
1E7FC000
1E7FF800
1E3FFE00
1E1FFFFC
1E3EFFF8
1E3E1FF8
1E7C03F0
ENDCHAR
STARTCHAR 4FC3
ENCODING 20419
SWIDTH 990 0
DWIDTH 33 0
BBX 28 30 2 -1
BITMAP
0F800000
0F3FFFE0
1F3FFFE0
1F3FFFE0
1E3FFFE0
3E3C01E0
3E3C01E0
7C3C01E0
7C3C01E0
783C01E0
FE3FFFE0
FE3FFFE0
1E3DFFE0
1E3DFFE0
1E007800
1E1E7800
1E1E7800
1E1E7FF0
1E3E7FE0
1E3C7FE0
1E3C7FE0
1E3C7800
1E3C7800
1E7E7800
1E7F7800
1E7FF800
1E7FFFF0
1E7FFFF0
1E7BFFF0
1EF9FFE0
ENDCHAR
STARTCHAR 4FC4
ENCODING 20420
SWIDTH 990 0
DWIDTH 33 0
BBX 29 31 2 -2
BITMAP
1F7FDE40
1E7F9E70
1E7F9E70
1E7F9F70
3E1E1F70
3C1E1F70
3C1E1F00
7C1E1F00
78FFFFF8
78FFFFF0
FCFFFFF0
FCFFFFF0
FC1E0F00
3C1E0F00
3C1E0F00
3C1E0F80
3C1E8F80
3C1F8FB0
3CFF8FF0
3CFF8FF0
3CFE1FF0
3CFE7FC0
3C1E7F80
3C1E7F80
3C1E7F80
3C1E4780
3C1E0780
3CFE07F0
3C7E07F0
3C7E07F0
3C7E07F8
ENDCHAR
STARTCHAR 4FC5
ENCODING 20421
SWIDTH 1020 0
DWIDTH 34 0
BBX 28 32 3 -3
BITMAP
1F00F000
1E00F300
1E00F3C0
3E00F3C0
3E00F3C0
3C00F000
3C7FFFF0
7C7FFFF0
78FFFFE0
78FFFFE0
F800F000
FC00F000
FC60F060
FC78F1E0
3C78F1E0
3C78F1E0
3C78F1E0
3C78F1E0
3C78F1E0
3C00F000
3C78F1E0
3C78F1E0
3C78F1E0
3C78F1E0
3C78F1E0
3C78F1E0
3C78F1E0
3C70F0E0
3C43F020
3C03F000
3C03F000
3C01F000
ENDCHAR
STARTCHAR 4FCA
ENCODING 20426
SWIDTH 990 0
DWIDTH 33 0
BBX 28 32 2 -3
BITMAP
0F8F0000
0F8F0100
0F1F01E0
1F1E01E0
1F1FFFE0
1E3FFFE0
1E3FFFE0
3E3FFFE0
3C000000
3C1E03E0
7C3E01E0
7E3C01F0
7E7C00F0
FE000000
1E1F0000
1E1FFFE0
1E3FFFE0
1E3FFFE0
1E7FFFE0
1E7801E0
1E0001E0
1E1E01E0
1E1E03E0
1E1F87E0
1E1FDFE0
1E0FFF80
1E03FF00
1E01FE00
1E03FF00
1E0FFFC0
1E1FCFE0
1E7F87F0
ENDCHAR
STARTCHAR 4FCE
ENCODING 20430
SWIDTH 1020 0
DWIDTH 34 0
BBX 30 32 2 -3
BITMAP
0F000000
0F03FFF0
0F03FFF0
1F03FFF0
1E03FFF0
1F83C0F0
1FC3C0F0
3FC3C0F0
3FC3C0F0
3FC3C0F0
3FE3FFF0
7DE3FFF0
79E3FFF0
79E3FFF0
79F3C0F0
0003C0F0
0F03C0F0
0F03C0F0
1F03C0F0
1E03FFF0
1E03FFF0
1F83FFF0
1FC3FFF0
3FC3C0F0
3FC3C0F0
3FC3C0F0
3FE3C0F0
7FE3C0F0
7DE7FFFC
79E7FFF8
79F7FFF8
F9FFFFF8
ENDCHAR
STARTCHAR 4FCF
ENCODING 20431
SWIDTH 990 0
DWIDTH 33 0
BBX 27 32 3 -3
BITMAP
1E00F000
1E00F000
1E30F180
3E3CF1E0
3C3CF1E0
3C3CF1E0
7C3CF1E0
783CF1E0
7800F000
F87FFFE0
FC7FFFE0
FC7FFFE0
FC7FFFE0
3C7C01E0
3C7C01E0
3C7FFFE0
3C7FFFE0
3C7FFFE0
3C7FFFE0
3C7C01E0
3C7C01E0
3C7FFFE0
3C7FFFE0
3C7FFFE0
3C7FFFE0
3C7C01E0
3C7C01E0
3C7C01E0
3C7C0FE0
3C7C0FE0
3C7C0FE0
3C7C07E0
ENDCHAR
STARTCHAR 4FD0
ENCODING 20432
SWIDTH 990 0
DWIDTH 33 0
BBX 29 32 2 -3
BITMAP
1E000078
1E000078
3EFFF078
3CFFF078
3CFFE078
3DFFE078
3C0F0678
7C0F0778
79FFF778
79FFF778
79FFF778
7DFFF778
FC0F0778
FC0F0778
3DCF7778
3DCF7778
3DCF7778
3DCF7778
3DCF7778
3DCF7778
3DCF7778
3DCF7778
3DCF7778
3DCF7778
3DCF7078
3DCF7078
3DCF7078
3DCF7078
3DCF73F8
3DCF73F8
3DCF71F8
3DCF71F8
ENDCHAR
STARTCHAR 4FD1
ENCODING 20433
SWIDTH 990 0
DWIDTH 33 0
BBX 27 31 3 -2
BITMAP
0F1FFFE0
1F3FFFC0
1E3FFFC0
1E7FFFC0
3E000780
3C060780
3C078F00
7C078F00
787FFFE0
787FFFE0
FC7FFFE0
FC7FFFE0
FC78F1E0
3C78F1E0
3C7FFFE0
3C7FFFE0
3C7FFFE0
3C7FFFE0
3C78F1E0
3C78F1E0
3C78F1E0
3C7FFFE0
3C7FFFE0
3C7FFFE0
3C7FFFE0
3C78F1E0
3C78F1E0
3C78F3E0
3C78F3E0
3C78F3E0
3C78F3E0
ENDCHAR
STARTCHAR 4FD7
ENCODING 20439
SWIDTH 990 0
DWIDTH 33 0
BBX 29 32 2 -3
BITMAP
0F8F07C0
0F1F03C0
0F1E03C0
1F1E03E0
1E3E01E0
1E3C01F0
3E7C00F0
3C000000
3C000000
3C0FFFC0
781FFFC0
7E1FFFC0
7E1FFFE0
FE3E03E0
1E3E01E0
1E3C01F0
1E7C00F0
1E7800F8
1E000000
1E3FFFE0
1E3FFFE0
1E3FFFE0
1E3FFFE0
1E3C01E0
1E3C01E0
1E3C01E0
1E3C01E0
1E3C01E0
1E3DFFE0
1E3CFFE0
1E3CFFE0
1E3C7FE0
ENDCHAR
STARTCHAR 4FD8
ENCODING 20440
SWIDTH 990 0
DWIDTH 33 0
BBX 28 31 3 -3
BITMAP
1E3FFFF0
1E3FFFF0
3E7FFFE0
3C7FFFE0
3C000000
3C208200
7C3CF3C0
783CF3C0
783CF3C0
F83CF3C0
FC000000
FC1FFFC0
FC1FFF80
3C3FFF80
3C3FFF00
3C001E00
3C003E00
3C003C00
3C7FFFF0
3C7FFFF0
3CFFFFE0
3CFFFFE0
3C00F000
3C00F000
3C00F000
3C00F000
3C00F000
3C00F000
3C00F000
3C00F000
3C008000
ENDCHAR
STARTCHAR 4FDA
ENCODING 20442
SWIDTH 990 0
DWIDTH 33 0
BBX 29 32 2 -2
BITMAP
0F800000
0F3FFFF0
0F3FFFF0
1F3FFFF0
1E3FFFF0
1E3C78F0
1E3C78F0
3E3C78F0
3C3FFFF0
3C3FFFF0
7C3FFFF0
7E3C78F0
7E3C78F0
FE3C78F0
1E3FFFF0
1E3DFFF0
1E3DFFF0
1E3DFFF0
1E007800
1E007800
1E007800
1E3FFFF0
1E3FFFF0
1E3FFFF0
1E3FFFF0
1E007800
1E007800
1E007800
1E3FFFF8
1E7FFFF8
1E7FFFF8
1E7FFFF0
ENDCHAR
STARTCHAR 4FDC
ENCODING 20444
SWIDTH 1020 0
DWIDTH 34 0
BBX 29 32 2 -3
BITMAP
0F807800
0F007800
1F3FFFF0
1F3FFFF0
1E3FFFF0
1E3FFFF0
3E3C78F0
3C3FFFF0
3C3FFFF0
7C3FFFF0
783C78F0
7E3FFFF0
FE3FFFF0
FE3FFFF0
1E3FFFF0
1E000000
1E7FFFF8
1E7FFFF8
1E7FFFF8
1EFFFFF0
1E1E0000
1E1E0000
1E1FFFE0
1E1FFFE0
1E1FFFE0
1E1FFFE0
1E0001E0
1E0001E0
1E001FE0
1E001FE0
1E000FE0
1E000FE0
ENDCHAR
STARTCHAR 4FDD
ENCODING 20445
SWIDTH 990 0
DWIDTH 33 0
BBX 29 31 2 -4
BITMAP
07BFFFE0
0FBFFFE0
0F3FFFE0
1F3FFFE0
1F3C01E0
1E3C01E0
3E3C01E0
3E3C01E0
3C3FFFE0
7C3FFFE0
7C3DFFE0
FE3DFFE0
FE007800
1E007800
1E3FFFF0
1E7FFFF0
1E7FFFF0
1E7FFFF0
1E007800
1E007800
1E3E79E0
1E3E79E0
1E3C79E0
1E3C79E0
1E3C79F0
1E3C78F0
1E3C78F0
1E7C78F0
1E7878F0
1E7878F0
1E7878F8
ENDCHAR
STARTCHAR 4FDE
ENCODING 20446
SWIDTH 990 0
DWIDTH 33 0
BBX 27 31 3 -3
BITMAP
0FFFFE00
1FFFFF00
1FFFFF00
3FFFFF80
3E000780
3C000780
7C0007C0
79FFF3C0
79FFF3E0
F9FFF3E0
F1FFF1E0
00000000
7FFC03C0
7FFCE3C0
7FFCF3C0
7FFCF3C0
783CF3C0
783CF3C0
7FFCF3C0
7FFCF3C0
7FFCF3C0
783CF3C0
7FFCF3C0
7FFCF3C0
7FFCF3C0
783C03C0
783C03C0
79FC3FC0
79FC3FC0
78FC1FC0
78FC1FC0
ENDCHAR
STARTCHAR 4FDF
ENCODING 20447
SWIDTH 990 0
DWIDTH 33 0
BBX 29 32 2 -3
BITMAP
0F8F8000
0F0F0000
0F1F00C0
1F1F00F0
1E1E00F0
1E1FFFF0
1E3FFFF0
3C3FFFF0
3C3FFFF0
3C000000
7C380000
7E3C0000
7E3FFFF0
FE3FFFF0
1E3FFFF0
1E3FFFE0
1E3C3C00
1E3C3C00
1E3C3C00
1E003C00
1E3FFFF8
1E3FFFF8
1E3FFFF0
1E7FFFF0
1E03EF00
1E07CF80
1E07C7C0
1E0F83C0
1E1F03E0
1E1E01F0
1E3E00F0
1E7C00F8
ENDCHAR
STARTCHAR 4FE1
ENCODING 20449
SWIDTH 990 0
DWIDTH 33 0
BBX 29 32 2 -3
BITMAP
00008000
0F00F000
0F00F000
1F7FFFF8
1E7FFFF0
1E7FFFF0
3E7FFFF0
3C000000
3C3FFFE0
3C3FFFE0
783FFFE0
7E3FFFE0
7E000000
FE000000
1E3FFFE0
1E3FFFE0
1E3FFFE0
1E3FFFE0
1E000000
1E000000
1E3FFFE0
1E3FFFE0
1E3FFFE0
1E3FFFE0
1E3C01E0
1E3C01E0
1E3C01E0
1E3C01E0
1E3DFFE0
1E3CFFE0
1E3CFFE0
1E3CFFE0
ENDCHAR
STARTCHAR 4FE3
ENCODING 20451
SWIDTH 990 0
DWIDTH 33 0
BBX 28 32 2 -3
BITMAP
0F000000
0F1FFFE0
1F1FFFE0
1F1FFFE0
1E1FFFE0
1E1E01E0
3E1E01E0
3C1E01E0
3C1FFFE0
7C1FFFE0
781EFFE0
7E1EFFE0
FE000000
FE3FFFE0
1E3FFFE0
1E3FFFE0
1E3FFFE0
1E007800
1E007800
1E007800
1E3FFFF0
1E3FFFF0
1E7FFFF0
1E7FFFE0
1E01E000
1E03FE00
1E07DF00
1E0F8F80
1E1F87C0
1E1F03E0
1E3E03E0
1E7C01F0
ENDCHAR
STARTCHAR 4FE6
ENCODING 20454
SWIDTH 1020 0
DWIDTH 34 0
BBX 28 32 3 -3
BITMAP
1F01E000
1E03E000
1E7FFFF0
3E7FFFF0
3CFFFFF0
3CFFFFE0
3C07C000
7C07C000
787FFFE0
787FFFE0
F87FFFE0
FC7FFFE0
FC0F0000
FC0F0000
3C7FFFF0
3CFFFFF0
3CFFFFF0
3CFFFFF0
3C3E0000
3C3C0780
3C3C0780
3C3FFFF0
3C7FFFF0
3C7FFFF0
3C7FFFE0
3C780780
3C780780
3CF38780
3CF3DF80
3CF3DF80
3CF3CF80
3DF3CF80
ENDCHAR
STARTCHAR 4FE8
ENCODING 20456
SWIDTH 990 0
DWIDTH 33 0
BBX 28 31 3 -2
BITMAP
1E7FFFF0
1E7FFFE0
1E7FFFE0
3EFFFFE0
3C03DE00
3C63DE80
7C7BDEE0
7C7BDEE0
787BDEE0
787BDEE0
F803DE00
FC7FFFF0
FC7FFFE0
3C7FFFE0
3C7FFFE0
3C780000
3C780000
3C780000
3C780000
3C780000
3C780000
3C780000
3C780000
3C780000
3C780000
3C780000
3C780000
3C780000
3C780000
3C780000
3C780000
ENDCHAR
STARTCHAR 4FE9
ENCODING 20457
SWIDTH 1020 0
DWIDTH 34 0
BBX 29 31 3 -2
BITMAP
1E7FFFF8
1EFFFFF0
1EFFFFF0
3CFFFFF0
3C079E00
3C079E00
7C079E00
78FFFFF0
78FFFFF0
78FFFFF0
FCFFFFF0
FCF39CF0
FCF39CF0
3CF79CF0
3CF7DEF0
3CF7FEF0
3CF7FEF0
3CF7FEF0
3CF7FFF0
3CF7FFF0
3CFFFBF0
3CFFFBF0
3CFFFBF0
3CFE3BF0
3CFE7BF0
3CF000F0
3CF000F0
3CF007F0
3CF007F0
3CF003F0
3CF003F0
ENDCHAR
STARTCHAR 4FEA
ENCODING 20458
SWIDTH 1020 0
DWIDTH 34 0
BBX 29 32 2 -3
BITMAP
1E000000
1FFFFFF8
1DFFFFF8
3DFFFFF8
3DFFFFF8
3C000000
39FFFFF8
79FFFFF8
79FFFFF8
79FFFFF8
79E3FC78
FDE3FC78
FDEBFD78
3DEFFDF8
3DEFFDF8
3DEFFDF8
3DEFFDF8
3DEFFDF8
3DEFFDF8
3DEFFDF8
3DEFFDF8
3DEFFDF8
3DEFFDF8
3DEFFDF8
3DEFFDF8
3DE3FC78
3DE3FC78
3DE3FC78
3DE7FCF8
3DE7FCF8
3DE7FCF8
3DE3FC78
ENDCHAR
STARTCHAR 4FED
ENCODING 20461
SWIDTH 990 0
DWIDTH 33 0
BBX 28 31 3 -2
BITMAP
1F3FFF80
1E3FFF80
1E3FFFC0
3E7FFFC0
3C7C07C0
3C7C03C0
7C7803E0
78F801E0
78F801E0
78000000
FC3FFFE0
FC7FFFE0
FC7FFFC0
3C7FFFC0
3C000000
3C000000
3C608300
3C78E3C0
3C78F3C0
3C78F3C0
3C78F3C0
3C78F3C0
3C78F3C0
3C78F3C0
3C78F3C0
3C78F3C0
3C000000
3C7FFFF0
3CFFFFE0
3CFFFFE0
3CFFFFE0
ENDCHAR
STARTCHAR 4FEE
ENCODING 20462
SWIDTH 990 0
DWIDTH 33 0
BBX 29 31 2 -4
BITMAP
0F03C000
0E07FFE0
1E07FFE0
1E07FFE0
1C07FFE0
3C0F81E0
3D8781E0
3DE7C3E0
79E7FFE0
79E7FFE0
7DE1FFC0
FDE7FFF0
FDEFFFF8
3DEFE7F8
3DEF80F8
3DEC3FF8
3DE3FFE0
3DE3FFE0
3DE3FF80
3DE3C000
3DE007E0
3DE7FFE0
3DE7FFE0
3DE7FFC0
3DE7C000
3DE000F0
3C00FFF0
3C0FFFF0
3C0FFFF0
3C0FFF00
3C0F0000
ENDCHAR
STARTCHAR 4FEF
ENCODING 20463
SWIDTH 990 0
DWIDTH 33 0
BBX 29 32 2 -3
BITMAP
1E003000
1E003C00
1EFFFFF8
3EFFFFF8
3CFFFFF8
3CFFFFF8
3CF00000
7CF00000
78F1E0F0
78F1E0F0
78F3E0F0
FCF3C0F0
FCF3DFF8
3CF3DFF8
3CF7DFF8
3CF7DFF8
3CF7C0F0
3CF3C0F0
3CF3CCF0
3CF3CEF0
3CF3CEF0
3CF3CEF0
3CF3CEF0
3CF3CEF0
3CF3CEF0
3CF3CEF0
3CF3C0F0
3CF3C0F0
3CF3C3F0
3CF3C1F0
3CF3C1F0
3CF3C1F0
ENDCHAR
STARTCHAR 4FF1
ENCODING 20465
SWIDTH 1020 0
DWIDTH 34 0
BBX 28 32 3 -4
BITMAP
1F3FFFC0
1E3FFFC0
1E3FFFC0
3E3FFFC0
3C3C03C0
3C3FFFC0
7C3FFFC0
783FFFC0
783FFFC0
F83C03C0
FC3FFFC0
FC3FFFC0
FC3FFFC0
3C3FFFC0
3C3C03C0
3C3FFFC0
3C3FFFC0
3C3FFFC0
3C3FFFC0
3C3C03C0
3C3C03C0
3CFFFFF0
3CFFFFF0
3CFFFFF0
3CFFFFE0
3C000000
3C1E0780
3C3E07C0
3C3C03C0
3C3C03C0
3C7C03E0
3C7801E0
ENDCHAR
STARTCHAR 4FF3
ENCODING 20467
SWIDTH 990 0
DWIDTH 33 0
BBX 29 31 2 -3
BITMAP
0F83CF00
0F03CF00
1F03CF00
1F03CF00
1E3FCFF8
1E3FCFF8
3E7FCFF0
3C7FCFF0
3C03CF00
7C03CF00
7C03CF00
7E03CF00
FE7FCFF8
1E7FCFF8
1E7FCFF8
1E7FCFF8
1E03CF00
1E03CF00
1E03CF00
1E03CF00
1E03CF00
1E3FCFF8
1E3FCFF8
1E7FCFF8
1E7FCFF0
1E03CF00
1E03CF00
1E03CF00
1E03CF00
1E03CF00
1E03CF00
ENDCHAR
STARTCHAR 4FF8
ENCODING 20472
SWIDTH 990 0
DWIDTH 33 0
BBX 29 31 2 -3
BITMAP
0F00F800
0F3FFFF0
1F3FFFF0
1E3FFFF0
1E7FFFE0
3E3FFFE0
3C3FFFE0
3C3FFFE0
7C0F8000
780F8000
7E7FFFF0
FE7FFFF0
1E7FFFF0
1E7FFFF0
1E3C01E0
1E7C01E0
1E7878F0
1E007800
1E3FFFE0
1E3FFFE0
1E3FFFE0
1E3FFFE0
1E007800
1E7FFFF8
1E7FFFF0
1E7FFFF0
1E7FFFF0
1E007800
1E007800
1E007800
1E007800
ENDCHAR
STARTCHAR 4FFA
ENCODING 20474
SWIDTH 1020 0
DWIDTH 34 0
BBX 28 31 3 -2
BITMAP
1E078000
1E0F8000
1E7FFFF0
3EFFFFF0
3CFFFFF0
3CFFFFE0
7C3C07C0
787C03C0
7878F3E0
F8F8F1E0
FC00F000
FC7FFFE0
FC7FFFE0
3C7FFFE0
3C7FFFE0
3C78F1E0
3C78F1E0
3C7FFFE0
3C7FFFE0
3C7FFFE0
3C78F1E0
3C78F1E0
3C7FFFE0
3C7FFFE0
3C7FFFE0
3C7BFFE0
3C00F000
3C00FFE0
3C00FFF0
3C00FFF0
3C00FFF0
ENDCHAR
STARTCHAR 4FFE
ENCODING 20478
SWIDTH 990 0
DWIDTH 33 0
BBX 29 32 2 -3
BITMAP
0F00F000
0F00F000
0F3FFFF0
1F3FFFF0
1E3FFFF0
1E3FFFF0
3E3C78F0
3C3C78F0
3C3FFFF0
7C3FFFF0
783FFFF0
7E3C78F0
FE3C78F0
FE3C78F0
1E3FFFF0
1E3FFFF0
1E3FFFF0
1E3FFFF0
1E0F0000
1E1F1E00
1E1E1E00
1E001E00
1E3FFFF8
1E3FFFF8
1E7FFFF0
1E7FFFF0
1E001E00
1E001E00
1E001E00
1E001E00
1E001E00
1E001E00
ENDCHAR
STARTCHAR 500C
ENCODING 20492
SWIDTH 990 0
DWIDTH 33 0
BBX 29 30 2 -2
BITMAP
00004000
0F7FFFF8
0F7FFFF8
1F7FFFF8
1E7FFFF8
1E780078
3E780078
3C3FFFE0
3C3FFFE0
7C3FFFE0
7E3FFFE0
7E3C01E0
FE3C01E0
1E3C01E0
1E3FFFE0
1E3FFFE0
1E3FFFE0
1E3FFFE0
1E3C0000
1E3C0000
1E3FFFF0
1E3FFFF0
1E3FFFF0
1E3FFFF0
1E3C00F0
1E3C00F0
1E3FFFF0
1E3FFFF0
1E3FFFF0
1E3FFFF0
ENDCHAR
STARTCHAR 500D
ENCODING 20493
SWIDTH 990 0
DWIDTH 33 0
BBX 29 31 2 -3
BITMAP
00008000
0F80F800
0F7FFFF0
0F7FFFF0
1E7FFFF0
1E7FFFF0
3E000000
3C0C0400
3C0F0780
7C0F0780
7E0F0780
7E7FFFF8
FE7FFFF8
1EFFFFF0
1EFFFFF0
1E000000
1E000000
1E3FFFE0
1E3FFFE0
1E3FFFE0
1E3FFFE0
1E3C01E0
1E3C01E0
1E3C01E0
1E3C01E0
1E3C01E0
1E3C01E0
1E3DFFE0
1E3DFFE0
1E3DFFE0
1E3CFFE0
ENDCHAR
STARTCHAR 500F
ENCODING 20495
SWIDTH 1020 0
DWIDTH 34 0
BBX 28 32 3 -3
BITMAP
1E03C000
1E07C000
1E07FFE0
1C07FFE0
3C07FFE0
3C07FFE0
3C0781E0
798781E0
79E7C3E0
79E7FFE0
79E7FFE0
FDE3FFC0
FDE7FFE0
FDEFFFF0
3DEFE7F0
3DEF00F0
3DEC3DB0
3DE03DE0
3DE03DE0
3DE03DE0
3DE7FFF0
3DE7FFF0
3DEFFFF0
3DEFFFE0
3DE0F800
3DE1FF00
3DE1F780
3C03E7C0
3C03C3C0
3C07C3E0
3C0F81F0
3C0F81F0
ENDCHAR
STARTCHAR 5012
ENCODING 20498
SWIDTH 990 0
DWIDTH 33 0
BBX 29 31 2 -2
BITMAP
1E000078
1EFFF878
3EFFF078
3EFFF078
3FFFE478
3C7C0678
7C790778
7C79E778
7C79E778
78F9E778
78FFE778
FCFFE778
3CFFE778
3DFFE778
3C000778
3C0F0778
3C0F0778
3C0F0778
3CFFF778
3CFFF778
3CFFF778
3CFFF778
3C0F0778
3C0F0078
3C0F0078
3C0F0078
3CFFF878
3CFFF3F8
3DFFF1F8
3DFFF1F8
3C0001F8
ENDCHAR
STARTCHAR 5014
ENCODING 20500
SWIDTH 1050 0
DWIDTH 35 0
BBX 29 31 3 -2
BITMAP
1E7FFFF0
1E7FFFF0
1E7FFFF0
3E7FFFF0
3C7800F0
3C7800F0
7C7FFFF0
787BFFF0
787BFFF0
7879FFF0
FC780000
FC781E00
FC781E00
3C7B9E70
3C7B9E70
3C7B9E70
3C7B9E70
3C7BFFF0
3C7BFFF0
3C7BFFF0
3C7BFFF0
3C781E00
3C781E00
3C7B9E78
3C7B9E78
3C7B9E78
3C7B9E78
3C7BFFF8
3C7BFFF8
3C7BFFF8
3C7BFFF8
ENDCHAR
STARTCHAR 5018
ENCODING 20504
SWIDTH 1020 0
DWIDTH 34 0
BBX 28 31 3 -2
BITMAP
1E00F100
1E70F1C0
1E78F1F0
3E78F1F0
3C78F1F0
3C78F1F0
7C00F000
7800F000
78FFFFF0
78FFFFF0
FCFFFFF0
FCFFFFF0
FCF000F0
3CF000F0
3CF7FEF0
3CF7FEF0
3CF7FEF0
3CF79EF0
3CF79EF0
3CF79EF0
3CF79EF0
3CF79EF0
3CF79EF0
3CF7FEF0
3CF7FEF0
3CF7BEF0
3CF000F0
3CF000F0
3CF001F0
3CF001F0
3CF001F0
ENDCHAR
STARTCHAR 5019
ENCODING 20505
SWIDTH 990 0
DWIDTH 33 0
BBX 28 31 2 -3
BITMAP
0F07FFE0
0F07FFE0
1E07FFE0
1E0FFFE0
1E0001E0
3F8001E0
3DEFFFF0
3DEFFFF0
7DEFFFF0
79EFFFF0
79E00000
FDEF0000
FDEFFFF0
3DEFFFF0
3DEFFFE0
3DEFFFE0
3DEF1E00
3DEF1E00
3DE01E00
3DEFFFF0
3DEFFFF0
3DEFFFF0
3DEFFFF0
3DE07C00
3DE0FF80
3DE1F780
3DE1F7C0
3C03E3E0
3C07C1E0
3C07C1F0
3C0F80F0
ENDCHAR
STARTCHAR 501A
ENCODING 20506
SWIDTH 1020 0
DWIDTH 34 0
BBX 28 32 3 -2
BITMAP
1F01F000
1E03E000
1E3FFFF0
3E7FFFE0
3E7FFFE0
3CFFFFE0
3C0F0F80
7C1F0780
781E07C0
783E03C0
787C03E0
FC7FFFF0
FCFFFFF0
FCFFFFF0
3CFFFFE0
3C0003C0
3C0003C0
3C7FF3C0
3C7FF3C0
3C7FF3C0
3C7FF3C0
3C78F3C0
3C78F3C0
3C78F3C0
3C78F3C0
3C78F3C0
3C7FF3C0
3C7FF3C0
3C7BF7C0
3C7BF7C0
3C0007C0
3C0003C0
ENDCHAR
STARTCHAR 501C
ENCODING 20508
SWIDTH 990 0
DWIDTH 33 0
BBX 28 32 3 -4
BITMAP
1F000000
1E7FFFF0
1E7FFFF0
3E7FFFF0
3C7FFFF0
3C7800F0
7C78F0F0
787BFCF0
787BFCF0
F87BFCF0
F87BFCF0
FC78F0F0
FC7BFEF0
3C7BFCF0
3C7BFCF0
3C7BFCF0
3C7800F0
3C7BFCF0
3C7BFCF0
3C7BFCF0
3C7BFCF0
3C7B9CF0
3C7B9CF0
3C7BFCF0
3C7BFCF0
3C7BFCF0
3C7BBCF0
3C7800F0
3C780FF0
3C780FF0
3C7807F0
3C7807F0
ENDCHAR
STARTCHAR 501F
ENCODING 20511
SWIDTH 1020 0
DWIDTH 34 0
BBX 28 31 3 -2
BITMAP
1F0F0F00
1E0F0F00
1E0F0F00
3E7FFFE0
3C7FFFE0
3C7FFFE0
7C7FFFE0
780F0F00
780F0F00
780F0F00
FC7FFFF0
FCFFFFF0
FCFFFFF0
3CFFFFE0
3C000000
3C000000
3C3FFFC0
3C3FFFC0
3C3FFFC0
3C3FFFC0
3C3C03C0
3C3FFFC0
3C3FFFC0
3C3FFFC0
3C3FFFC0
3C3C03C0
3C3C03C0
3C3DFFC0
3C3DFFC0
3C3CFFC0
3C3CFFC0
ENDCHAR
STARTCHAR 5021
ENCODING 20513
SWIDTH 990 0
DWIDTH 33 0
BBX 27 31 3 -2
BITMAP
1F3FFFE0
1E3FFFE0
1E3FFFE0
3E3FFFE0
3C3C01E0
3C3FFFE0
7C3FFFE0
7C3FFFE0
783C01E0
783C01E0
F83DFFE0
FC3DFFE0
FC3DFFE0
3C3CFFE0
3C000000
3C000000
3C7FFFE0
3C7FFFE0
3C7FFFE0
3C7FFFE0
3C7801E0
3C7FFFE0
3C7FFFE0
3C7FFFE0
3C7FFFE0
3C7801E0
3C7801E0
3C7BFFE0
3C7BFFE0
3C7BFFE0
3C79FFE0
ENDCHAR
STARTCHAR 5025
ENCODING 20517
SWIDTH 1020 0
DWIDTH 34 0
BBX 29 31 3 -2
BITMAP
1F00F000
1E7FFFF0
1E7FFFF0
3E7FFFF0
3C7FFFF0
3C7800F0
7C7800F0
7C000000
78000000
F83E03C0
F83C03C0
FC3C01E0
FC7C01E0
3C7801E0
3C000000
3C7FFFE0
3C7FFFE0
3C7FFFE0
3C7FFFE0
3C00F000
3C00F000
3C00F000
3C00F000
3C00F000
3C00F000
3C00F000
3C00F000
3C7FFFF8
3CFFFFF0
3CFFFFF0
3CFFFFF0
ENDCHAR
ENDFONT
